<svg xmlns="http://www.w3.org/2000/svg" xmlns:xlink="http://www.w3.org/1999/xlink" version="1.1" id="people" x="0px" y="0px" viewBox="0 0 32 32" style="enable-background:new 0 0 32 32;" xml:space="preserve">
<style type="text/css">
	.st0{opacity:0.2;fill:#1A2330;}
	.st1{fill:#1A2330;}
	.st2{opacity:0.2;}
</style>
<g id="female_x5F_rock_x5F_star">
	<g>
		<g>
			<path class="st1" d="M16.4,24c-3.7,0-6.6-3-6.6-6.6v-3.5c0-3.7,3-6.6,6.6-6.6s6.6,3,6.6,6.6v3.5C23.1,21,20.1,24,16.4,24z      M16.4,8.3c-3.1,0-5.6,2.5-5.6,5.6v3.5c0,3.1,2.5,5.6,5.6,5.6h0c3.1,0,5.6-2.5,5.6-5.6v-3.5C22,10.8,19.5,8.3,16.4,8.3z"/>
		</g>
	</g>
	<g>
		<g>
			<path class="st1" d="M19.3,23.8c0.3-0.4,0.8-0.5,1.3-0.3c0,0,0.1,0,0.1,0c1.4,0.6,2.4,1.6,2.4,2.6c0,1.9-2.9,3.4-6.6,3.4     S9.9,28,9.9,26.2c0-1.1,1-2.1,2.5-2.7l0,0c0.5-0.2,1-0.1,1.3,0.3l1.4,1.7c0.7,0.9,2.1,0.9,2.9,0L19.3,23.8z"/>
		</g>
	</g>
	<path class="st1" d="M14.8,6.6c-3.3,0.7-5.5,3.8-5.5,7.2l0,3.8c0,0.2,0,0.4,0,0.6c-0.1,1.4-1.1,2.7-2.6,2.9c-0.2,0-0.3,0-0.5,0   C7,21.9,8,22.2,9.1,22.1l0,0c0.2,0,0.3,0.2,0.2,0.4c-0.2,0.1-0.3,0.2-0.5,0.3c-0.1,0-0.2,0.1-0.3,0.1c0.6,0.4,1.4,0.5,2.1,0.3   c0.1,0,0.2-0.1,0.3-0.1c0.4-0.2,0.8-0.2,1.1,0.1l0,0c0-0.1,0-0.1,0.1-0.2c0.2-0.6,0.2-1.2-0.2-1.7c-0.2-0.3-0.5-0.6-0.6-0.9   L11,20.1l0,0c-0.4-1.7,0-3.6,1.1-5l1.7-2.1c0,0,0,0,0,0c-1.3-1.1-0.1-1.7,0.2-1.1c1.3,2.5,3.5,4.3,6,5.3c1.7,0.6,2.3,2.7,1.1,4.1   l0,0c-0.4,0.5-0.5,1.1-0.2,1.7c0,0.1,0,0.1,0.1,0.2c1.5-1.3,2.5-3.3,2.5-5.4v-4.1C23.5,9.1,19.4,5.6,14.8,6.6z"/>
	<g>
		<g>
			<g>
				<path class="st1" d="M13.8,19.9c0.3-0.2,0.5-0.4,0.8-0.5c0.1-0.1,0.2-0.1,0.3-0.2c0.1,0,0.2-0.1,0.3-0.1c0.2,0,0.4,0,0.5,0.2      c0.1,0.1,0.1,0.1,0.2,0c0.2-0.1,0.3-0.1,0.5,0c0.2,0.1,0.3,0.3,0.4,0.4c0.2,0.3,0.3,0.5,0.5,0.8c0,0,0,0,0,0      c-0.1,0.1-0.2,0.2-0.4,0.2c-0.1,0.1-0.3,0.2-0.4,0.3c-0.8,0.5-1.7,0.3-2.2-0.5C14.1,20.4,14,20.2,13.8,19.9      C13.8,20,13.8,19.9,13.8,19.9z"/>
			</g>
		</g>
	</g>
	<g>
		<g>
			<path class="st1" d="M20.8,15.8h-8.8c-0.4,0-0.8,0.4-0.7,0.8l0.1,1.8c0,0.4,0.3,0.7,0.7,0.7h1.6c0.9,0,1.6-0.6,1.7-1.5     c0.1-0.4,0.5-0.8,0.9-0.8c0.5,0,0.8,0.3,0.9,0.8c0.1,0.8,0.9,1.5,1.7,1.5h1.6c0.4,0,0.7-0.3,0.7-0.7l0.1-1.8     C21.6,16.2,21.2,15.8,20.8,15.8z M13.6,16.5c-0.5,0.1-0.9,0.6-0.8,1.1v0c0,0.3-0.2,0.5-0.5,0.5c-0.2,0-0.4-0.2-0.5-0.4l0-0.1     c0-0.6,0.4-1.1,1-1.1h1L13.6,16.5z M19.8,16.5c-0.5,0.1-0.9,0.6-0.8,1.1v0c0,0.3-0.2,0.5-0.5,0.5c-0.2,0-0.4-0.2-0.5-0.4l0-0.1     c0-0.6,0.4-1.1,1-1.1h1L19.8,16.5z"/>
		</g>
	</g>
</g>
</svg>