<?xml version="1.0" standalone="no"?>
<!DOCTYPE svg PUBLIC "-//W3C//DTD SVG 1.1//EN" "http://www.w3.org/Graphics/SVG/1.1/DTD/svg11.dtd" >
<svg xmlns="http://www.w3.org/2000/svg" xmlns:xlink="http://www.w3.org/1999/xlink" version="1.1">
<metadata>
Created by FontForge 20190801 at Mon Jul 17 14:32:46 2006
 By Jimmy Wärting
Copyright (c) 2001 - 2006 Linotype GmbH, www.linotype.com. All rights reserved. This font software may not be reproduced, modified, disclosed or transferred without the express written approval of Linotype GmbH. Helvetica is a trademark of Heidelberger Druckmaschinen AG, exclusively licensed through Linotype GmbH, and may be registered in certain jurisdictions. This typeface is original artwork of Linotype Design Studio. The design may be protected in certain jurisdictions.
</metadata>
<defs>
<font id="HelveticaWorld-Bold" horiz-adv-x="1200" >
  <font-face 
    font-family="Helvetica World"
    font-weight="700"
    font-stretch="normal"
    units-per-em="2048"
    panose-1="2 11 8 0 4 0 0 2 0 4"
    ascent="1638"
    descent="-410"
    x-height="1090"
    cap-height="1470"
    bbox="-400 -1234 2968 2431"
    underline-thickness="50"
    underline-position="-100"
    unicode-range="U+000D-FFFD"
  />
<missing-glyph horiz-adv-x="1048" 
d="M454 239v137h115v-137h-115zM460 479l-3 35q0 112 26.5 165.5t94.5 120.5q65 65 83.5 98t18.5 72q0 74 -46.5 124.5t-108.5 50.5q-65 0 -111 -45.5t-58 -148.5l-102 16q14 146 89.5 213.5t186.5 67.5q108 0 181.5 -74.5t73.5 -194.5q0 -65 -26 -119.5t-103 -126.5
q-76 -68 -89 -107t-13 -147h-94zM946 102v1265h-844v-1265h844zM1048 1470v-1470h-1048v1470h1048z" />
    <glyph glyph-name="uniFC6A" unicode="&#xfe92;&#xfeae;" horiz-adv-x="1292" arabic-form="final" 
d="M803 603q-23 -153 -68 -275.5t-103.5 -208t-125.5 -131.5t-134 -46q-30 0 -71.5 13.5t-86.5 42t-90.5 72.5t-85.5 106q-5 8 -11.5 18.5t-12 21t-9 19t-3.5 13.5q0 7 7 8t9 0q41 -22 73.5 -36.5t60.5 -23t52.5 -12t49.5 -3.5q60 0 115.5 20.5t108 63.5t101 110.5
t94.5 160.5q5 9 9 20.5t4 25.5q0 13 -16 26t-38 29q-15 11 -30 23.5t-27 27.5t-20 32.5t-8 38.5q0 12 5 39t13 58.5t16.5 61.5t16.5 48q21 -27 48.5 -51t61 -42.5t71.5 -29.5t79 -11q40 0 65 3t37 8q14 5 21.5 14t11.5 23q2 6 7.5 24t14.5 43t22 55t31 60l7 -3
q14 -51 23.5 -91t17 -78t15.5 -76.5t20 -86.5q11 -44 26 -71t33 -41.5t39 -19.5t43 -5v-240h-22q-29 0 -57.5 6t-53 22.5t-44.5 45t-32 73.5q-3 10 -18.5 69t-44.5 167h-5q-20 -35 -37.5 -57.5t-40.5 -37t-55 -22.5t-79 -13zM917 -327l-215 131q11 21 25 45t29 47.5t28.5 44
t23.5 34.5q22 -13 50.5 -30t57.5 -36t57 -37t50 -33q-9 -17 -22 -39t-27.5 -45t-29.5 -44.5t-27 -37.5z" />
    <glyph glyph-name="uniFC70" unicode="&#xfe98;&#xfeae;" horiz-adv-x="1292" arabic-form="final" 
d="M803 603q-23 -153 -68 -275.5t-103.5 -208t-125.5 -131.5t-134 -46q-30 0 -71.5 13.5t-86.5 42t-90.5 72.5t-85.5 106q-5 8 -11.5 18.5t-12 21t-9 19t-3.5 13.5q0 7 7 8t9 0q41 -22 73.5 -36.5t60.5 -23t52.5 -12t49.5 -3.5q60 0 115.5 20.5t108 63.5t101 110.5
t94.5 160.5q5 9 9 20.5t4 25.5q0 13 -16 26t-38 29q-15 11 -30 23.5t-27 27.5t-20 32.5t-8 38.5q0 12 5 39t13 58.5t16.5 61.5t16.5 48q21 -27 48.5 -51t61 -42.5t71.5 -29.5t79 -11q40 0 65 3t37 8q14 5 21.5 14t11.5 23q2 6 7.5 24t14.5 43t22 55t31 60l7 -3
q14 -51 23.5 -91t17 -78t15.5 -76.5t20 -86.5q11 -44 26 -71t33 -41.5t39 -19.5t43 -5v-240h-22q-29 0 -57.5 6t-53 22.5t-44.5 45t-32 73.5q-3 10 -18.5 69t-44.5 167h-5q-20 -35 -37.5 -57.5t-40.5 -37t-55 -22.5t-79 -13zM893 1184l-205 124q10 19 21.5 40t23 41.5
t23 39.5t22.5 34q50 -26 98.5 -56t96.5 -62l72 123q60 -32 111.5 -63t89.5 -57q-23 -40 -45 -78t-47 -74q-23 13 -48 28.5t-49.5 30.5t-47 29.5t-40.5 26.5q-19 -33 -38 -65.5t-38 -61.5z" />
    <glyph glyph-name="uniFD0E" unicode="&#xfeb3;&#xfeae;" horiz-adv-x="2216" arabic-form="isolated" 
d="M2062 991q13 -19 26.5 -65.5t24 -107.5t17 -129t6.5 -130q0 -64 -8 -113.5t-26 -69.5q-14 -14 -48 -20t-76 -6q-102 0 -197.5 17t-187.5 59q-50 -43 -100.5 -62.5t-116.5 -19.5t-113.5 17.5t-81.5 52t-56.5 86.5t-37.5 122q-33 -5 -71 -11.5t-75 -14t-69.5 -15
t-55.5 -14.5q0 -100 -17 -195.5t-47.5 -181t-72 -157.5t-90.5 -124t-103.5 -81.5t-109.5 -29.5q-46 0 -91.5 20.5t-87.5 51.5t-78 68.5t-62.5 71t-41.5 59t-15 33.5q0 2 2 7.5t10 5.5q6 0 17 -6q52 -29 108.5 -53.5t112.5 -24.5q61 0 118 23.5t107 61t91 83.5t70.5 91
t45.5 83.5t16 61.5q0 14 -21.5 28.5t-50.5 34.5l-28 18t-25 18.5t-18 20.5t-7 24q0 8 4 29.5t10 49t14 57t16 53.5q140 29 272 55t260 48q9 -76 27.5 -130.5t51 -89.5t80 -51.5t114.5 -16.5q31 0 61.5 1.5t53.5 10.5t37.5 28.5t14.5 55.5q0 24 -4.5 57t-9.5 69
q87 82 172 151q3 -20 5 -43.5t2 -49.5q0 -57 -9 -118t-28 -113q10 -9 32.5 -18.5t51 -17t60.5 -12t61 -4.5q40 0 67.5 11t27.5 37q0 13 -6.5 35t-16.5 47.5t-23.5 51.5t-26.5 49q34 47 69.5 91t73.5 89z" />
    <glyph glyph-name="uniFD2A" unicode="&#xfeb4;&#xfeae;" horiz-adv-x="2136" arabic-form="final" 
d="M2062 991q13 -19 26.5 -65.5t24 -107.5t17 -129t6.5 -130q0 -64 -8 -113.5t-26 -69.5q-14 -14 -48 -20t-76 -6q-102 0 -197.5 17t-187.5 59q-50 -43 -100.5 -62.5t-116.5 -19.5t-113.5 17.5t-81.5 52t-56.5 86.5t-37.5 122q-33 -5 -71 -11.5t-75 -14t-69.5 -15
t-55.5 -14.5q0 -100 -17 -195.5t-47.5 -181t-72 -157.5t-90.5 -124t-103.5 -81.5t-109.5 -29.5q-46 0 -91.5 20.5t-87.5 51.5t-78 68.5t-62.5 71t-41.5 59t-15 33.5q0 2 2 7.5t10 5.5q6 0 17 -6q52 -29 108.5 -53.5t112.5 -24.5q61 0 118 23.5t107 61t91 83.5t70.5 91
t45.5 83.5t16 61.5q0 14 -21.5 28.5t-50.5 34.5l-28 18t-25 18.5t-18 20.5t-7 24q0 8 4 29.5t10 49t14 57t16 53.5q140 29 272 55t260 48q9 -76 27.5 -130.5t51 -89.5t80 -51.5t114.5 -16.5q31 0 61.5 1.5t53.5 10.5t37.5 28.5t14.5 55.5q0 24 -4.5 57t-9.5 69
q87 82 172 151q3 -20 5 -43.5t2 -49.5q0 -57 -9 -118t-28 -113q10 -9 32.5 -18.5t51 -17t60.5 -12t61 -4.5q40 0 67.5 11t27.5 37q0 13 -6.5 35t-16.5 47.5t-23.5 51.5t-26.5 49q34 47 69.5 91t73.5 89z" />
    <glyph glyph-name="uniFCFB" unicode="&#xfeb3;&#xfef0;" horiz-adv-x="2230" arabic-form="isolated" 
d="M2066 991q13 -19 26.5 -65.5t24 -107.5t17 -129t6.5 -130q0 -64 -8 -113.5t-26 -69.5q-14 -14 -48 -20t-76 -6q-102 0 -197.5 17t-187.5 59q-53 -45 -99 -62t-93 -17q-46 0 -82 9t-64.5 25t-51.5 38t-43 47q-14 18 -28 34t-30.5 29t-38 20.5t-50.5 7.5q-48 0 -98.5 -18
t-92 -42t-67.5 -48t-26 -37q0 -11 13 -18.5t35 -13.5t51.5 -11t61.5 -11q57 -10 101.5 -18t74.5 -20.5t46 -32t16 -52.5q0 -44 -7.5 -82t-19.5 -68t-26.5 -51.5t-27.5 -33.5q-59 -51 -128.5 -93.5t-143.5 -72.5t-150.5 -47t-148.5 -17q-105 0 -179.5 31.5t-122.5 86
t-70.5 126.5t-22.5 153q0 40 6 90.5t20.5 107.5t38 116.5t58.5 117.5q20 34 37 34q9 0 9 -14q0 -8 -3.5 -19.5t-7.5 -24.5q-15 -49 -25.5 -87t-16.5 -71t-9 -64t-3 -66q0 -15 3.5 -42t14.5 -59t32.5 -65.5t57.5 -60.5t89 -44t128 -17q52 0 110 9t116.5 26t115.5 40.5
t108 53.5v11q-121 16 -194 30.5t-112.5 32t-52 39t-12.5 51.5q0 58 21.5 118.5t57.5 116.5t83.5 105.5t99.5 86.5t105.5 58.5t101.5 21.5q30 0 51.5 -8t37.5 -21t28.5 -30t25.5 -35q15 -21 32 -42.5t42.5 -38t62.5 -27t90 -10.5q45 0 72 6.5t41 19t18.5 30.5t4.5 42t-4.5 54
t-9.5 66q87 82 172 151q3 -20 5 -43.5t2 -49.5q0 -57 -9 -118t-28 -113q10 -9 32.5 -18.5t51 -17t60.5 -12t61 -4.5q40 0 67.5 11t27.5 37q0 13 -6.5 35t-16.5 47.5t-23.5 51.5t-26.5 49q34 47 69.5 91t73.5 89z" />
    <glyph glyph-name="uniFD17" unicode="&#xfeb4;&#xfef0;" horiz-adv-x="2140" arabic-form="final" 
d="M2066 991q13 -19 26.5 -65.5t24 -107.5t17 -129t6.5 -130q0 -64 -8 -113.5t-26 -69.5q-14 -14 -48 -20t-76 -6q-102 0 -197.5 17t-187.5 59q-53 -45 -99 -62t-93 -17q-46 0 -82 9t-64.5 25t-51.5 38t-43 47q-14 18 -28 34t-30.5 29t-38 20.5t-50.5 7.5q-48 0 -98.5 -18
t-92 -42t-67.5 -48t-26 -37q0 -11 13 -18.5t35 -13.5t51.5 -11t61.5 -11q57 -10 101.5 -18t74.5 -20.5t46 -32t16 -52.5q0 -44 -7.5 -82t-19.5 -68t-26.5 -51.5t-27.5 -33.5q-59 -51 -128.5 -93.5t-143.5 -72.5t-150.5 -47t-148.5 -17q-105 0 -179.5 31.5t-122.5 86
t-70.5 126.5t-22.5 153q0 40 6 90.5t20.5 107.5t38 116.5t58.5 117.5q20 34 37 34q9 0 9 -14q0 -8 -3.5 -19.5t-7.5 -24.5q-15 -49 -25.5 -87t-16.5 -71t-9 -64t-3 -66q0 -15 3.5 -42t14.5 -59t32.5 -65.5t57.5 -60.5t89 -44t128 -17q52 0 110 9t116.5 26t115.5 40.5
t108 53.5v11q-121 16 -194 30.5t-112.5 32t-52 39t-12.5 51.5q0 58 21.5 118.5t57.5 116.5t83.5 105.5t99.5 86.5t105.5 58.5t101.5 21.5q30 0 51.5 -8t37.5 -21t28.5 -30t25.5 -35q15 -21 32 -42.5t42.5 -38t62.5 -27t90 -10.5q45 0 72 6.5t41 19t18.5 30.5t4.5 42t-4.5 54
t-9.5 66q87 82 172 151q3 -20 5 -43.5t2 -49.5q0 -57 -9 -118t-28 -113q10 -9 32.5 -18.5t51 -17t60.5 -12t61 -4.5q40 0 67.5 11t27.5 37q0 13 -6.5 35t-16.5 47.5t-23.5 51.5t-26.5 49q34 47 69.5 91t73.5 89z" />
    <glyph glyph-name="uniFCFC" unicode="&#xfeb3;&#xfef2;" horiz-adv-x="2230" arabic-form="isolated" 
d="M2066 991q13 -19 26.5 -65.5t24 -107.5t17 -129t6.5 -130q0 -64 -8 -113.5t-26 -69.5q-14 -14 -48 -20t-76 -6q-102 0 -197.5 17t-187.5 59q-53 -45 -99 -62t-93 -17q-46 0 -82 9t-64.5 25t-51.5 38t-43 47q-14 18 -28 34t-30.5 29t-38 20.5t-50.5 7.5q-48 0 -98.5 -18
t-92 -42t-67.5 -48t-26 -37q0 -11 13 -18.5t35 -13.5t51.5 -11t61.5 -11q57 -10 101.5 -18t74.5 -20.5t46 -32t16 -52.5q0 -44 -7.5 -82t-19.5 -68t-26.5 -51.5t-27.5 -33.5q-59 -51 -128.5 -93.5t-143.5 -72.5t-150.5 -47t-148.5 -17q-105 0 -179.5 31.5t-122.5 86
t-70.5 126.5t-22.5 153q0 40 6 90.5t20.5 107.5t38 116.5t58.5 117.5q20 34 37 34q9 0 9 -14q0 -8 -3.5 -19.5t-7.5 -24.5q-15 -49 -25.5 -87t-16.5 -71t-9 -64t-3 -66q0 -15 3.5 -42t14.5 -59t32.5 -65.5t57.5 -60.5t89 -44t128 -17q52 0 110 9t116.5 26t115.5 40.5
t108 53.5v11q-121 16 -194 30.5t-112.5 32t-52 39t-12.5 51.5q0 58 21.5 118.5t57.5 116.5t83.5 105.5t99.5 86.5t105.5 58.5t101.5 21.5q30 0 51.5 -8t37.5 -21t28.5 -30t25.5 -35q15 -21 32 -42.5t42.5 -38t62.5 -27t90 -10.5q45 0 72 6.5t41 19t18.5 30.5t4.5 42t-4.5 54
t-9.5 66q87 82 172 151q3 -20 5 -43.5t2 -49.5q0 -57 -9 -118t-28 -113q10 -9 32.5 -18.5t51 -17t60.5 -12t61 -4.5q40 0 67.5 11t27.5 37q0 13 -6.5 35t-16.5 47.5t-23.5 51.5t-26.5 49q34 47 69.5 91t73.5 89zM436 -618l-205 124q10 19 21.5 40t23 41.5t23 39.5t22.5 34
q50 -26 98.5 -56t96.5 -62l72 123q60 -32 111.5 -63t89.5 -57q-23 -40 -45 -78t-47 -74q-23 13 -48 28.5t-49.5 30.5t-47 29.5t-40.5 26.5q-19 -33 -38 -65.5t-38 -61.5z" />
    <glyph glyph-name="uniFD18" unicode="&#xfeb4;&#xfef2;" horiz-adv-x="2140" arabic-form="final" 
d="M2066 991q13 -19 26.5 -65.5t24 -107.5t17 -129t6.5 -130q0 -64 -8 -113.5t-26 -69.5q-14 -14 -48 -20t-76 -6q-102 0 -197.5 17t-187.5 59q-53 -45 -99 -62t-93 -17q-46 0 -82 9t-64.5 25t-51.5 38t-43 47q-14 18 -28 34t-30.5 29t-38 20.5t-50.5 7.5q-48 0 -98.5 -18
t-92 -42t-67.5 -48t-26 -37q0 -11 13 -18.5t35 -13.5t51.5 -11t61.5 -11q57 -10 101.5 -18t74.5 -20.5t46 -32t16 -52.5q0 -44 -7.5 -82t-19.5 -68t-26.5 -51.5t-27.5 -33.5q-59 -51 -128.5 -93.5t-143.5 -72.5t-150.5 -47t-148.5 -17q-105 0 -179.5 31.5t-122.5 86
t-70.5 126.5t-22.5 153q0 40 6 90.5t20.5 107.5t38 116.5t58.5 117.5q20 34 37 34q9 0 9 -14q0 -8 -3.5 -19.5t-7.5 -24.5q-15 -49 -25.5 -87t-16.5 -71t-9 -64t-3 -66q0 -15 3.5 -42t14.5 -59t32.5 -65.5t57.5 -60.5t89 -44t128 -17q52 0 110 9t116.5 26t115.5 40.5
t108 53.5v11q-121 16 -194 30.5t-112.5 32t-52 39t-12.5 51.5q0 58 21.5 118.5t57.5 116.5t83.5 105.5t99.5 86.5t105.5 58.5t101.5 21.5q30 0 51.5 -8t37.5 -21t28.5 -30t25.5 -35q15 -21 32 -42.5t42.5 -38t62.5 -27t90 -10.5q45 0 72 6.5t41 19t18.5 30.5t4.5 42t-4.5 54
t-9.5 66q87 82 172 151q3 -20 5 -43.5t2 -49.5q0 -57 -9 -118t-28 -113q10 -9 32.5 -18.5t51 -17t60.5 -12t61 -4.5q40 0 67.5 11t27.5 37q0 13 -6.5 35t-16.5 47.5t-23.5 51.5t-26.5 49q34 47 69.5 91t73.5 89zM436 -618l-205 124q10 19 21.5 40t23 41.5t23 39.5t22.5 34
q50 -26 98.5 -56t96.5 -62l72 123q60 -32 111.5 -63t89.5 -57q-23 -40 -45 -78t-47 -74q-23 13 -48 28.5t-49.5 30.5t-47 29.5t-40.5 26.5q-19 -33 -38 -65.5t-38 -61.5z" />
    <glyph glyph-name="uniFD0D" unicode="&#xfeb7;&#xfeae;" horiz-adv-x="2216" arabic-form="isolated" 
d="M2062 991q13 -19 26.5 -65.5t24 -107.5t17 -129t6.5 -130q0 -64 -8 -113.5t-26 -69.5q-14 -14 -48 -20t-76 -6q-102 0 -197.5 17t-187.5 59q-50 -43 -100.5 -62.5t-116.5 -19.5t-113.5 17.5t-81.5 52t-56.5 86.5t-37.5 122q-33 -5 -71 -11.5t-75 -14t-69.5 -15
t-55.5 -14.5q0 -100 -17 -195.5t-47.5 -181t-72 -157.5t-90.5 -124t-103.5 -81.5t-109.5 -29.5q-46 0 -91.5 20.5t-87.5 51.5t-78 68.5t-62.5 71t-41.5 59t-15 33.5q0 2 2 7.5t10 5.5q6 0 17 -6q52 -29 108.5 -53.5t112.5 -24.5q61 0 118 23.5t107 61t91 83.5t70.5 91
t45.5 83.5t16 61.5q0 14 -21.5 28.5t-50.5 34.5l-28 18t-25 18.5t-18 20.5t-7 24q0 8 4 29.5t10 49t14 57t16 53.5q140 29 272 55t260 48q9 -76 27.5 -130.5t51 -89.5t80 -51.5t114.5 -16.5q31 0 61.5 1.5t53.5 10.5t37.5 28.5t14.5 55.5q0 24 -4.5 57t-9.5 69
q87 82 172 151q3 -20 5 -43.5t2 -49.5q0 -57 -9 -118t-28 -113q10 -9 32.5 -18.5t51 -17t60.5 -12t61 -4.5q40 0 67.5 11t27.5 37q0 13 -6.5 35t-16.5 47.5t-23.5 51.5t-26.5 49q34 47 69.5 91t73.5 89zM1558 1069q-48 29 -96 57.5t-95 57.5q23 40 42.5 74t45.5 69
q45 -26 88.5 -52t92.5 -55q20 33 39 63t37 57q43 -26 91.5 -56t93.5 -62q-11 -19 -23.5 -39t-25 -39t-23.5 -34.5t-18 -24.5q-42 26 -84.5 52.5t-84.5 52.5q-20 -28 -39.5 -58.5t-40.5 -62.5zM1603 1330q-48 29 -93 55.5t-89 52.5q19 36 40.5 71t47.5 67l182 -109
q-5 -9 -14 -24.5t-21 -35t-25.5 -39.5t-27.5 -38z" />
    <glyph glyph-name="uniFD29" unicode="&#xfeb8;&#xfeae;" horiz-adv-x="2136" arabic-form="final" 
d="M2062 991q13 -19 26.5 -65.5t24 -107.5t17 -129t6.5 -130q0 -64 -8 -113.5t-26 -69.5q-14 -14 -48 -20t-76 -6q-102 0 -197.5 17t-187.5 59q-50 -43 -100.5 -62.5t-116.5 -19.5t-113.5 17.5t-81.5 52t-56.5 86.5t-37.5 122q-33 -5 -71 -11.5t-75 -14t-69.5 -15
t-55.5 -14.5q0 -100 -17 -195.5t-47.5 -181t-72 -157.5t-90.5 -124t-103.5 -81.5t-109.5 -29.5q-46 0 -91.5 20.5t-87.5 51.5t-78 68.5t-62.5 71t-41.5 59t-15 33.5q0 2 2 7.5t10 5.5q6 0 17 -6q52 -29 108.5 -53.5t112.5 -24.5q61 0 118 23.5t107 61t91 83.5t70.5 91
t45.5 83.5t16 61.5q0 14 -21.5 28.5t-50.5 34.5l-28 18t-25 18.5t-18 20.5t-7 24q0 8 4 29.5t10 49t14 57t16 53.5q140 29 272 55t260 48q9 -76 27.5 -130.5t51 -89.5t80 -51.5t114.5 -16.5q31 0 61.5 1.5t53.5 10.5t37.5 28.5t14.5 55.5q0 24 -4.5 57t-9.5 69
q87 82 172 151q3 -20 5 -43.5t2 -49.5q0 -57 -9 -118t-28 -113q10 -9 32.5 -18.5t51 -17t60.5 -12t61 -4.5q40 0 67.5 11t27.5 37q0 13 -6.5 35t-16.5 47.5t-23.5 51.5t-26.5 49q34 47 69.5 91t73.5 89zM1558 1069q-48 29 -96 57.5t-95 57.5q23 40 42.5 74t45.5 69
q45 -26 88.5 -52t92.5 -55q20 33 39 63t37 57q43 -26 91.5 -56t93.5 -62q-11 -19 -23.5 -39t-25 -39t-23.5 -34.5t-18 -24.5q-42 26 -84.5 52.5t-84.5 52.5q-20 -28 -39.5 -58.5t-40.5 -62.5zM1603 1330q-48 29 -93 55.5t-89 52.5q19 36 40.5 71t47.5 67l182 -109
q-5 -9 -14 -24.5t-21 -35t-25.5 -39.5t-27.5 -38z" />
    <glyph glyph-name="uniFCFD" unicode="&#xfeb7;&#xfef0;" horiz-adv-x="2230" arabic-form="isolated" 
d="M2066 991q13 -19 26.5 -65.5t24 -107.5t17 -129t6.5 -130q0 -64 -8 -113.5t-26 -69.5q-14 -14 -48 -20t-76 -6q-102 0 -197.5 17t-187.5 59q-53 -45 -99 -62t-93 -17q-46 0 -82 9t-64.5 25t-51.5 38t-43 47q-14 18 -28 34t-30.5 29t-38 20.5t-50.5 7.5q-48 0 -98.5 -18
t-92 -42t-67.5 -48t-26 -37q0 -11 13 -18.5t35 -13.5t51.5 -11t61.5 -11q57 -10 101.5 -18t74.5 -20.5t46 -32t16 -52.5q0 -44 -7.5 -82t-19.5 -68t-26.5 -51.5t-27.5 -33.5q-59 -51 -128.5 -93.5t-143.5 -72.5t-150.5 -47t-148.5 -17q-105 0 -179.5 31.5t-122.5 86
t-70.5 126.5t-22.5 153q0 40 6 90.5t20.5 107.5t38 116.5t58.5 117.5q20 34 37 34q9 0 9 -14q0 -8 -3.5 -19.5t-7.5 -24.5q-15 -49 -25.5 -87t-16.5 -71t-9 -64t-3 -66q0 -15 3.5 -42t14.5 -59t32.5 -65.5t57.5 -60.5t89 -44t128 -17q52 0 110 9t116.5 26t115.5 40.5
t108 53.5v11q-121 16 -194 30.5t-112.5 32t-52 39t-12.5 51.5q0 58 21.5 118.5t57.5 116.5t83.5 105.5t99.5 86.5t105.5 58.5t101.5 21.5q30 0 51.5 -8t37.5 -21t28.5 -30t25.5 -35q15 -21 32 -42.5t42.5 -38t62.5 -27t90 -10.5q45 0 72 6.5t41 19t18.5 30.5t4.5 42t-4.5 54
t-9.5 66q87 82 172 151q3 -20 5 -43.5t2 -49.5q0 -57 -9 -118t-28 -113q10 -9 32.5 -18.5t51 -17t60.5 -12t61 -4.5q40 0 67.5 11t27.5 37q0 13 -6.5 35t-16.5 47.5t-23.5 51.5t-26.5 49q34 47 69.5 91t73.5 89zM1562 1069q-48 29 -96 57.5t-95 57.5q23 40 42.5 74t45.5 69
q45 -26 88.5 -52t92.5 -55q20 33 39 63t37 57q43 -26 91.5 -56t93.5 -62q-11 -19 -23.5 -39t-25 -39t-23.5 -34.5t-18 -24.5q-42 26 -84.5 52.5t-84.5 52.5q-20 -28 -39.5 -58.5t-40.5 -62.5zM1607 1330q-48 29 -93 55.5t-89 52.5q19 36 40.5 71t47.5 67l182 -109
q-5 -9 -14 -24.5t-21 -35t-25.5 -39.5t-27.5 -38z" />
    <glyph glyph-name="uniFD19" unicode="&#xfeb8;&#xfef0;" horiz-adv-x="2140" arabic-form="final" 
d="M2066 991q13 -19 26.5 -65.5t24 -107.5t17 -129t6.5 -130q0 -64 -8 -113.5t-26 -69.5q-14 -14 -48 -20t-76 -6q-102 0 -197.5 17t-187.5 59q-53 -45 -99 -62t-93 -17q-46 0 -82 9t-64.5 25t-51.5 38t-43 47q-14 18 -28 34t-30.5 29t-38 20.5t-50.5 7.5q-48 0 -98.5 -18
t-92 -42t-67.5 -48t-26 -37q0 -11 13 -18.5t35 -13.5t51.5 -11t61.5 -11q57 -10 101.5 -18t74.5 -20.5t46 -32t16 -52.5q0 -44 -7.5 -82t-19.5 -68t-26.5 -51.5t-27.5 -33.5q-59 -51 -128.5 -93.5t-143.5 -72.5t-150.5 -47t-148.5 -17q-105 0 -179.5 31.5t-122.5 86
t-70.5 126.5t-22.5 153q0 40 6 90.5t20.5 107.5t38 116.5t58.5 117.5q20 34 37 34q9 0 9 -14q0 -8 -3.5 -19.5t-7.5 -24.5q-15 -49 -25.5 -87t-16.5 -71t-9 -64t-3 -66q0 -15 3.5 -42t14.5 -59t32.5 -65.5t57.5 -60.5t89 -44t128 -17q52 0 110 9t116.5 26t115.5 40.5
t108 53.5v11q-121 16 -194 30.5t-112.5 32t-52 39t-12.5 51.5q0 58 21.5 118.5t57.5 116.5t83.5 105.5t99.5 86.5t105.5 58.5t101.5 21.5q30 0 51.5 -8t37.5 -21t28.5 -30t25.5 -35q15 -21 32 -42.5t42.5 -38t62.5 -27t90 -10.5q45 0 72 6.5t41 19t18.5 30.5t4.5 42t-4.5 54
t-9.5 66q87 82 172 151q3 -20 5 -43.5t2 -49.5q0 -57 -9 -118t-28 -113q10 -9 32.5 -18.5t51 -17t60.5 -12t61 -4.5q40 0 67.5 11t27.5 37q0 13 -6.5 35t-16.5 47.5t-23.5 51.5t-26.5 49q34 47 69.5 91t73.5 89zM1562 1069q-48 29 -96 57.5t-95 57.5q23 40 42.5 74t45.5 69
q45 -26 88.5 -52t92.5 -55q20 33 39 63t37 57q43 -26 91.5 -56t93.5 -62q-11 -19 -23.5 -39t-25 -39t-23.5 -34.5t-18 -24.5q-42 26 -84.5 52.5t-84.5 52.5q-20 -28 -39.5 -58.5t-40.5 -62.5zM1607 1330q-48 29 -93 55.5t-89 52.5q19 36 40.5 71t47.5 67l182 -109
q-5 -9 -14 -24.5t-21 -35t-25.5 -39.5t-27.5 -38z" />
    <glyph glyph-name="uniFCFE" unicode="&#xfeb7;&#xfef2;" horiz-adv-x="2230" arabic-form="isolated" 
d="M2066 991q13 -19 26.5 -65.5t24 -107.5t17 -129t6.5 -130q0 -64 -8 -113.5t-26 -69.5q-14 -14 -48 -20t-76 -6q-102 0 -197.5 17t-187.5 59q-53 -45 -99 -62t-93 -17q-46 0 -82 9t-64.5 25t-51.5 38t-43 47q-14 18 -28 34t-30.5 29t-38 20.5t-50.5 7.5q-48 0 -98.5 -18
t-92 -42t-67.5 -48t-26 -37q0 -11 13 -18.5t35 -13.5t51.5 -11t61.5 -11q57 -10 101.5 -18t74.5 -20.5t46 -32t16 -52.5q0 -44 -7.5 -82t-19.5 -68t-26.5 -51.5t-27.5 -33.5q-59 -51 -128.5 -93.5t-143.5 -72.5t-150.5 -47t-148.5 -17q-105 0 -179.5 31.5t-122.5 86
t-70.5 126.5t-22.5 153q0 40 6 90.5t20.5 107.5t38 116.5t58.5 117.5q20 34 37 34q9 0 9 -14q0 -8 -3.5 -19.5t-7.5 -24.5q-15 -49 -25.5 -87t-16.5 -71t-9 -64t-3 -66q0 -15 3.5 -42t14.5 -59t32.5 -65.5t57.5 -60.5t89 -44t128 -17q52 0 110 9t116.5 26t115.5 40.5
t108 53.5v11q-121 16 -194 30.5t-112.5 32t-52 39t-12.5 51.5q0 58 21.5 118.5t57.5 116.5t83.5 105.5t99.5 86.5t105.5 58.5t101.5 21.5q30 0 51.5 -8t37.5 -21t28.5 -30t25.5 -35q15 -21 32 -42.5t42.5 -38t62.5 -27t90 -10.5q45 0 72 6.5t41 19t18.5 30.5t4.5 42t-4.5 54
t-9.5 66q87 82 172 151q3 -20 5 -43.5t2 -49.5q0 -57 -9 -118t-28 -113q10 -9 32.5 -18.5t51 -17t60.5 -12t61 -4.5q40 0 67.5 11t27.5 37q0 13 -6.5 35t-16.5 47.5t-23.5 51.5t-26.5 49q34 47 69.5 91t73.5 89zM1562 1069q-48 29 -96 57.5t-95 57.5q23 40 42.5 74t45.5 69
q45 -26 88.5 -52t92.5 -55q20 33 39 63t37 57q43 -26 91.5 -56t93.5 -62q-11 -19 -23.5 -39t-25 -39t-23.5 -34.5t-18 -24.5q-42 26 -84.5 52.5t-84.5 52.5q-20 -28 -39.5 -58.5t-40.5 -62.5zM1607 1330q-48 29 -93 55.5t-89 52.5q19 36 40.5 71t47.5 67l182 -109
q-5 -9 -14 -24.5t-21 -35t-25.5 -39.5t-27.5 -38zM436 -618l-205 124q10 19 21.5 40t23 41.5t23 39.5t22.5 34q50 -26 98.5 -56t96.5 -62l72 123q60 -32 111.5 -63t89.5 -57q-23 -40 -45 -78t-47 -74q-23 13 -48 28.5t-49.5 30.5t-47 29.5t-40.5 26.5q-19 -33 -38 -65.5
t-38 -61.5z" />
    <glyph glyph-name="uniFD1A" unicode="&#xfeb8;&#xfef2;" horiz-adv-x="2140" arabic-form="final" 
d="M2066 991q13 -19 26.5 -65.5t24 -107.5t17 -129t6.5 -130q0 -64 -8 -113.5t-26 -69.5q-14 -14 -48 -20t-76 -6q-102 0 -197.5 17t-187.5 59q-53 -45 -99 -62t-93 -17q-46 0 -82 9t-64.5 25t-51.5 38t-43 47q-14 18 -28 34t-30.5 29t-38 20.5t-50.5 7.5q-48 0 -98.5 -18
t-92 -42t-67.5 -48t-26 -37q0 -11 13 -18.5t35 -13.5t51.5 -11t61.5 -11q57 -10 101.5 -18t74.5 -20.5t46 -32t16 -52.5q0 -44 -7.5 -82t-19.5 -68t-26.5 -51.5t-27.5 -33.5q-59 -51 -128.5 -93.5t-143.5 -72.5t-150.5 -47t-148.5 -17q-105 0 -179.5 31.5t-122.5 86
t-70.5 126.5t-22.5 153q0 40 6 90.5t20.5 107.5t38 116.5t58.5 117.5q20 34 37 34q9 0 9 -14q0 -8 -3.5 -19.5t-7.5 -24.5q-15 -49 -25.5 -87t-16.5 -71t-9 -64t-3 -66q0 -15 3.5 -42t14.5 -59t32.5 -65.5t57.5 -60.5t89 -44t128 -17q52 0 110 9t116.5 26t115.5 40.5
t108 53.5v11q-121 16 -194 30.5t-112.5 32t-52 39t-12.5 51.5q0 58 21.5 118.5t57.5 116.5t83.5 105.5t99.5 86.5t105.5 58.5t101.5 21.5q30 0 51.5 -8t37.5 -21t28.5 -30t25.5 -35q15 -21 32 -42.5t42.5 -38t62.5 -27t90 -10.5q45 0 72 6.5t41 19t18.5 30.5t4.5 42t-4.5 54
t-9.5 66q87 82 172 151q3 -20 5 -43.5t2 -49.5q0 -57 -9 -118t-28 -113q10 -9 32.5 -18.5t51 -17t60.5 -12t61 -4.5q40 0 67.5 11t27.5 37q0 13 -6.5 35t-16.5 47.5t-23.5 51.5t-26.5 49q34 47 69.5 91t73.5 89zM1562 1069q-48 29 -96 57.5t-95 57.5q23 40 42.5 74t45.5 69
q45 -26 88.5 -52t92.5 -55q20 33 39 63t37 57q43 -26 91.5 -56t93.5 -62q-11 -19 -23.5 -39t-25 -39t-23.5 -34.5t-18 -24.5q-42 26 -84.5 52.5t-84.5 52.5q-20 -28 -39.5 -58.5t-40.5 -62.5zM1607 1330q-48 29 -93 55.5t-89 52.5q19 36 40.5 71t47.5 67l182 -109
q-5 -9 -14 -24.5t-21 -35t-25.5 -39.5t-27.5 -38zM436 -618l-205 124q10 19 21.5 40t23 41.5t23 39.5t22.5 34q50 -26 98.5 -56t96.5 -62l72 123q60 -32 111.5 -63t89.5 -57q-23 -40 -45 -78t-47 -74q-23 13 -48 28.5t-49.5 30.5t-47 29.5t-40.5 26.5q-19 -33 -38 -65.5
t-38 -61.5z" />
    <glyph glyph-name="uniFD0F" unicode="&#xfebb;&#xfeae;" horiz-adv-x="2540" arabic-form="isolated" 
d="M592 768q140 29 272 55t260 48q11 -90 38.5 -145.5t65 -85.5t81 -40t85.5 -10q20 0 36 5.5t34.5 19t42.5 36t60 55.5q90 84 163.5 146.5t137.5 104t121.5 62.5t116.5 21q39 0 74 -10t65.5 -28t57.5 -42.5t50 -52.5q62 -77 84.5 -139.5t22.5 -118.5q0 -54 -10.5 -103.5
t-24.5 -83.5t-37 -54.5t-52.5 -32t-66 -16.5t-77.5 -9q-50 -5 -107.5 -7.5t-116.5 -3.5t-116.5 -1.5t-105.5 -0.5q-81 0 -175.5 3t-179.5 10q-57 4 -105.5 19t-87 45.5t-67.5 81t-47 126.5q-33 -5 -70.5 -11.5t-74 -14t-68.5 -15t-55 -14.5q0 -100 -17 -195.5t-47.5 -181
t-72 -157.5t-90.5 -124t-103.5 -81.5t-109.5 -29.5q-46 0 -91.5 20.5t-87.5 51.5t-78 68.5t-62.5 71t-41.5 59t-15 33.5q0 2 2 7.5t10 5.5q6 0 17 -6q52 -29 108.5 -53.5t112.5 -24.5q61 0 118 23.5t107 61t91 83.5t70.5 91t45.5 83.5t16 61.5q0 14 -21.5 28.5t-50.5 34.5
l-28 18t-25 18.5t-18 20.5t-7 24q0 8 4 29.5t10 49t14 57t16 53.5zM1614 582q49 -3 99 -4.5t96.5 -2t88 -1t74.5 -0.5q28 0 64.5 0.5t74.5 2t75.5 3.5t66.5 5.5t47 7.5t18 10q0 10 -7 27t-20.5 37t-33 41.5t-44.5 41.5q-18 14 -36 26.5t-39.5 22t-47 15t-57.5 5.5
q-27 0 -61.5 -7.5t-83 -31.5t-115.5 -70t-159 -124v-4z" />
    <glyph glyph-name="uniFD2B" unicode="&#xfebc;&#xfeae;" horiz-adv-x="2460" arabic-form="final" 
d="M592 768q140 29 272 55t260 48q11 -90 38.5 -145.5t65 -85.5t81 -40t85.5 -10q20 0 36 5.5t34.5 19t42.5 36t60 55.5q90 84 163.5 146.5t137.5 104t121.5 62.5t116.5 21q39 0 74 -10t65.5 -28t57.5 -42.5t50 -52.5q62 -77 84.5 -139.5t22.5 -118.5q0 -54 -10.5 -103.5
t-24.5 -83.5t-37 -54.5t-52.5 -32t-66 -16.5t-77.5 -9q-50 -5 -107.5 -7.5t-116.5 -3.5t-116.5 -1.5t-105.5 -0.5q-81 0 -175.5 3t-179.5 10q-57 4 -105.5 19t-87 45.5t-67.5 81t-47 126.5q-33 -5 -70.5 -11.5t-74 -14t-68.5 -15t-55 -14.5q0 -100 -17 -195.5t-47.5 -181
t-72 -157.5t-90.5 -124t-103.5 -81.5t-109.5 -29.5q-46 0 -91.5 20.5t-87.5 51.5t-78 68.5t-62.5 71t-41.5 59t-15 33.5q0 2 2 7.5t10 5.5q6 0 17 -6q52 -29 108.5 -53.5t112.5 -24.5q61 0 118 23.5t107 61t91 83.5t70.5 91t45.5 83.5t16 61.5q0 14 -21.5 28.5t-50.5 34.5
l-28 18t-25 18.5t-18 20.5t-7 24q0 8 4 29.5t10 49t14 57t16 53.5zM1614 582q49 -3 99 -4.5t96.5 -2t88 -1t74.5 -0.5q28 0 64.5 0.5t74.5 2t75.5 3.5t66.5 5.5t47 7.5t18 10q0 10 -7 27t-20.5 37t-33 41.5t-44.5 41.5q-18 14 -36 26.5t-39.5 22t-47 15t-57.5 5.5
q-27 0 -61.5 -7.5t-83 -31.5t-115.5 -70t-159 -124v-4z" />
    <glyph glyph-name="uniFD05" unicode="&#xfebb;&#xfef0;" horiz-adv-x="2557" arabic-form="isolated" 
d="M1410 590q20 0 36.5 5.5t35 19t42.5 36t60 55.5q90 84 163.5 146.5t137.5 104t121.5 62.5t116.5 21q39 0 74 -10t65.5 -28t57.5 -42.5t50 -52.5q62 -77 84.5 -139.5t22.5 -118.5q0 -54 -10.5 -103.5t-24.5 -83.5t-37 -54.5t-52.5 -32t-66 -16.5t-77.5 -9
q-50 -5 -107.5 -7.5t-116.5 -3.5t-116.5 -1.5t-105.5 -0.5q-81 0 -175.5 4.5t-179.5 9.5q-78 5 -129.5 31.5t-89.5 61.5q-22 20 -39 40.5t-35.5 36.5t-41.5 26t-56 10q-48 0 -98.5 -18t-92 -42t-67.5 -48t-26 -37q0 -11 13 -18.5t35 -13.5t51.5 -11t61.5 -11
q57 -10 101.5 -18t74.5 -20.5t46 -32t16 -52.5q0 -44 -7.5 -82t-19.5 -68t-26.5 -51.5t-27.5 -33.5q-59 -51 -128.5 -93.5t-143.5 -72.5t-150.5 -47t-148.5 -17q-105 0 -179.5 31.5t-122.5 86t-70.5 126.5t-22.5 153q0 40 6 90.5t20.5 107.5t38 116.5t58.5 117.5
q20 34 37 34q9 0 9 -14q0 -8 -3.5 -19.5t-7.5 -24.5q-15 -49 -25.5 -87t-16.5 -71t-9 -64t-3 -66q0 -15 3.5 -42t14.5 -59t32.5 -65.5t57.5 -60.5t89 -44t128 -17q52 0 110 9t116.5 26t115.5 40.5t108 53.5v11q-121 16 -194 30.5t-112.5 32t-52 39t-12.5 51.5
q0 58 21.5 118.5t57.5 116.5t83.5 105.5t99.5 86.5t105.5 58.5t101.5 21.5q30 0 51 -7.5t37.5 -20.5t29.5 -30t25 -36q14 -21 30 -41.5t39 -37t56 -26.5t80 -10zM1631 582q49 -3 99 -4.5t96.5 -2t88 -1t74.5 -0.5q28 0 64.5 0.5t74.5 2t75.5 3.5t66.5 5.5t47 7.5t18 10
q0 10 -7 27t-20.5 37t-33 41.5t-44.5 41.5q-18 14 -36 26.5t-39.5 22t-47 15t-57.5 5.5q-27 0 -61.5 -7.5t-83 -31.5t-115.5 -70t-159 -124v-4z" />
    <glyph glyph-name="uniFD21" unicode="&#xfebc;&#xfef0;" horiz-adv-x="2477" arabic-form="final" 
d="M1410 590q20 0 36.5 5.5t35 19t42.5 36t60 55.5q90 84 163.5 146.5t137.5 104t121.5 62.5t116.5 21q39 0 74 -10t65.5 -28t57.5 -42.5t50 -52.5q62 -77 84.5 -139.5t22.5 -118.5q0 -54 -10.5 -103.5t-24.5 -83.5t-37 -54.5t-52.5 -32t-66 -16.5t-77.5 -9
q-50 -5 -107.5 -7.5t-116.5 -3.5t-116.5 -1.5t-105.5 -0.5q-81 0 -175.5 4.5t-179.5 9.5q-78 5 -129.5 31.5t-89.5 61.5q-22 20 -39 40.5t-35.5 36.5t-41.5 26t-56 10q-48 0 -98.5 -18t-92 -42t-67.5 -48t-26 -37q0 -11 13 -18.5t35 -13.5t51.5 -11t61.5 -11
q57 -10 101.5 -18t74.5 -20.5t46 -32t16 -52.5q0 -44 -7.5 -82t-19.5 -68t-26.5 -51.5t-27.5 -33.5q-59 -51 -128.5 -93.5t-143.5 -72.5t-150.5 -47t-148.5 -17q-105 0 -179.5 31.5t-122.5 86t-70.5 126.5t-22.5 153q0 40 6 90.5t20.5 107.5t38 116.5t58.5 117.5
q20 34 37 34q9 0 9 -14q0 -8 -3.5 -19.5t-7.5 -24.5q-15 -49 -25.5 -87t-16.5 -71t-9 -64t-3 -66q0 -15 3.5 -42t14.5 -59t32.5 -65.5t57.5 -60.5t89 -44t128 -17q52 0 110 9t116.5 26t115.5 40.5t108 53.5v11q-121 16 -194 30.5t-112.5 32t-52 39t-12.5 51.5
q0 58 21.5 118.5t57.5 116.5t83.5 105.5t99.5 86.5t105.5 58.5t101.5 21.5q30 0 51 -7.5t37.5 -20.5t29.5 -30t25 -36q14 -21 30 -41.5t39 -37t56 -26.5t80 -10zM1631 582q49 -3 99 -4.5t96.5 -2t88 -1t74.5 -0.5q28 0 64.5 0.5t74.5 2t75.5 3.5t66.5 5.5t47 7.5t18 10
q0 10 -7 27t-20.5 37t-33 41.5t-44.5 41.5q-18 14 -36 26.5t-39.5 22t-47 15t-57.5 5.5q-27 0 -61.5 -7.5t-83 -31.5t-115.5 -70t-159 -124v-4z" />
    <glyph glyph-name="uniFD06" unicode="&#xfebb;&#xfef2;" horiz-adv-x="2557" arabic-form="isolated" 
d="M1410 590q20 0 36.5 5.5t35 19t42.5 36t60 55.5q90 84 163.5 146.5t137.5 104t121.5 62.5t116.5 21q39 0 74 -10t65.5 -28t57.5 -42.5t50 -52.5q62 -77 84.5 -139.5t22.5 -118.5q0 -54 -10.5 -103.5t-24.5 -83.5t-37 -54.5t-52.5 -32t-66 -16.5t-77.5 -9
q-50 -5 -107.5 -7.5t-116.5 -3.5t-116.5 -1.5t-105.5 -0.5q-81 0 -175.5 4.5t-179.5 9.5q-78 5 -129.5 31.5t-89.5 61.5q-22 20 -39 40.5t-35.5 36.5t-41.5 26t-56 10q-48 0 -98.5 -18t-92 -42t-67.5 -48t-26 -37q0 -11 13 -18.5t35 -13.5t51.5 -11t61.5 -11
q57 -10 101.5 -18t74.5 -20.5t46 -32t16 -52.5q0 -44 -7.5 -82t-19.5 -68t-26.5 -51.5t-27.5 -33.5q-59 -51 -128.5 -93.5t-143.5 -72.5t-150.5 -47t-148.5 -17q-105 0 -179.5 31.5t-122.5 86t-70.5 126.5t-22.5 153q0 40 6 90.5t20.5 107.5t38 116.5t58.5 117.5
q20 34 37 34q9 0 9 -14q0 -8 -3.5 -19.5t-7.5 -24.5q-15 -49 -25.5 -87t-16.5 -71t-9 -64t-3 -66q0 -15 3.5 -42t14.5 -59t32.5 -65.5t57.5 -60.5t89 -44t128 -17q52 0 110 9t116.5 26t115.5 40.5t108 53.5v11q-121 16 -194 30.5t-112.5 32t-52 39t-12.5 51.5
q0 58 21.5 118.5t57.5 116.5t83.5 105.5t99.5 86.5t105.5 58.5t101.5 21.5q30 0 51 -7.5t37.5 -20.5t29.5 -30t25 -36q14 -21 30 -41.5t39 -37t56 -26.5t80 -10zM1631 582q49 -3 99 -4.5t96.5 -2t88 -1t74.5 -0.5q28 0 64.5 0.5t74.5 2t75.5 3.5t66.5 5.5t47 7.5t18 10
q0 10 -7 27t-20.5 37t-33 41.5t-44.5 41.5q-18 14 -36 26.5t-39.5 22t-47 15t-57.5 5.5q-27 0 -61.5 -7.5t-83 -31.5t-115.5 -70t-159 -124v-4zM436 -618l-205 124q10 19 21.5 40t23 41.5t23 39.5t22.5 34q50 -26 98.5 -56t96.5 -62l72 123q60 -32 111.5 -63t89.5 -57
q-23 -40 -45 -78t-47 -74q-23 13 -48 28.5t-49.5 30.5t-47 29.5t-40.5 26.5q-19 -33 -38 -65.5t-38 -61.5z" />
    <glyph glyph-name="uniFD22" unicode="&#xfebc;&#xfef2;" horiz-adv-x="2477" arabic-form="final" 
d="M1410 590q20 0 36.5 5.5t35 19t42.5 36t60 55.5q90 84 163.5 146.5t137.5 104t121.5 62.5t116.5 21q39 0 74 -10t65.5 -28t57.5 -42.5t50 -52.5q62 -77 84.5 -139.5t22.5 -118.5q0 -54 -10.5 -103.5t-24.5 -83.5t-37 -54.5t-52.5 -32t-66 -16.5t-77.5 -9
q-50 -5 -107.5 -7.5t-116.5 -3.5t-116.5 -1.5t-105.5 -0.5q-81 0 -175.5 4.5t-179.5 9.5q-78 5 -129.5 31.5t-89.5 61.5q-22 20 -39 40.5t-35.5 36.5t-41.5 26t-56 10q-48 0 -98.5 -18t-92 -42t-67.5 -48t-26 -37q0 -11 13 -18.5t35 -13.5t51.5 -11t61.5 -11
q57 -10 101.5 -18t74.5 -20.5t46 -32t16 -52.5q0 -44 -7.5 -82t-19.5 -68t-26.5 -51.5t-27.5 -33.5q-59 -51 -128.5 -93.5t-143.5 -72.5t-150.5 -47t-148.5 -17q-105 0 -179.5 31.5t-122.5 86t-70.5 126.5t-22.5 153q0 40 6 90.5t20.5 107.5t38 116.5t58.5 117.5
q20 34 37 34q9 0 9 -14q0 -8 -3.5 -19.5t-7.5 -24.5q-15 -49 -25.5 -87t-16.5 -71t-9 -64t-3 -66q0 -15 3.5 -42t14.5 -59t32.5 -65.5t57.5 -60.5t89 -44t128 -17q52 0 110 9t116.5 26t115.5 40.5t108 53.5v11q-121 16 -194 30.5t-112.5 32t-52 39t-12.5 51.5
q0 58 21.5 118.5t57.5 116.5t83.5 105.5t99.5 86.5t105.5 58.5t101.5 21.5q30 0 51 -7.5t37.5 -20.5t29.5 -30t25 -36q14 -21 30 -41.5t39 -37t56 -26.5t80 -10zM1631 582q49 -3 99 -4.5t96.5 -2t88 -1t74.5 -0.5q28 0 64.5 0.5t74.5 2t75.5 3.5t66.5 5.5t47 7.5t18 10
q0 10 -7 27t-20.5 37t-33 41.5t-44.5 41.5q-18 14 -36 26.5t-39.5 22t-47 15t-57.5 5.5q-27 0 -61.5 -7.5t-83 -31.5t-115.5 -70t-159 -124v-4zM436 -618l-205 124q10 19 21.5 40t23 41.5t23 39.5t22.5 34q50 -26 98.5 -56t96.5 -62l72 123q60 -32 111.5 -63t89.5 -57
q-23 -40 -45 -78t-47 -74q-23 13 -48 28.5t-49.5 30.5t-47 29.5t-40.5 26.5q-19 -33 -38 -65.5t-38 -61.5z" />
    <glyph glyph-name="uniFD10" unicode="&#xfebf;&#xfeae;" horiz-adv-x="2540" arabic-form="isolated" 
d="M592 768q140 29 272 55t260 48q11 -90 38.5 -145.5t65 -85.5t81 -40t85.5 -10q20 0 36 5.5t34.5 19t42.5 36t60 55.5q90 84 163.5 146.5t137.5 104t121.5 62.5t116.5 21q39 0 74 -10t65.5 -28t57.5 -42.5t50 -52.5q62 -77 84.5 -139.5t22.5 -118.5q0 -54 -10.5 -103.5
t-24.5 -83.5t-37 -54.5t-52.5 -32t-66 -16.5t-77.5 -9q-50 -5 -107.5 -7.5t-116.5 -3.5t-116.5 -1.5t-105.5 -0.5q-81 0 -175.5 3t-179.5 10q-57 4 -105.5 19t-87 45.5t-67.5 81t-47 126.5q-33 -5 -70.5 -11.5t-74 -14t-68.5 -15t-55 -14.5q0 -100 -17 -195.5t-47.5 -181
t-72 -157.5t-90.5 -124t-103.5 -81.5t-109.5 -29.5q-46 0 -91.5 20.5t-87.5 51.5t-78 68.5t-62.5 71t-41.5 59t-15 33.5q0 2 2 7.5t10 5.5q6 0 17 -6q52 -29 108.5 -53.5t112.5 -24.5q61 0 118 23.5t107 61t91 83.5t70.5 91t45.5 83.5t16 61.5q0 14 -21.5 28.5t-50.5 34.5
l-28 18t-25 18.5t-18 20.5t-7 24q0 8 4 29.5t10 49t14 57t16 53.5zM1614 582q49 -3 99 -4.5t96.5 -2t88 -1t74.5 -0.5q28 0 64.5 0.5t74.5 2t75.5 3.5t66.5 5.5t47 7.5t18 10q0 10 -7 27t-20.5 37t-33 41.5t-44.5 41.5q-18 14 -36 26.5t-39.5 22t-47 15t-57.5 5.5
q-27 0 -61.5 -7.5t-83 -31.5t-115.5 -70t-159 -124v-4zM2046 1209l-215 131q11 21 25 45t29 47.5t28.5 44t23.5 34.5q22 -13 50.5 -30t57.5 -36t57 -37t50 -33q-9 -17 -22 -39t-27.5 -45t-29.5 -44.5t-27 -37.5z" />
    <glyph glyph-name="uniFD2C" unicode="&#xfec0;&#xfeae;" horiz-adv-x="2460" arabic-form="final" 
d="M592 768q140 29 272 55t260 48q11 -90 38.5 -145.5t65 -85.5t81 -40t85.5 -10q20 0 36 5.5t34.5 19t42.5 36t60 55.5q90 84 163.5 146.5t137.5 104t121.5 62.5t116.5 21q39 0 74 -10t65.5 -28t57.5 -42.5t50 -52.5q62 -77 84.5 -139.5t22.5 -118.5q0 -54 -10.5 -103.5
t-24.5 -83.5t-37 -54.5t-52.5 -32t-66 -16.5t-77.5 -9q-50 -5 -107.5 -7.5t-116.5 -3.5t-116.5 -1.5t-105.5 -0.5q-81 0 -175.5 3t-179.5 10q-57 4 -105.5 19t-87 45.5t-67.5 81t-47 126.5q-33 -5 -70.5 -11.5t-74 -14t-68.5 -15t-55 -14.5q0 -100 -17 -195.5t-47.5 -181
t-72 -157.5t-90.5 -124t-103.5 -81.5t-109.5 -29.5q-46 0 -91.5 20.5t-87.5 51.5t-78 68.5t-62.5 71t-41.5 59t-15 33.5q0 2 2 7.5t10 5.5q6 0 17 -6q52 -29 108.5 -53.5t112.5 -24.5q61 0 118 23.5t107 61t91 83.5t70.5 91t45.5 83.5t16 61.5q0 14 -21.5 28.5t-50.5 34.5
l-28 18t-25 18.5t-18 20.5t-7 24q0 8 4 29.5t10 49t14 57t16 53.5zM1614 582q49 -3 99 -4.5t96.5 -2t88 -1t74.5 -0.5q28 0 64.5 0.5t74.5 2t75.5 3.5t66.5 5.5t47 7.5t18 10q0 10 -7 27t-20.5 37t-33 41.5t-44.5 41.5q-18 14 -36 26.5t-39.5 22t-47 15t-57.5 5.5
q-27 0 -61.5 -7.5t-83 -31.5t-115.5 -70t-159 -124v-4zM2046 1209l-215 131q11 21 25 45t29 47.5t28.5 44t23.5 34.5q22 -13 50.5 -30t57.5 -36t57 -37t50 -33q-9 -17 -22 -39t-27.5 -45t-29.5 -44.5t-27 -37.5z" />
    <glyph glyph-name="uniFD07" unicode="&#xfebf;&#xfef0;" horiz-adv-x="2557" arabic-form="isolated" 
d="M1410 590q20 0 36.5 5.5t35 19t42.5 36t60 55.5q90 84 163.5 146.5t137.5 104t121.5 62.5t116.5 21q39 0 74 -10t65.5 -28t57.5 -42.5t50 -52.5q62 -77 84.5 -139.5t22.5 -118.5q0 -54 -10.5 -103.5t-24.5 -83.5t-37 -54.5t-52.5 -32t-66 -16.5t-77.5 -9
q-50 -5 -107.5 -7.5t-116.5 -3.5t-116.5 -1.5t-105.5 -0.5q-81 0 -175.5 4.5t-179.5 9.5q-78 5 -129.5 31.5t-89.5 61.5q-22 20 -39 40.5t-35.5 36.5t-41.5 26t-56 10q-48 0 -98.5 -18t-92 -42t-67.5 -48t-26 -37q0 -11 13 -18.5t35 -13.5t51.5 -11t61.5 -11
q57 -10 101.5 -18t74.5 -20.5t46 -32t16 -52.5q0 -44 -7.5 -82t-19.5 -68t-26.5 -51.5t-27.5 -33.5q-59 -51 -128.5 -93.5t-143.5 -72.5t-150.5 -47t-148.5 -17q-105 0 -179.5 31.5t-122.5 86t-70.5 126.5t-22.5 153q0 40 6 90.5t20.5 107.5t38 116.5t58.5 117.5
q20 34 37 34q9 0 9 -14q0 -8 -3.5 -19.5t-7.5 -24.5q-15 -49 -25.5 -87t-16.5 -71t-9 -64t-3 -66q0 -15 3.5 -42t14.5 -59t32.5 -65.5t57.5 -60.5t89 -44t128 -17q52 0 110 9t116.5 26t115.5 40.5t108 53.5v11q-121 16 -194 30.5t-112.5 32t-52 39t-12.5 51.5
q0 58 21.5 118.5t57.5 116.5t83.5 105.5t99.5 86.5t105.5 58.5t101.5 21.5q30 0 51 -7.5t37.5 -20.5t29.5 -30t25 -36q14 -21 30 -41.5t39 -37t56 -26.5t80 -10zM1631 582q49 -3 99 -4.5t96.5 -2t88 -1t74.5 -0.5q28 0 64.5 0.5t74.5 2t75.5 3.5t66.5 5.5t47 7.5t18 10
q0 10 -7 27t-20.5 37t-33 41.5t-44.5 41.5q-18 14 -36 26.5t-39.5 22t-47 15t-57.5 5.5q-27 0 -61.5 -7.5t-83 -31.5t-115.5 -70t-159 -124v-4zM2063 1209l-215 131q11 21 25 45t29 47.5t28.5 44t23.5 34.5q22 -13 50.5 -30t57.5 -36t57 -37t50 -33q-9 -17 -22 -39
t-27.5 -45t-29.5 -44.5t-27 -37.5z" />
    <glyph glyph-name="uniFD23" unicode="&#xfec0;&#xfef0;" horiz-adv-x="2477" arabic-form="final" 
d="M1410 590q20 0 36.5 5.5t35 19t42.5 36t60 55.5q90 84 163.5 146.5t137.5 104t121.5 62.5t116.5 21q39 0 74 -10t65.5 -28t57.5 -42.5t50 -52.5q62 -77 84.5 -139.5t22.5 -118.5q0 -54 -10.5 -103.5t-24.5 -83.5t-37 -54.5t-52.5 -32t-66 -16.5t-77.5 -9
q-50 -5 -107.5 -7.5t-116.5 -3.5t-116.5 -1.5t-105.5 -0.5q-81 0 -175.5 4.5t-179.5 9.5q-78 5 -129.5 31.5t-89.5 61.5q-22 20 -39 40.5t-35.5 36.5t-41.5 26t-56 10q-48 0 -98.5 -18t-92 -42t-67.5 -48t-26 -37q0 -11 13 -18.5t35 -13.5t51.5 -11t61.5 -11
q57 -10 101.5 -18t74.5 -20.5t46 -32t16 -52.5q0 -44 -7.5 -82t-19.5 -68t-26.5 -51.5t-27.5 -33.5q-59 -51 -128.5 -93.5t-143.5 -72.5t-150.5 -47t-148.5 -17q-105 0 -179.5 31.5t-122.5 86t-70.5 126.5t-22.5 153q0 40 6 90.5t20.5 107.5t38 116.5t58.5 117.5
q20 34 37 34q9 0 9 -14q0 -8 -3.5 -19.5t-7.5 -24.5q-15 -49 -25.5 -87t-16.5 -71t-9 -64t-3 -66q0 -15 3.5 -42t14.5 -59t32.5 -65.5t57.5 -60.5t89 -44t128 -17q52 0 110 9t116.5 26t115.5 40.5t108 53.5v11q-121 16 -194 30.5t-112.5 32t-52 39t-12.5 51.5
q0 58 21.5 118.5t57.5 116.5t83.5 105.5t99.5 86.5t105.5 58.5t101.5 21.5q30 0 51 -7.5t37.5 -20.5t29.5 -30t25 -36q14 -21 30 -41.5t39 -37t56 -26.5t80 -10zM1631 582q49 -3 99 -4.5t96.5 -2t88 -1t74.5 -0.5q28 0 64.5 0.5t74.5 2t75.5 3.5t66.5 5.5t47 7.5t18 10
q0 10 -7 27t-20.5 37t-33 41.5t-44.5 41.5q-18 14 -36 26.5t-39.5 22t-47 15t-57.5 5.5q-27 0 -61.5 -7.5t-83 -31.5t-115.5 -70t-159 -124v-4zM2063 1209l-215 131q11 21 25 45t29 47.5t28.5 44t23.5 34.5q22 -13 50.5 -30t57.5 -36t57 -37t50 -33q-9 -17 -22 -39
t-27.5 -45t-29.5 -44.5t-27 -37.5z" />
    <glyph glyph-name="uniFD08" unicode="&#xfebf;&#xfef2;" horiz-adv-x="2557" arabic-form="isolated" 
d="M1410 590q20 0 36.5 5.5t35 19t42.5 36t60 55.5q90 84 163.5 146.5t137.5 104t121.5 62.5t116.5 21q39 0 74 -10t65.5 -28t57.5 -42.5t50 -52.5q62 -77 84.5 -139.5t22.5 -118.5q0 -54 -10.5 -103.5t-24.5 -83.5t-37 -54.5t-52.5 -32t-66 -16.5t-77.5 -9
q-50 -5 -107.5 -7.5t-116.5 -3.5t-116.5 -1.5t-105.5 -0.5q-81 0 -175.5 4.5t-179.5 9.5q-78 5 -129.5 31.5t-89.5 61.5q-22 20 -39 40.5t-35.5 36.5t-41.5 26t-56 10q-48 0 -98.5 -18t-92 -42t-67.5 -48t-26 -37q0 -11 13 -18.5t35 -13.5t51.5 -11t61.5 -11
q57 -10 101.5 -18t74.5 -20.5t46 -32t16 -52.5q0 -44 -7.5 -82t-19.5 -68t-26.5 -51.5t-27.5 -33.5q-59 -51 -128.5 -93.5t-143.5 -72.5t-150.5 -47t-148.5 -17q-105 0 -179.5 31.5t-122.5 86t-70.5 126.5t-22.5 153q0 40 6 90.5t20.5 107.5t38 116.5t58.5 117.5
q20 34 37 34q9 0 9 -14q0 -8 -3.5 -19.5t-7.5 -24.5q-15 -49 -25.5 -87t-16.5 -71t-9 -64t-3 -66q0 -15 3.5 -42t14.5 -59t32.5 -65.5t57.5 -60.5t89 -44t128 -17q52 0 110 9t116.5 26t115.5 40.5t108 53.5v11q-121 16 -194 30.5t-112.5 32t-52 39t-12.5 51.5
q0 58 21.5 118.5t57.5 116.5t83.5 105.5t99.5 86.5t105.5 58.5t101.5 21.5q30 0 51 -7.5t37.5 -20.5t29.5 -30t25 -36q14 -21 30 -41.5t39 -37t56 -26.5t80 -10zM1631 582q49 -3 99 -4.5t96.5 -2t88 -1t74.5 -0.5q28 0 64.5 0.5t74.5 2t75.5 3.5t66.5 5.5t47 7.5t18 10
q0 10 -7 27t-20.5 37t-33 41.5t-44.5 41.5q-18 14 -36 26.5t-39.5 22t-47 15t-57.5 5.5q-27 0 -61.5 -7.5t-83 -31.5t-115.5 -70t-159 -124v-4zM2063 1209l-215 131q11 21 25 45t29 47.5t28.5 44t23.5 34.5q22 -13 50.5 -30t57.5 -36t57 -37t50 -33q-9 -17 -22 -39
t-27.5 -45t-29.5 -44.5t-27 -37.5zM436 -618l-205 124q10 19 21.5 40t23 41.5t23 39.5t22.5 34q50 -26 98.5 -56t96.5 -62l72 123q60 -32 111.5 -63t89.5 -57q-23 -40 -45 -78t-47 -74q-23 13 -48 28.5t-49.5 30.5t-47 29.5t-40.5 26.5q-19 -33 -38 -65.5t-38 -61.5z" />
    <glyph glyph-name="uniFD24" unicode="&#xfec0;&#xfef2;" horiz-adv-x="2477" arabic-form="final" 
d="M1410 590q20 0 36.5 5.5t35 19t42.5 36t60 55.5q90 84 163.5 146.5t137.5 104t121.5 62.5t116.5 21q39 0 74 -10t65.5 -28t57.5 -42.5t50 -52.5q62 -77 84.5 -139.5t22.5 -118.5q0 -54 -10.5 -103.5t-24.5 -83.5t-37 -54.5t-52.5 -32t-66 -16.5t-77.5 -9
q-50 -5 -107.5 -7.5t-116.5 -3.5t-116.5 -1.5t-105.5 -0.5q-81 0 -175.5 4.5t-179.5 9.5q-78 5 -129.5 31.5t-89.5 61.5q-22 20 -39 40.5t-35.5 36.5t-41.5 26t-56 10q-48 0 -98.5 -18t-92 -42t-67.5 -48t-26 -37q0 -11 13 -18.5t35 -13.5t51.5 -11t61.5 -11
q57 -10 101.5 -18t74.5 -20.5t46 -32t16 -52.5q0 -44 -7.5 -82t-19.5 -68t-26.5 -51.5t-27.5 -33.5q-59 -51 -128.5 -93.5t-143.5 -72.5t-150.5 -47t-148.5 -17q-105 0 -179.5 31.5t-122.5 86t-70.5 126.5t-22.5 153q0 40 6 90.5t20.5 107.5t38 116.5t58.5 117.5
q20 34 37 34q9 0 9 -14q0 -8 -3.5 -19.5t-7.5 -24.5q-15 -49 -25.5 -87t-16.5 -71t-9 -64t-3 -66q0 -15 3.5 -42t14.5 -59t32.5 -65.5t57.5 -60.5t89 -44t128 -17q52 0 110 9t116.5 26t115.5 40.5t108 53.5v11q-121 16 -194 30.5t-112.5 32t-52 39t-12.5 51.5
q0 58 21.5 118.5t57.5 116.5t83.5 105.5t99.5 86.5t105.5 58.5t101.5 21.5q30 0 51 -7.5t37.5 -20.5t29.5 -30t25 -36q14 -21 30 -41.5t39 -37t56 -26.5t80 -10zM1631 582q49 -3 99 -4.5t96.5 -2t88 -1t74.5 -0.5q28 0 64.5 0.5t74.5 2t75.5 3.5t66.5 5.5t47 7.5t18 10
q0 10 -7 27t-20.5 37t-33 41.5t-44.5 41.5q-18 14 -36 26.5t-39.5 22t-47 15t-57.5 5.5q-27 0 -61.5 -7.5t-83 -31.5t-115.5 -70t-159 -124v-4zM2063 1209l-215 131q11 21 25 45t29 47.5t28.5 44t23.5 34.5q22 -13 50.5 -30t57.5 -36t57 -37t50 -33q-9 -17 -22 -39
t-27.5 -45t-29.5 -44.5t-27 -37.5zM436 -618l-205 124q10 19 21.5 40t23 41.5t23 39.5t22.5 34q50 -26 98.5 -56t96.5 -62l72 123q60 -32 111.5 -63t89.5 -57q-23 -40 -45 -78t-47 -74q-23 13 -48 28.5t-49.5 30.5t-47 29.5t-40.5 26.5q-19 -33 -38 -65.5t-38 -61.5z" />
    <glyph glyph-name="uniFC31" unicode="&#xfed3;&#xfef0;" horiz-adv-x="1170" arabic-form="isolated" 
d="M906 676q-53 -10 -95.5 -12.5t-58.5 -2.5q-41 0 -82 10.5t-73.5 35t-52.5 65t-20 100.5q0 56 22 116.5t57 111t80 83t90 32.5q46 0 82 -24.5t62.5 -64t45.5 -90.5t30.5 -104t16.5 -104t5 -91q0 -61 -10.5 -119.5t-34.5 -109.5q38 -10 61.5 -24t36.5 -33t17.5 -42.5
t4.5 -51.5q0 -32 -3.5 -63.5t-9 -59t-12.5 -47.5t-14 -27q-56 -61 -127.5 -111t-147 -85.5t-151 -55t-140.5 -19.5q-96 0 -172.5 27t-130 80.5t-82 132t-28.5 182.5q0 35 7 81.5t21 97t35 100.5t49 92q14 21 21.5 29t15.5 8q9 0 9 -13q0 -10 -4 -21t-9 -25
q-20 -55 -37 -117.5t-17 -137.5q0 -60 19.5 -111.5t58.5 -90t98 -60.5t139 -22q58 0 123 11.5t130 33.5t126.5 52.5t113.5 68.5v9q-32 11 -78.5 19t-98 14t-104 11t-97.5 10q11 55 19.5 88t15.5 51t12 24t9 7q127 30 194 55.5t67 66.5q0 6 -1 16t-3 18zM880 855
q-11 46 -28 79.5t-37 55.5t-41 32.5t-40 10.5q-26 0 -47.5 -9.5t-37 -23t-24 -29t-8.5 -27.5q0 -17 16.5 -33.5t49.5 -29t82.5 -19.5t114.5 -7zM753 1301l-215 131q11 21 25 45t29 47.5t28.5 44t23.5 34.5q22 -13 50.5 -30t57.5 -36t57 -37t50 -33q-9 -17 -22 -39t-27.5 -45
t-29.5 -44.5t-27 -37.5z" />
    <glyph glyph-name="uniFC32" unicode="&#xfed3;&#xfef2;" horiz-adv-x="1170" arabic-form="isolated" 
d="M906 676q-53 -10 -95.5 -12.5t-58.5 -2.5q-41 0 -82 10.5t-73.5 35t-52.5 65t-20 100.5q0 56 22 116.5t57 111t80 83t90 32.5q46 0 82 -24.5t62.5 -64t45.5 -90.5t30.5 -104t16.5 -104t5 -91q0 -61 -10.5 -119.5t-34.5 -109.5q38 -10 61.5 -24t36.5 -33t17.5 -42.5
t4.5 -51.5q0 -32 -3.5 -63.5t-9 -59t-12.5 -47.5t-14 -27q-56 -61 -127.5 -111t-147 -85.5t-151 -55t-140.5 -19.5q-96 0 -172.5 27t-130 80.5t-82 132t-28.5 182.5q0 35 7 81.5t21 97t35 100.5t49 92q14 21 21.5 29t15.5 8q9 0 9 -13q0 -10 -4 -21t-9 -25
q-20 -55 -37 -117.5t-17 -137.5q0 -60 19.5 -111.5t58.5 -90t98 -60.5t139 -22q58 0 123 11.5t130 33.5t126.5 52.5t113.5 68.5v9q-32 11 -78.5 19t-98 14t-104 11t-97.5 10q11 55 19.5 88t15.5 51t12 24t9 7q127 30 194 55.5t67 66.5q0 6 -1 16t-3 18zM880 855
q-11 46 -28 79.5t-37 55.5t-41 32.5t-40 10.5q-26 0 -47.5 -9.5t-37 -23t-24 -29t-8.5 -27.5q0 -17 16.5 -33.5t49.5 -29t82.5 -19.5t114.5 -7zM753 1301l-215 131q11 21 25 45t29 47.5t28.5 44t23.5 34.5q22 -13 50.5 -30t57.5 -36t57 -37t50 -33q-9 -17 -22 -39t-27.5 -45
t-29.5 -44.5t-27 -37.5zM530 -482l-205 124q10 19 21.5 40t23 41.5t23 39.5t22.5 34q50 -26 98.5 -56t96.5 -62l72 123q60 -32 111.5 -63t89.5 -57q-23 -40 -45 -78t-47 -74q-23 13 -48 28.5t-49.5 30.5t-47 29.5t-40.5 26.5q-19 -33 -38 -65.5t-38 -61.5z" />
    <glyph glyph-name="uniFEFB" unicode="&#xfedf;&#xfe8e;" horiz-adv-x="1082" arabic-form="isolated" 
d="M963 1519q2 -38 4 -91.5t3.5 -109t2.5 -105.5t1 -80q0 -95 -6 -170.5t-20 -138.5t-38.5 -116t-60.5 -104q16 -24 31 -54.5t26.5 -61t18 -59t6.5 -48.5q0 -11 -3 -35.5t-10 -54t-19.5 -58t-31.5 -47.5q-25 -12 -61 -21t-77.5 -14t-84.5 -7.5t-81 -2.5q-61 0 -115.5 5.5
t-86.5 12.5q-4 10 -5.5 27.5t-1.5 40.5q0 26 2 55t4.5 53.5t5.5 40.5t6 16q34 7 72.5 25.5t78.5 45.5t80.5 61.5t79.5 75.5l3 3q-101 127 -187.5 211t-153.5 140l-34 -50q-33 24 -72.5 51t-73 57.5t-56.5 65t-23 73.5q0 26 12.5 59t30.5 65t37 59t32 42q65 -53 140.5 -129.5
t153 -166.5t151.5 -187t135 -189q12 29 19.5 74t7.5 104q0 61 -3.5 127.5t-8.5 129t-9.5 117t-7.5 91.5q50 55 97.5 100.5t89.5 71.5zM566 362q25 1 64.5 2t77.5 4t68.5 9t38.5 17q0 7 -13.5 42t-51.5 87q-17 -22 -43 -45.5t-53 -45t-51.5 -39t-38.5 -26.5z" />
    <glyph glyph-name="uniFEFC" unicode="&#xfee0;&#xfe8e;" horiz-adv-x="1107" arabic-form="final" 
d="M1107 350h-31q-65 0 -105.5 37.5t-63.5 103.5q-56 -133 -136 -196t-197 -63q-41 0 -87.5 11.5t-95.5 29t-99 38.5t-96 39q-2 6 -1.5 11.5t5.5 10.5q79 13 153.5 27.5t139 31t116.5 36.5t85 44q6 5 8 10t2 10q0 18 -15.5 50.5t-42 72.5t-61 84t-71.5 86t-74.5 79t-69.5 62
l-40 -45q-82 53 -126.5 91.5t-65.5 66t-24.5 47t-3.5 34.5q0 36 17 73t39 68.5t43.5 55.5t30.5 34q52 -50 110 -109t116 -124t113 -136t100 -146t78.5 -152.5t47.5 -156.5h2q35 32 51 61.5t16 71.5q0 31 -4.5 79.5t-11.5 106.5t-15.5 121.5t-16 125t-13.5 117t-7 97.5
q50 54 97.5 96.5t82.5 66.5q3 -72 6.5 -151l7 -158t7 -154t6 -139t5 -113.5t3.5 -76.5q2 -43 7.5 -68t16 -38t26 -17t36.5 -4v-240z" />
    <glyph glyph-name="uniFEF5" unicode="&#xfedf;&#xfe82;" horiz-adv-x="1082" arabic-form="isolated" 
d="M963 1519q2 -38 4 -91.5t3.5 -109t2.5 -105.5t1 -80q0 -95 -6 -170.5t-20 -138.5t-38.5 -116t-60.5 -104q16 -24 31 -54.5t26.5 -61t18 -59t6.5 -48.5q0 -11 -3 -35.5t-10 -54t-19.5 -58t-31.5 -47.5q-25 -12 -61 -21t-77.5 -14t-84.5 -7.5t-81 -2.5q-61 0 -115.5 5.5
t-86.5 12.5q-4 10 -5.5 27.5t-1.5 40.5q0 26 2 55t4.5 53.5t5.5 40.5t6 16q34 7 72.5 25.5t78.5 45.5t80.5 61.5t79.5 75.5l3 3q-101 127 -187.5 211t-153.5 140l-34 -50q-33 24 -72.5 51t-73 57.5t-56.5 65t-23 73.5q0 26 12.5 59t30.5 65t37 59t32 42q65 -53 140.5 -129.5
t153 -166.5t151.5 -187t135 -189q12 29 19.5 74t7.5 104q0 61 -3.5 127.5t-8.5 129t-9.5 117t-7.5 91.5q50 55 97.5 100.5t89.5 71.5zM566 362q25 1 64.5 2t77.5 4t68.5 9t38.5 17q0 7 -13.5 42t-51.5 87q-17 -22 -43 -45.5t-53 -45t-51.5 -39t-38.5 -26.5zM576 1729
q-13 -47 -34.5 -85t-53.5 -65t-76.5 -42t-103.5 -15q-14 0 -33 1.5t-33 1.5q-51 0 -88 -20.5t-54 -68.5l-2 -1q-18 9 -27.5 31t-9.5 44q0 34 12.5 62t33.5 47.5t48.5 30.5t57.5 11q31 0 63.5 -4.5t64.5 -4.5q31 0 62 4.5t58.5 16.5t50 34t37.5 58z" />
    <glyph glyph-name="uniFEF6" unicode="&#xfee0;&#xfe82;" horiz-adv-x="1107" arabic-form="final" 
d="M1107 350h-31q-65 0 -105.5 37.5t-63.5 103.5q-56 -133 -136 -196t-197 -63q-41 0 -87.5 11.5t-95.5 29t-99 38.5t-96 39q-2 6 -1.5 11.5t5.5 10.5q79 13 153.5 27.5t139 31t116.5 36.5t85 44q6 5 8 10t2 10q0 18 -15.5 50.5t-42 72.5t-61 84t-71.5 86t-74.5 79t-69.5 62
l-40 -45q-82 53 -126.5 91.5t-65.5 66t-24.5 47t-3.5 34.5q0 36 17 73t39 68.5t43.5 55.5t30.5 34q52 -50 110 -109t116 -124t113 -136t100 -146t78.5 -152.5t47.5 -156.5h2q35 32 51 61.5t16 71.5q0 31 -4.5 79.5t-11.5 106.5t-15.5 121.5t-16 125t-13.5 117t-7 97.5
q50 54 97.5 96.5t82.5 66.5q3 -72 6.5 -151l7 -158t7 -154t6 -139t5 -113.5t3.5 -76.5q2 -43 7.5 -68t16 -38t26 -17t36.5 -4v-240zM562 1706q-13 -47 -34.5 -85t-53.5 -65t-76.5 -42t-103.5 -15q-14 0 -33 1.5t-33 1.5q-51 0 -88 -20.5t-54 -68.5l-2 -1q-18 9 -27.5 31
t-9.5 44q0 34 12.5 62t33.5 47.5t48.5 30.5t57.5 11q31 0 63.5 -4.5t64.5 -4.5q31 0 62 4.5t58.5 16.5t50 34t37.5 58z" />
    <glyph glyph-name="uniFEF7" unicode="&#xfedf;&#xfe84;" horiz-adv-x="1082" arabic-form="isolated" 
d="M963 1519q2 -38 4 -91.5t3.5 -109t2.5 -105.5t1 -80q0 -95 -6 -170.5t-20 -138.5t-38.5 -116t-60.5 -104q16 -24 31 -54.5t26.5 -61t18 -59t6.5 -48.5q0 -11 -3 -35.5t-10 -54t-19.5 -58t-31.5 -47.5q-25 -12 -61 -21t-77.5 -14t-84.5 -7.5t-81 -2.5q-61 0 -115.5 5.5
t-86.5 12.5q-4 10 -5.5 27.5t-1.5 40.5q0 26 2 55t4.5 53.5t5.5 40.5t6 16q34 7 72.5 25.5t78.5 45.5t80.5 61.5t79.5 75.5l3 3q-101 127 -187.5 211t-153.5 140l-34 -50q-33 24 -72.5 51t-73 57.5t-56.5 65t-23 73.5q0 26 12.5 59t30.5 65t37 59t32 42q65 -53 140.5 -129.5
t153 -166.5t151.5 -187t135 -189q12 29 19.5 74t7.5 104q0 61 -3.5 127.5t-8.5 129t-9.5 117t-7.5 91.5q50 55 97.5 100.5t89.5 71.5zM566 362q25 1 64.5 2t77.5 4t68.5 9t38.5 17q0 7 -13.5 42t-51.5 87q-17 -22 -43 -45.5t-53 -45t-51.5 -39t-38.5 -26.5zM379 1618
q-9 -40 -19.5 -74.5t-17.5 -52.5q-67 -20 -116 -35t-86.5 -31t-66.5 -34.5t-56 -46.5q-1 13 -2 25.5t-1 23.5q0 32 10 58t34 41q-27 20 -42 42.5t-15 53.5t17 63.5t45.5 59.5t66.5 44t80 17q35 0 61.5 -16.5t26.5 -48.5q0 -21 -12 -39t-36 -29q-21 20 -46 32.5t-43 12.5
q-28 0 -44 -13t-16 -26q0 -16 10 -31t25 -26t32 -18t32 -7q10 0 28.5 4.5t42 12.5t51.5 17.5t57 20.5z" />
    <glyph glyph-name="uniFEF8" unicode="&#xfee0;&#xfe84;" horiz-adv-x="1107" arabic-form="final" 
d="M1107 350h-31q-65 0 -105.5 37.5t-63.5 103.5q-56 -133 -136 -196t-197 -63q-41 0 -87.5 11.5t-95.5 29t-99 38.5t-96 39q-2 6 -1.5 11.5t5.5 10.5q79 13 153.5 27.5t139 31t116.5 36.5t85 44q6 5 8 10t2 10q0 18 -15.5 50.5t-42 72.5t-61 84t-71.5 86t-74.5 79t-69.5 62
l-40 -45q-82 53 -126.5 91.5t-65.5 66t-24.5 47t-3.5 34.5q0 36 17 73t39 68.5t43.5 55.5t30.5 34q52 -50 110 -109t116 -124t113 -136t100 -146t78.5 -152.5t47.5 -156.5h2q35 32 51 61.5t16 71.5q0 31 -4.5 79.5t-11.5 106.5t-15.5 121.5t-16 125t-13.5 117t-7 97.5
q50 54 97.5 96.5t82.5 66.5q3 -72 6.5 -151l7 -158t7 -154t6 -139t5 -113.5t3.5 -76.5q2 -43 7.5 -68t16 -38t26 -17t36.5 -4v-240zM409 1618q-9 -40 -19.5 -74.5t-17.5 -52.5q-67 -20 -116 -35t-86.5 -31t-66.5 -34.5t-56 -46.5q-1 13 -2 25.5t-1 23.5q0 32 10 58t34 41
q-27 20 -42 42.5t-15 53.5t17 63.5t45.5 59.5t66.5 44t80 17q35 0 61.5 -16.5t26.5 -48.5q0 -21 -12 -39t-36 -29q-21 20 -46 32.5t-43 12.5q-28 0 -44 -13t-16 -26q0 -16 10 -31t25 -26t32 -18t32 -7q10 0 28.5 4.5t42 12.5t51.5 17.5t57 20.5z" />
    <glyph glyph-name="uniFEF9" unicode="&#xfedf;&#xfe88;" horiz-adv-x="1082" arabic-form="isolated" 
d="M963 1519q2 -38 4 -91.5t3.5 -109t2.5 -105.5t1 -80q0 -95 -6 -170.5t-20 -138.5t-38.5 -116t-60.5 -104q16 -24 31 -54.5t26.5 -61t18 -59t6.5 -48.5q0 -11 -3 -35.5t-10 -54t-19.5 -58t-31.5 -47.5q-25 -12 -61 -21t-77.5 -14t-84.5 -7.5t-81 -2.5q-61 0 -115.5 5.5
t-86.5 12.5q-4 10 -5.5 27.5t-1.5 40.5q0 26 2 55t4.5 53.5t5.5 40.5t6 16q34 7 72.5 25.5t78.5 45.5t80.5 61.5t79.5 75.5l3 3q-101 127 -187.5 211t-153.5 140l-34 -50q-33 24 -72.5 51t-73 57.5t-56.5 65t-23 73.5q0 26 12.5 59t30.5 65t37 59t32 42q65 -53 140.5 -129.5
t153 -166.5t151.5 -187t135 -189q12 29 19.5 74t7.5 104q0 61 -3.5 127.5t-8.5 129t-9.5 117t-7.5 91.5q50 55 97.5 100.5t89.5 71.5zM566 362q25 1 64.5 2t77.5 4t68.5 9t38.5 17q0 7 -13.5 42t-51.5 87q-17 -22 -43 -45.5t-53 -45t-51.5 -39t-38.5 -26.5zM632 -132
q-9 -40 -19.5 -74.5t-17.5 -52.5q-67 -20 -116 -35t-86.5 -31t-66.5 -34.5t-56 -46.5q-1 13 -2 25.5t-1 23.5q0 32 10 58t34 41q-27 20 -42 42.5t-15 53.5t17 63.5t45.5 59.5t66.5 44t80 17q35 0 61.5 -16.5t26.5 -48.5q0 -21 -12 -39t-36 -29q-21 20 -46 32.5t-43 12.5
q-28 0 -44 -13t-16 -26q0 -16 10 -31t25 -26t32 -18t32 -7q10 0 28.5 4.5t42 12.5t51.5 17.5t57 20.5z" />
    <glyph glyph-name="uniFEFA" unicode="&#xfee0;&#xfe88;" horiz-adv-x="1107" arabic-form="final" 
d="M1107 350h-31q-65 0 -105.5 37.5t-63.5 103.5q-56 -133 -136 -196t-197 -63q-41 0 -87.5 11.5t-95.5 29t-99 38.5t-96 39q-2 6 -1.5 11.5t5.5 10.5q79 13 153.5 27.5t139 31t116.5 36.5t85 44q6 5 8 10t2 10q0 18 -15.5 50.5t-42 72.5t-61 84t-71.5 86t-74.5 79t-69.5 62
l-40 -45q-82 53 -126.5 91.5t-65.5 66t-24.5 47t-3.5 34.5q0 36 17 73t39 68.5t43.5 55.5t30.5 34q52 -50 110 -109t116 -124t113 -136t100 -146t78.5 -152.5t47.5 -156.5h2q35 32 51 61.5t16 71.5q0 31 -4.5 79.5t-11.5 106.5t-15.5 121.5t-16 125t-13.5 117t-7 97.5
q50 54 97.5 96.5t82.5 66.5q3 -72 6.5 -151l7 -158t7 -154t6 -139t5 -113.5t3.5 -76.5q2 -43 7.5 -68t16 -38t26 -17t36.5 -4v-240zM678 -65q-9 -40 -19.5 -74.5t-17.5 -52.5q-67 -20 -116 -35t-86.5 -31t-66.5 -34.5t-56 -46.5q-1 13 -2 25.5t-1 23.5q0 32 10 58t34 41
q-27 20 -42 42.5t-15 53.5t17 63.5t45.5 59.5t66.5 44t80 17q35 0 61.5 -16.5t26.5 -48.5q0 -21 -12 -39t-36 -29q-21 20 -46 32.5t-43 12.5q-28 0 -44 -13t-16 -26q0 -16 10 -31t25 -26t32 -18t32 -7q10 0 28.5 4.5t42 12.5t51.5 17.5t57 20.5z" />
    <glyph glyph-name="uniFCCC" unicode="&#xfedf;&#xfee4;" horiz-adv-x="834" arabic-form="initial" 
d="M712 236q-21 33 -52 63.5t-64.5 54.5t-68 38.5t-62.5 14.5q-11 0 -25.5 -2.5t-29.5 -6.5l-30 -8t-27 -7q-69 -17 -158 -25t-195 -8q-44 0 -63.5 5t-27.5 16q-15 21 -15 93q0 82 14 104q7 11 27 16.5t65 5.5h59q54 0 103 1t87 6t60.5 15t22.5 28q0 12 -4 58.5t-10.5 111.5
t-14.5 142t-15 151.5t-12.5 139t-7.5 105.5l136 151l2 -1q3 -65 23.5 -109t49 -71.5t58.5 -40t53 -13.5q-5 -38 -15 -67t-22.5 -53t-27 -43t-28.5 -35q-16 -19 -24.5 -33t-7.5 -31q3 -69 5.5 -118.5t4.5 -83t5 -52.5t6 -26q7 -15 21 -28.5t38 -29.5q130 -87 200 -140t70 -84
q0 -24 -8 -50.5t-22.5 -53t-33 -52t-39.5 -48.5z" />
    <glyph glyph-name="uniFC43" unicode="&#xfedf;&#xfef0;" horiz-adv-x="1096" arabic-form="isolated" 
d="M776 1498q1 -42 14 -82t36 -72t56.5 -53.5t75.5 -25.5q-6 -39 -16 -69.5t-23.5 -56t-29.5 -47t-34 -41.5q1 -14 3 -35.5t4 -44t3.5 -42.5t1.5 -30q0 -41 -17 -103.5t-55 -153.5q66 -20 112 -36.5t68 -31.5q22 -14 30.5 -32.5t8.5 -41.5q0 -139 -77 -246
q-44 -60 -105.5 -112.5t-133.5 -91.5t-150.5 -61.5t-155.5 -22.5q-74 0 -133 26.5t-100 73t-63 109t-22 134.5q0 52 8 105t22.5 104.5t35 100t45.5 92.5q26 47 37 47q9 0 9 -11q0 -6 -2 -15.5t-11 -34.5q-26 -68 -43.5 -141.5t-17.5 -135.5q0 -53 19.5 -95.5t53 -72.5
t78.5 -46t97 -16q62 0 123 13.5t117.5 37.5t107 57t91.5 72v12q-27 10 -63.5 21t-80.5 22.5t-94 23.5t-104 23q16 73 57 202q47 5 91.5 14.5t78.5 24.5q-1 55 -11.5 125.5t-25 151.5t-30 171t-27.5 186l139 152z" />
    <glyph glyph-name="uniFC86" unicode="&#xfee0;&#xfef0;" horiz-adv-x="1303" arabic-form="final" 
d="M567 362l9.5 38t12.5 46.5t14.5 48.5t15.5 45q49 12 90 21t75.5 17t64.5 16t57 18q35 13 58 27.5t36.5 30.5t19 32t4.5 32q-4 63 -10 140.5t-12 158t-12 159.5t-9 145q17 21 39.5 43t45 42t43 36.5t33.5 26.5l6 -3l35 -732q3 -54 13.5 -86.5t27.5 -48.5q17 -15 36 -20
t43 -5v-240h-27q-53 0 -92.5 20.5t-66.5 55.5t-41 81.5t-16 97.5l-8 1q-23 -62 -50.5 -96.5t-68.5 -53.5v-4q15 -11 25.5 -20.5t16.5 -19t8.5 -20.5t2.5 -26q0 -19 -3.5 -47t-9.5 -56.5t-14.5 -53.5t-19.5 -38q-37 -45 -97.5 -94.5t-136.5 -91t-163 -68.5t-177 -27
q-49 0 -102.5 17t-98.5 57.5t-74 108t-29 169.5q0 41 8.5 92.5t24.5 104.5t37 103.5t47 89.5q13 20 21 30.5t15 10.5q5 0 8.5 -3t3.5 -8q0 -20 -18 -71q-11 -33 -21.5 -68t-18.5 -70.5t-13 -69t-5 -62.5q0 -49 19 -87t52.5 -64.5t79.5 -40t100 -13.5q66 0 129 13t120.5 35.5
t108 53t91.5 65.5v10q-15 11 -43.5 21.5t-66.5 19.5t-82.5 16t-90.5 12z" />
    <glyph glyph-name="uni06440671" unicode="&#xfedf;&#xfb51;" horiz-adv-x="1082" 
d="M963 1519q2 -38 4 -91.5t3.5 -109t2.5 -105.5t1 -80q0 -95 -6 -170.5t-20 -138.5t-38.5 -116t-60.5 -104q16 -24 31 -54.5t26.5 -61t18 -59t6.5 -48.5q0 -11 -3 -35.5t-10 -54t-19.5 -58t-31.5 -47.5q-25 -12 -61 -21t-77.5 -14t-84.5 -7.5t-81 -2.5q-61 0 -115.5 5.5
t-86.5 12.5q-4 10 -5.5 27.5t-1.5 40.5q0 26 2 55t4.5 53.5t5.5 40.5t6 16q34 7 72.5 25.5t78.5 45.5t80.5 61.5t79.5 75.5l3 3q-101 127 -187.5 211t-153.5 140l-34 -50q-33 24 -72.5 51t-73 57.5t-56.5 65t-23 73.5q0 26 12.5 59t30.5 65t37 59t32 42q65 -53 140.5 -129.5
t153 -166.5t151.5 -187t135 -189q12 29 19.5 74t7.5 104q0 61 -3.5 127.5t-8.5 129t-9.5 117t-7.5 91.5q50 55 97.5 100.5t89.5 71.5zM566 362q25 1 64.5 2t77.5 4t68.5 9t38.5 17q0 7 -13.5 42t-51.5 87q-17 -22 -43 -45.5t-53 -45t-51.5 -39t-38.5 -26.5zM234 1566
q11 -5 26.5 -8.5t32 -6.5t32.5 -4.5t30 -1.5q17 0 33 1.5t29 4.5t20.5 7.5t7.5 10.5t-4.5 18t-14.5 24t-26 21t-40 9q-34 0 -63.5 -20.5t-62.5 -54.5zM39 1427q3 48 14.5 80t27 51.5t32.5 28t32 8.5q10 0 18.5 -2t16.5 -5q40 49 69.5 78.5t53.5 46t43.5 22t39.5 5.5
q19 0 39.5 -9t37.5 -28t28 -49t11 -72q0 -37 -7.5 -64.5t-26 -46t-49.5 -27.5t-78 -9q-40 0 -72.5 6t-58 12.5t-44.5 12.5t-32 6q-18 0 -40.5 -10.5t-51.5 -35.5z" />
    <glyph glyph-name="uni06440671.fina" unicode="&#xfee0;&#xfb51;" horiz-adv-x="1107" 
d="M1107 350h-31q-65 0 -105.5 37.5t-63.5 103.5q-56 -133 -136 -196t-197 -63q-41 0 -87.5 11.5t-95.5 29t-99 38.5t-96 39q-2 6 -1.5 11.5t5.5 10.5q79 13 153.5 27.5t139 31t116.5 36.5t85 44q6 5 8 10t2 10q0 18 -15.5 50.5t-42 72.5t-61 84t-71.5 86t-74.5 79t-69.5 62
l-40 -45q-82 53 -126.5 91.5t-65.5 66t-24.5 47t-3.5 34.5q0 36 17 73t39 68.5t43.5 55.5t30.5 34q52 -50 110 -109t116 -124t113 -136t100 -146t78.5 -152.5t47.5 -156.5h2q35 32 51 61.5t16 71.5q0 31 -4.5 79.5t-11.5 106.5t-15.5 121.5t-16 125t-13.5 117t-7 97.5
q50 54 97.5 96.5t82.5 66.5q3 -72 6.5 -151l7 -158t7 -154t6 -139t5 -113.5t3.5 -76.5q2 -43 7.5 -68t16 -38t26 -17t36.5 -4v-240zM303 1581q11 -5 26.5 -8.5t32 -6.5t32.5 -4.5t30 -1.5q17 0 33 1.5t29 4.5t20.5 7.5t7.5 10.5t-4.5 18t-14.5 24t-26 21t-40 9
q-34 0 -63.5 -20.5t-62.5 -54.5zM108 1442q3 48 14.5 80t27 51.5t32.5 28t32 8.5q10 0 18.5 -2t16.5 -5q40 49 69.5 78.5t53.5 46t43.5 22t39.5 5.5q19 0 39.5 -9t37.5 -28t28 -49t11 -72q0 -37 -7.5 -64.5t-26 -46t-49.5 -27.5t-78 -9q-40 0 -72.5 6t-58 12.5t-44.5 12.5
t-32 6q-18 0 -40.5 -10.5t-51.5 -35.5z" />
    <glyph glyph-name="uniFC44" unicode="&#xfedf;&#xfef2;" horiz-adv-x="1096" arabic-form="isolated" 
d="M776 1498q1 -42 14 -82t36 -72t56.5 -53.5t75.5 -25.5q-6 -39 -16 -69.5t-23.5 -56t-29.5 -47t-34 -41.5q1 -14 3 -35.5t4 -44t3.5 -42.5t1.5 -30q0 -41 -17 -103.5t-55 -153.5q66 -20 112 -36.5t68 -31.5q22 -14 30.5 -32.5t8.5 -41.5q0 -139 -77 -246
q-44 -60 -105.5 -112.5t-133.5 -91.5t-150.5 -61.5t-155.5 -22.5q-74 0 -133 26.5t-100 73t-63 109t-22 134.5q0 52 8 105t22.5 104.5t35 100t45.5 92.5q26 47 37 47q9 0 9 -11q0 -6 -2 -15.5t-11 -34.5q-26 -68 -43.5 -141.5t-17.5 -135.5q0 -53 19.5 -95.5t53 -72.5
t78.5 -46t97 -16q62 0 123 13.5t117.5 37.5t107 57t91.5 72v12q-27 10 -63.5 21t-80.5 22.5t-94 23.5t-104 23q16 73 57 202q47 5 91.5 14.5t78.5 24.5q-1 55 -11.5 125.5t-25 151.5t-30 171t-27.5 186l139 152zM448 -395l-205 124q10 19 21.5 40t23 41.5t23 39.5t22.5 34
q50 -26 98.5 -56t96.5 -62l72 123q60 -32 111.5 -63t89.5 -57q-23 -40 -45 -78t-47 -74q-23 13 -48 28.5t-49.5 30.5t-47 29.5t-40.5 26.5q-19 -33 -38 -65.5t-38 -61.5z" />
    <glyph glyph-name="uniFC87" unicode="&#xfee0;&#xfef2;" horiz-adv-x="1303" arabic-form="final" 
d="M567 362l9.5 38t12.5 46.5t14.5 48.5t15.5 45q49 12 90 21t75.5 17t64.5 16t57 18q35 13 58 27.5t36.5 30.5t19 32t4.5 32q-4 63 -10 140.5t-12 158t-12 159.5t-9 145q17 21 39.5 43t45 42t43 36.5t33.5 26.5l6 -3l35 -732q3 -54 13.5 -86.5t27.5 -48.5q17 -15 36 -20
t43 -5v-240h-27q-53 0 -92.5 20.5t-66.5 55.5t-41 81.5t-16 97.5l-8 1q-23 -62 -50.5 -96.5t-68.5 -53.5v-4q15 -11 25.5 -20.5t16.5 -19t8.5 -20.5t2.5 -26q0 -19 -3.5 -47t-9.5 -56.5t-14.5 -53.5t-19.5 -38q-37 -45 -97.5 -94.5t-136.5 -91t-163 -68.5t-177 -27
q-49 0 -102.5 17t-98.5 57.5t-74 108t-29 169.5q0 41 8.5 92.5t24.5 104.5t37 103.5t47 89.5q13 20 21 30.5t15 10.5q5 0 8.5 -3t3.5 -8q0 -20 -18 -71q-11 -33 -21.5 -68t-18.5 -70.5t-13 -69t-5 -62.5q0 -49 19 -87t52.5 -64.5t79.5 -40t100 -13.5q66 0 129 13t120.5 35.5
t108 53t91.5 65.5v10q-15 11 -43.5 21.5t-66.5 19.5t-82.5 16t-90.5 12zM389 -487l-205 124q10 19 21.5 40t23 41.5t23 39.5t22.5 34q50 -26 98.5 -56t96.5 -62l72 123q60 -32 111.5 -63t89.5 -57q-23 -40 -45 -78t-47 -74q-23 13 -48 28.5t-49.5 30.5t-47 29.5t-40.5 26.5
q-19 -33 -38 -65.5t-38 -61.5z" />
    <glyph glyph-name="uniFC91" unicode="&#xfef4;&#xfeae;" horiz-adv-x="1292" arabic-form="final" 
d="M803 603q-23 -153 -68 -275.5t-103.5 -208t-125.5 -131.5t-134 -46q-30 0 -71.5 13.5t-86.5 42t-90.5 72.5t-85.5 106q-5 8 -11.5 18.5t-12 21t-9 19t-3.5 13.5q0 7 7 8t9 0q41 -22 73.5 -36.5t60.5 -23t52.5 -12t49.5 -3.5q60 0 115.5 20.5t108 63.5t101 110.5
t94.5 160.5q5 9 9 20.5t4 25.5q0 13 -16 26t-38 29q-15 11 -30 23.5t-27 27.5t-20 32.5t-8 38.5q0 12 5 39t13 58.5t16.5 61.5t16.5 48q21 -27 48.5 -51t61 -42.5t71.5 -29.5t79 -11q40 0 65 3t37 8q14 5 21.5 14t11.5 23q2 6 7.5 24t14.5 43t22 55t31 60l7 -3
q14 -51 23.5 -91t17 -78t15.5 -76.5t20 -86.5q11 -44 26 -71t33 -41.5t39 -19.5t43 -5v-240h-22q-29 0 -57.5 6t-53 22.5t-44.5 45t-32 73.5q-3 10 -18.5 69t-44.5 167h-5q-20 -35 -37.5 -57.5t-40.5 -37t-55 -22.5t-79 -13zM832 -303l-205 124q10 19 21.5 40t23 41.5
t23 39.5t22.5 34q50 -26 98.5 -56t96.5 -62l72 123q60 -32 111.5 -63t89.5 -57q-23 -40 -45 -78t-47 -74q-23 13 -48 28.5t-49.5 30.5t-47 29.5t-40.5 26.5q-19 -33 -38 -65.5t-38 -61.5z" />
    <glyph glyph-name="uni064A0646.fina" unicode="&#xfef4;&#xfee6;" horiz-adv-x="1499" 
d="M1499 350q-44 0 -77.5 7t-58 23t-42 42t-27.5 64q-18 65 -32.5 124.5t-33.5 128.5h-3q-13 -35 -27.5 -62.5t-36.5 -47t-53 -30.5t-77 -12q2 -23 2 -35v-18q0 -41 -6.5 -98t-21.5 -115.5t-40 -112t-61 -87.5q-40 -38 -93.5 -69t-112 -53.5t-117 -35t-109.5 -12.5
q-77 0 -147.5 24t-124 72t-85.5 120t-32 169q0 38 7 87t22 100.5t37.5 102.5t53.5 93q27 37 42 37q10 0 10 -18q0 -7 -3.5 -20t-11.5 -32q-32 -71 -41 -127t-9 -95q0 -50 16.5 -97.5t52.5 -85t93 -60.5t138 -23q87 0 165 22t136.5 52t93 60t34.5 46q0 24 -9 64.5t-28 89.5
t-49 103t-73 105q8 23 21 53.5t28 62t30 62t29 54.5h4q8 -8 17.5 -21t26.5 -38q21 -33 34.5 -54t24.5 -33t24 -16.5t34 -4.5q81 0 121.5 19.5t47.5 51.5q14 67 35.5 111t41.5 79l5 -2q8 -23 21 -82.5t28 -138.5q5 -25 10 -49.5t9 -44.5t7.5 -34.5t5.5 -19.5q16 -48 45 -76.5
t89 -28.5v-240zM611 1022l-215 131q11 21 25 45t29 47.5t28.5 44t23.5 34.5q22 -13 50.5 -30t57.5 -36t57 -37t50 -33q-9 -17 -22 -39t-27.5 -45t-29.5 -44.5t-27 -37.5zM1069 -313l-205 124q10 19 21.5 40t23 41.5t23 39.5t22.5 34q50 -26 98.5 -56t96.5 -62l72 123
q60 -32 111.5 -63t89.5 -57q-23 -40 -45 -78t-47 -74q-23 13 -48 28.5t-49.5 30.5t-47 29.5t-40.5 26.5q-19 -33 -38 -65.5t-38 -61.5z" />
    <glyph glyph-name="uniFE82" unicode="&#x622;" horiz-adv-x="471" arabic-form="final" 
d="M471 590v-240h-123q-135 0 -177 76q-14 27 -28 151q-7 63 -18.5 195.5t-26.5 340.5l-17 236q54 51 100.5 88t83.5 63q8 -197 14 -341.5t9.5 -240.5t6 -147t2.5 -61q1 -34 5 -57t12.5 -37t21.5 -20t33 -6h102zM453 1797q-13 -47 -34.5 -85t-53.5 -65t-76.5 -42t-103.5 -15
q-14 0 -33 1.5t-33 1.5q-51 0 -88 -20.5t-54 -68.5l-2 -1q-18 9 -27.5 31t-9.5 44q0 34 12.5 62t33.5 47.5t48.5 30.5t57.5 11q31 0 63.5 -4.5t64.5 -4.5q31 0 62 4.5t58.5 16.5t50 34t37.5 58z" />
    <glyph glyph-name="uniFE84" unicode="&#x623;" horiz-adv-x="471" arabic-form="final" 
d="M471 590v-240h-123q-135 0 -177 76q-14 27 -28 151q-7 63 -18.5 195.5t-26.5 340.5l-17 236q54 51 100.5 88t83.5 63q8 -197 14 -341.5t9.5 -240.5t6 -147t2.5 -61q1 -34 5 -57t12.5 -37t21.5 -20t33 -6h102zM362 1734q-9 -40 -19.5 -74.5t-17.5 -52.5q-67 -20 -116 -35
t-86.5 -31t-66.5 -34.5t-56 -46.5q-1 13 -2 25.5t-1 23.5q0 32 10 58t34 41q-27 20 -42 42.5t-15 53.5t17 63.5t45.5 59.5t66.5 44t80 17q35 0 61.5 -16.5t26.5 -48.5q0 -21 -12 -39t-36 -29q-21 20 -46 32.5t-43 12.5q-28 0 -44 -13t-16 -26q0 -16 10 -31t25 -26t32 -18
t32 -7q10 0 28.5 4.5t42 12.5t51.5 17.5t57 20.5z" />
    <glyph glyph-name="uniFE86" unicode="&#x624;" horiz-adv-x="897" arabic-form="final" 
d="M758 328q-80 3 -148.5 13t-118.5 37t-78 76t-28 130t23 153.5t59.5 128t82 88t90.5 32.5q37 0 71 -22t62.5 -60t51.5 -87.5t39 -105t24.5 -112.5t8.5 -110q0 -81 -16 -163t-45.5 -158t-71.5 -142.5t-94.5 -116t-113.5 -78t-128 -28.5q-57 0 -117 28t-116 71t-104.5 93
t-82.5 95q-4 5 -6 8.5t-2 8.5q0 9 9 9q7 0 22 -7q33 -16 72 -30.5t77.5 -25t73.5 -17t61 -6.5q69 0 136 21t126 60t106 94t75 123zM770 570q-9 41 -27.5 78.5t-42 65.5t-50.5 44.5t-54 16.5q-17 0 -34 -9.5t-30.5 -24t-22 -31.5t-8.5 -32q0 -21 17.5 -40.5t51.5 -34.5
t84 -24t116 -9zM381 1091q-1 20 -1 27v18q0 21 2 37t8 29q7 14 16 23t22 19q-32 23 -51.5 46.5t-19.5 61.5q0 28 18.5 61t48.5 61.5t68.5 48t79.5 19.5q38 0 65 -19t27 -50q0 -17 -10.5 -36t-40.5 -34q-44 39 -86 39q-12 0 -24 -2.5t-22.5 -7.5t-17 -13t-6.5 -19t10.5 -25.5
t26 -28t34 -23t35.5 -9.5q12 0 34.5 6.5t49.5 15.5t56.5 19.5t55.5 18.5q-21 -80 -38 -123q-71 -22 -122 -39.5t-89.5 -35.5t-68.5 -38t-58 -48z" />
    <glyph glyph-name="uniFE88" unicode="&#x625;" horiz-adv-x="502" arabic-form="final" 
d="M502 590v-240h-154q-135 0 -177 76q-14 27 -28 151q-7 63 -18.5 195.5t-26.5 340.5l-17 236q54 51 100.5 88t83.5 63q8 -197 14 -341.5t9.5 -240.5t6 -147t2.5 -61q1 -34 5 -57t12.5 -37t21.5 -20t33 -6h133zM496 104q-9 -40 -19.5 -74.5t-17.5 -52.5q-67 -20 -116 -35
t-86.5 -31t-66.5 -34.5t-56 -46.5q-1 13 -2 25.5t-1 23.5q0 32 10 58t34 41q-27 20 -42 42.5t-15 53.5t17 63.5t45.5 59.5t66.5 44t80 17q35 0 61.5 -16.5t26.5 -48.5q0 -21 -12 -39t-36 -29q-21 20 -46 32.5t-43 12.5q-28 0 -44 -13t-16 -26q0 -16 10 -31t25 -26t32 -18
t32 -7q10 0 28.5 4.5t42 12.5t51.5 17.5t57 20.5z" />
    <glyph glyph-name="uniFE8B" unicode="&#x626;" horiz-adv-x="705" arabic-form="initial" 
d="M460 1029q50 -55 82 -120t50.5 -134.5t25.5 -140.5t7 -137q0 -48 -8 -79.5t-28 -49.5t-53.5 -25t-83.5 -7q-60 0 -129.5 2t-133.5 4.5t-115 5t-74 2.5q-26 1 -45 3t-27 6q-21 9 -27.5 36t-6.5 75t5.5 73.5t15.5 33.5q17 13 85 13q13 0 37.5 -1t54.5 -2t62 -3t61.5 -3
t53 -2t35.5 -1q43 0 81 2t71 7q0 22 -10 50t-26.5 58t-38.5 59.5t-46 54.5q48 98 125 220zM142 1054q-1 20 -1 27v18q0 21 2 37t8 29q7 14 16 23t22 19q-32 23 -51.5 46.5t-19.5 61.5q0 28 18.5 61t48.5 61.5t68.5 48t79.5 19.5q38 0 65 -19t27 -50q0 -17 -10.5 -36
t-40.5 -34q-44 39 -86 39q-12 0 -24 -2.5t-22.5 -7.5t-17 -13t-6.5 -19t10.5 -25.5t26 -28t34 -23t35.5 -9.5q12 0 34.5 6.5t49.5 15.5t56.5 19.5t55.5 18.5q-21 -80 -38 -123q-71 -22 -122 -39.5t-89.5 -35.5t-68.5 -38t-58 -48z" />
    <glyph glyph-name="uniFE8C" unicode="&#x626;" horiz-adv-x="625" arabic-form="medial" 
d="M460 1029q50 -55 82 -120t50.5 -134.5t25.5 -140.5t7 -137q0 -48 -8 -79.5t-28 -49.5t-53.5 -25t-83.5 -7q-60 0 -129.5 2t-133.5 4.5t-115 5t-74 2.5q-26 1 -45 3t-27 6q-21 9 -27.5 36t-6.5 75t5.5 73.5t15.5 33.5q17 13 85 13q13 0 37.5 -1t54.5 -2t62 -3t61.5 -3
t53 -2t35.5 -1q43 0 81 2t71 7q0 22 -10 50t-26.5 58t-38.5 59.5t-46 54.5q48 98 125 220zM142 1054q-1 20 -1 27v18q0 21 2 37t8 29q7 14 16 23t22 19q-32 23 -51.5 46.5t-19.5 61.5q0 28 18.5 61t48.5 61.5t68.5 48t79.5 19.5q38 0 65 -19t27 -50q0 -17 -10.5 -36
t-40.5 -34q-44 39 -86 39q-12 0 -24 -2.5t-22.5 -7.5t-17 -13t-6.5 -19t10.5 -25.5t26 -28t34 -23t35.5 -9.5q12 0 34.5 6.5t49.5 15.5t56.5 19.5t55.5 18.5q-21 -80 -38 -123q-71 -22 -122 -39.5t-89.5 -35.5t-68.5 -38t-58 -48z" />
    <glyph glyph-name="uniFE8A" unicode="&#x626;" horiz-adv-x="1174" arabic-form="final" 
d="M1174 590v-240q-24 0 -51.5 1t-54.5 2.5t-51 3t-41 1.5q-39 0 -69.5 -5t-51.5 -12t-32 -15t-11 -14q0 -5 8 -10t22 -10.5t32.5 -10.5t39.5 -10q43 -11 78 -21.5t60.5 -24t39.5 -32t14 -45.5t-5 -56.5t-15 -56.5t-23.5 -49t-29.5 -35q-54 -43 -124.5 -80t-148 -64
t-157 -42t-151.5 -15q-71 0 -137.5 21t-117.5 65t-82 113t-31 165q0 42 8.5 99.5t30.5 119t58.5 122.5t92.5 112q29 26 44 26q6 0 6 -8q0 -9 -6 -24.5t-23 -38.5q-31 -43 -52 -87.5t-34 -85t-18.5 -75t-5.5 -56.5q0 -53 19.5 -98t60.5 -79t104 -53t150 -19q50 0 110 11
t118.5 26.5t110 33.5t84.5 33v5q-31 9 -66.5 18.5t-68.5 18.5t-60 17.5t-42 15.5q-32 14 -49.5 31.5t-17.5 49.5q0 14 8 43t23.5 64.5t38 73t52.5 68.5q48 50 123.5 81t173.5 31h117zM470 885q-9 -40 -19.5 -74.5t-17.5 -52.5q-67 -20 -116 -35t-86.5 -31t-66.5 -34.5
t-56 -46.5q-1 13 -2 25.5t-1 23.5q0 32 10 58t34 41q-27 20 -42 42.5t-15 53.5t17 63.5t45.5 59.5t66.5 44t80 17q35 0 61.5 -16.5t26.5 -48.5q0 -21 -12 -39t-36 -29q-21 20 -46 32.5t-43 12.5q-28 0 -44 -13t-16 -26q0 -16 10 -31t25 -26t32 -18t32 -7q10 0 28.5 4.5
t42 12.5t51.5 17.5t57 20.5z" />
    <glyph glyph-name="uniFE8E" unicode="&#x627;" horiz-adv-x="471" arabic-form="final" 
d="M471 590v-240h-123q-135 0 -177 76q-14 27 -28 151q-7 63 -18.5 195.5t-26.5 340.5l-17 236q54 51 100.5 88t83.5 63q8 -197 14 -341.5t9.5 -240.5t6 -147t2.5 -61q1 -34 5 -57t12.5 -37t21.5 -20t33 -6h102z" />
    <glyph glyph-name="uniFE91" unicode="&#x628;" horiz-adv-x="705" arabic-form="initial" 
d="M460 1029q50 -55 82 -120t50.5 -134.5t25.5 -140.5t7 -137q0 -48 -8 -79.5t-28 -49.5t-53.5 -25t-83.5 -7q-60 0 -129.5 2t-133.5 4.5t-115 5t-74 2.5q-26 1 -45 3t-27 6q-21 9 -27.5 36t-6.5 75t5.5 73.5t15.5 33.5q17 13 85 13q13 0 37.5 -1t54.5 -2t62 -3t61.5 -3
t53 -2t35.5 -1q43 0 81 2t71 7q0 22 -10 50t-26.5 58t-38.5 59.5t-46 54.5q48 98 125 220zM390 -175l-215 131q11 21 25 45t29 47.5t28.5 44t23.5 34.5q22 -13 50.5 -30t57.5 -36t57 -37t50 -33q-9 -17 -22 -39t-27.5 -45t-29.5 -44.5t-27 -37.5z" />
    <glyph glyph-name="uniFE92" unicode="&#x628;" horiz-adv-x="625" arabic-form="medial" 
d="M460 1029q50 -55 82 -120t50.5 -134.5t25.5 -140.5t7 -137q0 -48 -8 -79.5t-28 -49.5t-53.5 -25t-83.5 -7q-60 0 -129.5 2t-133.5 4.5t-115 5t-74 2.5q-26 1 -45 3t-27 6q-21 9 -27.5 36t-6.5 75t5.5 73.5t15.5 33.5q17 13 85 13q13 0 37.5 -1t54.5 -2t62 -3t61.5 -3
t53 -2t35.5 -1q43 0 81 2t71 7q0 22 -10 50t-26.5 58t-38.5 59.5t-46 54.5q48 98 125 220zM390 -175l-215 131q11 21 25 45t29 47.5t28.5 44t23.5 34.5q22 -13 50.5 -30t57.5 -36t57 -37t50 -33q-9 -17 -22 -39t-27.5 -45t-29.5 -44.5t-27 -37.5z" />
    <glyph glyph-name="uniFE90" unicode="&#x628;" horiz-adv-x="1332" arabic-form="final" 
d="M1188 562q-3 23 -15.5 51t-31.5 57t-44 57.5t-55 52.5q20 48 54.5 106t72.5 118q79 -79 121 -192t42 -267q0 -69 -7.5 -113.5t-15.5 -57.5q-8 -11 -29 -18.5t-59 -16.5q-33 -8 -80.5 -16.5t-103.5 -16.5t-116.5 -15.5t-120 -13t-115 -9t-100.5 -3.5q-130 0 -225 19
t-157.5 58.5t-92.5 101t-30 146.5q0 34 7 72t18.5 75.5t26 71.5t29 60.5t28 42t22.5 15.5q5 0 6 -4t1 -8q0 -16 -2.5 -33.5t-6.5 -35.5q-5 -23 -9 -45.5t-4 -45.5q0 -62 24.5 -109t79 -78.5t142 -47.5t213.5 -16q52 0 121 4t141.5 11.5t143.5 18.5t127 24zM786 -217
l-228 139q11 22 26 47t31 50t30.5 47t24.5 37q24 -14 53.5 -32.5t60.5 -38.5t61 -39t53 -34q-9 -19 -23 -42.5t-29.5 -47.5t-31 -46.5t-28.5 -39.5z" />
    <glyph glyph-name="uniFE94" unicode="&#x629;" horiz-adv-x="836" arabic-form="final" 
d="M673 1235q1 -33 2 -76.5t2 -92t2.5 -100.5t4.5 -101t7 -93t11 -78q11 -51 44 -77.5t90 -26.5v-240h-22q-47 0 -87.5 8.5t-72.5 30t-54 58t-31 92.5l-73 -97q-3 -3 -19.5 -6t-39 -6t-48 -4.5t-46.5 -1.5q-71 0 -121 14t-81.5 37.5t-46 53t-14.5 59.5q0 12 7 38.5t20 60
t31.5 71t41.5 70.5q24 34 51.5 62.5t66.5 56t92.5 56t128.5 64.5l-3 59q36 31 73.5 59t79.5 52zM532 895q-77 -29 -129.5 -54t-84.5 -47t-46 -41.5t-14 -38.5q0 -7 5 -17t22.5 -19.5t51.5 -16t92 -6.5q11 0 29.5 1.5t37.5 4t34.5 5t20.5 5.5q-5 54 -11 113.5t-8 110.5z
M472 1254l-205 124q10 19 21.5 40t23 41.5t23 39.5t22.5 34q50 -26 98.5 -56t96.5 -62l72 123q60 -32 111.5 -63t89.5 -57q-23 -40 -45 -78t-47 -74q-23 13 -48 28.5t-49.5 30.5t-47 29.5t-40.5 26.5q-19 -33 -38 -65.5t-38 -61.5z" />
    <glyph glyph-name="uniFE97" unicode="&#x62a;" horiz-adv-x="705" arabic-form="initial" 
d="M460 1029q50 -55 82 -120t50.5 -134.5t25.5 -140.5t7 -137q0 -48 -8 -79.5t-28 -49.5t-53.5 -25t-83.5 -7q-60 0 -129.5 2t-133.5 4.5t-115 5t-74 2.5q-26 1 -45 3t-27 6q-21 9 -27.5 36t-6.5 75t5.5 73.5t15.5 33.5q17 13 85 13q13 0 37.5 -1t54.5 -2t62 -3t61.5 -3
t53 -2t35.5 -1q43 0 81 2t71 7q0 22 -10 50t-26.5 58t-38.5 59.5t-46 54.5q48 98 125 220zM243 1109l-205 124q10 19 21.5 40t23 41.5t23 39.5t22.5 34q50 -26 98.5 -56t96.5 -62l72 123q60 -32 111.5 -63t89.5 -57q-23 -40 -45 -78t-47 -74q-23 13 -48 28.5t-49.5 30.5
t-47 29.5t-40.5 26.5q-19 -33 -38 -65.5t-38 -61.5z" />
    <glyph glyph-name="uniFE98" unicode="&#x62a;" horiz-adv-x="625" arabic-form="medial" 
d="M460 1029q50 -55 82 -120t50.5 -134.5t25.5 -140.5t7 -137q0 -48 -8 -79.5t-28 -49.5t-53.5 -25t-83.5 -7q-60 0 -129.5 2t-133.5 4.5t-115 5t-74 2.5q-26 1 -45 3t-27 6q-21 9 -27.5 36t-6.5 75t5.5 73.5t15.5 33.5q17 13 85 13q13 0 37.5 -1t54.5 -2t62 -3t61.5 -3
t53 -2t35.5 -1q43 0 81 2t71 7q0 22 -10 50t-26.5 58t-38.5 59.5t-46 54.5q48 98 125 220zM243 1109l-205 124q10 19 21.5 40t23 41.5t23 39.5t22.5 34q50 -26 98.5 -56t96.5 -62l72 123q60 -32 111.5 -63t89.5 -57q-23 -40 -45 -78t-47 -74q-23 13 -48 28.5t-49.5 30.5
t-47 29.5t-40.5 26.5q-19 -33 -38 -65.5t-38 -61.5z" />
    <glyph glyph-name="uniFE96" unicode="&#x62a;" horiz-adv-x="1332" arabic-form="final" 
d="M1188 562q-3 23 -15.5 51t-31.5 57t-44 57.5t-55 52.5q20 48 54.5 106t72.5 118q79 -79 121 -192t42 -267q0 -69 -7.5 -113.5t-15.5 -57.5q-8 -11 -29 -18.5t-59 -16.5q-33 -8 -80.5 -16.5t-103.5 -16.5t-116.5 -15.5t-120 -13t-115 -9t-100.5 -3.5q-130 0 -225 19
t-157.5 58.5t-92.5 101t-30 146.5q0 34 7 72t18.5 75.5t26 71.5t29 60.5t28 42t22.5 15.5q5 0 6 -4t1 -8q0 -16 -2.5 -33.5t-6.5 -35.5q-5 -23 -9 -45.5t-4 -45.5q0 -62 24.5 -109t79 -78.5t142 -47.5t213.5 -16q52 0 121 4t141.5 11.5t143.5 18.5t127 24zM597 935l-209 127
q21 39 46 83t46 75q51 -26 100.5 -56.5t99.5 -63.5l74 126q61 -32 114 -64t91 -59q-23 -41 -46 -80t-48 -76q-23 13 -48.5 29t-51 31.5t-49 30.5t-41.5 27q-38 -69 -78 -130z" />
    <glyph glyph-name="uniFE9B" unicode="&#x62b;" horiz-adv-x="705" arabic-form="initial" 
d="M460 1029q50 -55 82 -120t50.5 -134.5t25.5 -140.5t7 -137q0 -48 -8 -79.5t-28 -49.5t-53.5 -25t-83.5 -7q-60 0 -129.5 2t-133.5 4.5t-115 5t-74 2.5q-26 1 -45 3t-27 6q-21 9 -27.5 36t-6.5 75t5.5 73.5t15.5 33.5q17 13 85 13q13 0 37.5 -1t54.5 -2t62 -3t61.5 -3
t53 -2t35.5 -1q43 0 81 2t71 7q0 22 -10 50t-26.5 58t-38.5 59.5t-46 54.5q48 98 125 220zM245 1085q-48 29 -96 57.5t-95 57.5q23 40 42.5 74t45.5 69q45 -26 88.5 -52t92.5 -55q20 33 39 63t37 57q43 -26 91.5 -56t93.5 -62q-11 -19 -23.5 -39t-25 -39t-23.5 -34.5
t-18 -24.5q-42 26 -84.5 52.5t-84.5 52.5q-20 -28 -39.5 -58.5t-40.5 -62.5zM290 1346q-48 29 -93 55.5t-89 52.5q19 36 40.5 71t47.5 67l182 -109q-5 -9 -14 -24.5t-21 -35t-25.5 -39.5t-27.5 -38z" />
    <glyph glyph-name="uniFE9C" unicode="&#x62b;" horiz-adv-x="625" arabic-form="medial" 
d="M460 1029q50 -55 82 -120t50.5 -134.5t25.5 -140.5t7 -137q0 -48 -8 -79.5t-28 -49.5t-53.5 -25t-83.5 -7q-60 0 -129.5 2t-133.5 4.5t-115 5t-74 2.5q-26 1 -45 3t-27 6q-21 9 -27.5 36t-6.5 75t5.5 73.5t15.5 33.5q17 13 85 13q13 0 37.5 -1t54.5 -2t62 -3t61.5 -3
t53 -2t35.5 -1q43 0 81 2t71 7q0 22 -10 50t-26.5 58t-38.5 59.5t-46 54.5q48 98 125 220zM245 1085q-48 29 -96 57.5t-95 57.5q23 40 42.5 74t45.5 69q45 -26 88.5 -52t92.5 -55q20 33 39 63t37 57q43 -26 91.5 -56t93.5 -62q-11 -19 -23.5 -39t-25 -39t-23.5 -34.5
t-18 -24.5q-42 26 -84.5 52.5t-84.5 52.5q-20 -28 -39.5 -58.5t-40.5 -62.5zM290 1346q-48 29 -93 55.5t-89 52.5q19 36 40.5 71t47.5 67l182 -109q-5 -9 -14 -24.5t-21 -35t-25.5 -39.5t-27.5 -38z" />
    <glyph glyph-name="uniFE9A" unicode="&#x62b;" horiz-adv-x="1332" arabic-form="final" 
d="M1188 562q-3 23 -15.5 51t-31.5 57t-44 57.5t-55 52.5q20 48 54.5 106t72.5 118q79 -79 121 -192t42 -267q0 -69 -7.5 -113.5t-15.5 -57.5q-8 -11 -29 -18.5t-59 -16.5q-33 -8 -80.5 -16.5t-103.5 -16.5t-116.5 -15.5t-120 -13t-115 -9t-100.5 -3.5q-130 0 -225 19
t-157.5 58.5t-92.5 101t-30 146.5q0 34 7 72t18.5 75.5t26 71.5t29 60.5t28 42t22.5 15.5q5 0 6 -4t1 -8q0 -16 -2.5 -33.5t-6.5 -35.5q-5 -23 -9 -45.5t-4 -45.5q0 -62 24.5 -109t79 -78.5t142 -47.5t213.5 -16q52 0 121 4t141.5 11.5t143.5 18.5t127 24zM600 926
q-51 30 -101.5 60.5t-99.5 60.5q24 42 45 78t48 73q47 -28 93 -55t97 -58q21 35 41 66.5t40 60.5q45 -27 95.5 -59.5t98.5 -65.5q-11 -20 -24.5 -41t-26 -40.5t-24 -36t-19.5 -26.5q-45 28 -89 55.5t-89 54.5q-21 -29 -41.5 -61.5t-43.5 -65.5zM648 1201q-51 31 -98.5 58.5
t-93.5 55.5q20 38 42.5 74.5t50.5 70.5l191 -115q-5 -9 -14 -25.5t-21.5 -36.5t-27 -41.5t-29.5 -40.5z" />
    <glyph glyph-name="uniFE9F" unicode="&#x62c;" horiz-adv-x="1372" arabic-form="initial" 
d="M0 350q-40 0 -61.5 5t-29.5 16q-15 21 -15 93q0 82 14 104q7 11 28.5 16.5t63.5 5.5q48 0 95 -2t99.5 -4t114 -4t138.5 -2q94 0 197 3.5t219 16.5v9q-55 56 -106 101.5t-99 78t-92.5 50t-84.5 17.5q-41 0 -89.5 -16.5t-117.5 -56.5q-13 -8 -21 -11.5t-15 -3.5t-7 5
q0 1 1 4q7 21 24 48t39 54t44.5 51t40.5 38q44 35 92 52.5t96 17.5q45 0 83 -11.5t76.5 -35t80.5 -59t94 -83.5q40 -38 71.5 -66t56.5 -49t45.5 -35.5t39.5 -24.5q23 -12 50.5 -18.5t73.5 -6.5h22t31 2q-5 -33 -9 -74.5t-12.5 -78.5t-22.5 -63.5t-39 -30.5
q-81 -13 -166.5 -24t-179.5 -18.5t-198.5 -12t-223.5 -4.5q-20 0 -53.5 0.5t-74 1t-85 1t-87 1.5t-79.5 1.5t-62 1.5zM664 -164l-215 131q11 21 25 45t29 47.5t28.5 44t23.5 34.5q22 -13 50.5 -30t57.5 -36t57 -37t50 -33q-9 -17 -22 -39t-27.5 -45t-29.5 -44.5t-27 -37.5z
" />
    <glyph glyph-name="uniFEA0" unicode="&#x62c;" horiz-adv-x="1261" arabic-form="medial" 
d="M0 350q-40 0 -61.5 5t-29.5 16q-15 21 -15 93q0 82 14 104q7 11 28.5 16.5t63.5 5.5q13 0 45.5 -2t79 -4.5t104 -6t121 -6t129.5 -4.5t129 -2q66 0 125.5 2t118.5 8v7q-56 58 -106.5 105t-96.5 79t-89 49.5t-83 17.5q-22 0 -48.5 -5.5t-54.5 -14.5t-55 -21t-49 -25
q-13 -8 -21 -10.5t-15 -2.5t-7 5q0 1 1 4q7 21 25 48.5t40 54.5t44.5 50t38.5 36q85 67 185 67q43 0 81.5 -12t77 -35.5t79 -57.5t87.5 -77q69 -64 115 -109t85 -74.5t78.5 -45t96.5 -18.5v-240q-2 0 -27.5 -1t-69 -3t-101 -3.5t-124.5 -3.5t-140 -3t-146 -1
q-188 0 -346 4.5t-307 10.5zM664 -182l-215 131q11 21 25 45t29 47.5t28.5 44t23.5 34.5q22 -13 50.5 -30t57.5 -36t57 -37t50 -33q-9 -17 -22 -39t-27.5 -45t-29.5 -44.5t-27 -37.5z" />
    <glyph glyph-name="uniFE9E" unicode="&#x62c;" horiz-adv-x="1230" arabic-form="final" 
d="M570 802v3q-54 19 -112 37.5t-110 18.5q-24 0 -49 -5t-53.5 -20t-61.5 -42t-73 -70q-7 -7 -14.5 -13t-15.5 -6q-9 0 -12 6.5t-1 12.5q11 57 35.5 107.5t48.5 88.5q30 49 63.5 82.5t67.5 54t67 29.5t63 9q71 0 129.5 -20t118.5 -45q32 -14 65.5 -27t70 -23.5t77 -17
t87.5 -6.5q20 0 49 1t58.5 3.5t56 5.5t42.5 7q6 2 6 -3q-6 -23 -16.5 -53.5t-24 -62.5t-27.5 -63t-27 -55q-18 -2 -35.5 -3t-34.5 -3q-2 -5 -3 -11t-1 -12q0 -36 18 -58.5t45 -35.5t58 -18t58 -5h47v-240h-64q-57 0 -103.5 13t-78.5 40.5t-49.5 70.5t-17.5 103q0 29 6 66.5
t17 79.5q-162 -21 -288.5 -66t-213 -108.5t-131.5 -142.5t-45 -169q0 -25 6.5 -60t25 -72.5t51 -74.5t85 -66.5t127 -47.5t175.5 -18q60 0 122 6t122 16.5t115 24t101 28.5q11 4 21 4q18 0 18 -16q0 -7 -3 -12t-11 -15q-66 -77 -141.5 -130.5t-154 -86.5t-156.5 -47.5
t-149 -14.5q-104 0 -189.5 33t-147 94t-95 147t-33.5 192q0 135 38 244.5t98 194.5t134.5 145.5t148.5 96.5zM735 119l-215 131q11 21 25 45t29 47.5t28.5 44t23.5 34.5q22 -13 50.5 -30t57.5 -36t57 -37t50 -33q-9 -17 -22 -39t-27.5 -45t-29.5 -44.5t-27 -37.5z" />
    <glyph glyph-name="uniFEA3" unicode="&#x62d;" horiz-adv-x="1372" arabic-form="initial" 
d="M0 350q-40 0 -61.5 5t-29.5 16q-15 21 -15 93q0 82 14 104q7 11 28.5 16.5t63.5 5.5q48 0 95 -2t99.5 -4t114 -4t138.5 -2q94 0 197 3.5t219 16.5v9q-55 56 -106 101.5t-99 78t-92.5 50t-84.5 17.5q-41 0 -89.5 -16.5t-117.5 -56.5q-13 -8 -21 -11.5t-15 -3.5t-7 5
q0 1 1 4q7 21 24 48t39 54t44.5 51t40.5 38q44 35 92 52.5t96 17.5q45 0 83 -11.5t76.5 -35t80.5 -59t94 -83.5q40 -38 71.5 -66t56.5 -49t45.5 -35.5t39.5 -24.5q23 -12 50.5 -18.5t73.5 -6.5h22t31 2q-5 -33 -9 -74.5t-12.5 -78.5t-22.5 -63.5t-39 -30.5
q-81 -13 -166.5 -24t-179.5 -18.5t-198.5 -12t-223.5 -4.5q-20 0 -53.5 0.5t-74 1t-85 1t-87 1.5t-79.5 1.5t-62 1.5z" />
    <glyph glyph-name="uniFEA4" unicode="&#x62d;" horiz-adv-x="1261" arabic-form="medial" 
d="M0 350q-40 0 -61.5 5t-29.5 16q-15 21 -15 93q0 82 14 104q7 11 28.5 16.5t63.5 5.5q13 0 45.5 -2t79 -4.5t104 -6t121 -6t129.5 -4.5t129 -2q66 0 125.5 2t118.5 8v7q-56 58 -106.5 105t-96.5 79t-89 49.5t-83 17.5q-22 0 -48.5 -5.5t-54.5 -14.5t-55 -21t-49 -25
q-13 -8 -21 -10.5t-15 -2.5t-7 5q0 1 1 4q7 21 25 48.5t40 54.5t44.5 50t38.5 36q85 67 185 67q43 0 81.5 -12t77 -35.5t79 -57.5t87.5 -77q69 -64 115 -109t85 -74.5t78.5 -45t96.5 -18.5v-240q-2 0 -27.5 -1t-69 -3t-101 -3.5t-124.5 -3.5t-140 -3t-146 -1
q-188 0 -346 4.5t-307 10.5z" />
    <glyph glyph-name="uniFEA2" unicode="&#x62d;" horiz-adv-x="1230" arabic-form="final" 
d="M570 802v3q-54 19 -112 37.5t-110 18.5q-24 0 -49 -5t-53.5 -20t-61.5 -42t-73 -70q-7 -7 -14.5 -13t-15.5 -6q-9 0 -12 6.5t-1 12.5q11 57 35.5 107.5t48.5 88.5q30 49 63.5 82.5t67.5 54t67 29.5t63 9q71 0 129.5 -20t118.5 -45q32 -14 65.5 -27t70 -23.5t77 -17
t87.5 -6.5q20 0 49 1t58.5 3.5t56 5.5t42.5 7q6 2 6 -3q-6 -23 -16.5 -53.5t-24 -62.5t-27.5 -63t-27 -55q-18 -2 -35.5 -3t-34.5 -3q-2 -5 -3 -11t-1 -12q0 -36 18 -58.5t45 -35.5t58 -18t58 -5h47v-240h-64q-57 0 -103.5 13t-78.5 40.5t-49.5 70.5t-17.5 103q0 29 6 66.5
t17 79.5q-162 -21 -288.5 -66t-213 -108.5t-131.5 -142.5t-45 -169q0 -25 6.5 -60t25 -72.5t51 -74.5t85 -66.5t127 -47.5t175.5 -18q60 0 122 6t122 16.5t115 24t101 28.5q11 4 21 4q18 0 18 -16q0 -7 -3 -12t-11 -15q-66 -77 -141.5 -130.5t-154 -86.5t-156.5 -47.5
t-149 -14.5q-104 0 -189.5 33t-147 94t-95 147t-33.5 192q0 135 38 244.5t98 194.5t134.5 145.5t148.5 96.5z" />
    <glyph glyph-name="uniFEA7" unicode="&#x62e;" horiz-adv-x="1372" arabic-form="initial" 
d="M0 350q-40 0 -61.5 5t-29.5 16q-15 21 -15 93q0 82 14 104q7 11 28.5 16.5t63.5 5.5q48 0 95 -2t99.5 -4t114 -4t138.5 -2q94 0 197 3.5t219 16.5v9q-55 56 -106 101.5t-99 78t-92.5 50t-84.5 17.5q-41 0 -89.5 -16.5t-117.5 -56.5q-13 -8 -21 -11.5t-15 -3.5t-7 5
q0 1 1 4q7 21 24 48t39 54t44.5 51t40.5 38q44 35 92 52.5t96 17.5q45 0 83 -11.5t76.5 -35t80.5 -59t94 -83.5q40 -38 71.5 -66t56.5 -49t45.5 -35.5t39.5 -24.5q23 -12 50.5 -18.5t73.5 -6.5h22t31 2q-5 -33 -9 -74.5t-12.5 -78.5t-22.5 -63.5t-39 -30.5
q-81 -13 -166.5 -24t-179.5 -18.5t-198.5 -12t-223.5 -4.5q-20 0 -53.5 0.5t-74 1t-85 1t-87 1.5t-79.5 1.5t-62 1.5zM688 1234l-215 131q11 21 25 45t29 47.5t28.5 44t23.5 34.5q22 -13 50.5 -30t57.5 -36t57 -37t50 -33q-9 -17 -22 -39t-27.5 -45t-29.5 -44.5t-27 -37.5z
" />
    <glyph glyph-name="uniFEA8" unicode="&#x62e;" horiz-adv-x="1261" arabic-form="medial" 
d="M0 350q-40 0 -61.5 5t-29.5 16q-15 21 -15 93q0 82 14 104q7 11 28.5 16.5t63.5 5.5q13 0 45.5 -2t79 -4.5t104 -6t121 -6t129.5 -4.5t129 -2q66 0 125.5 2t118.5 8v7q-56 58 -106.5 105t-96.5 79t-89 49.5t-83 17.5q-22 0 -48.5 -5.5t-54.5 -14.5t-55 -21t-49 -25
q-13 -8 -21 -10.5t-15 -2.5t-7 5q0 1 1 4q7 21 25 48.5t40 54.5t44.5 50t38.5 36q85 67 185 67q43 0 81.5 -12t77 -35.5t79 -57.5t87.5 -77q69 -64 115 -109t85 -74.5t78.5 -45t96.5 -18.5v-240q-2 0 -27.5 -1t-69 -3t-101 -3.5t-124.5 -3.5t-140 -3t-146 -1
q-188 0 -346 4.5t-307 10.5zM688 1234l-215 131q11 21 25 45t29 47.5t28.5 44t23.5 34.5q22 -13 50.5 -30t57.5 -36t57 -37t50 -33q-9 -17 -22 -39t-27.5 -45t-29.5 -44.5t-27 -37.5z" />
    <glyph glyph-name="uniFEA6" unicode="&#x62e;" horiz-adv-x="1230" arabic-form="final" 
d="M570 802v3q-54 19 -112 37.5t-110 18.5q-24 0 -49 -5t-53.5 -20t-61.5 -42t-73 -70q-7 -7 -14.5 -13t-15.5 -6q-9 0 -12 6.5t-1 12.5q11 57 35.5 107.5t48.5 88.5q30 49 63.5 82.5t67.5 54t67 29.5t63 9q71 0 129.5 -20t118.5 -45q32 -14 65.5 -27t70 -23.5t77 -17
t87.5 -6.5q20 0 49 1t58.5 3.5t56 5.5t42.5 7q6 2 6 -3q-6 -23 -16.5 -53.5t-24 -62.5t-27.5 -63t-27 -55q-18 -2 -35.5 -3t-34.5 -3q-2 -5 -3 -11t-1 -12q0 -36 18 -58.5t45 -35.5t58 -18t58 -5h47v-240h-64q-57 0 -103.5 13t-78.5 40.5t-49.5 70.5t-17.5 103q0 29 6 66.5
t17 79.5q-162 -21 -288.5 -66t-213 -108.5t-131.5 -142.5t-45 -169q0 -25 6.5 -60t25 -72.5t51 -74.5t85 -66.5t127 -47.5t175.5 -18q60 0 122 6t122 16.5t115 24t101 28.5q11 4 21 4q18 0 18 -16q0 -7 -3 -12t-11 -15q-66 -77 -141.5 -130.5t-154 -86.5t-156.5 -47.5
t-149 -14.5q-104 0 -189.5 33t-147 94t-95 147t-33.5 192q0 135 38 244.5t98 194.5t134.5 145.5t148.5 96.5zM718 1254l-215 131q11 21 25 45t29 47.5t28.5 44t23.5 34.5q22 -13 50.5 -30t57.5 -36t57 -37t50 -33q-9 -17 -22 -39t-27.5 -45t-29.5 -44.5t-27 -37.5z" />
    <glyph glyph-name="uniFEAA" unicode="&#x62f;" horiz-adv-x="697" arabic-form="final" 
d="M405 909q42 107 113 217q179 -265 179 -629q0 -116 -15 -137q-7 -10 -37 -20.5t-72.5 -20t-93 -18.5t-98.5 -15.5t-88.5 -10.5t-62.5 -4q-152 0 -152 183q0 76 16 159q16 87 30 87q8 0 12.5 -14t7 -32.5t4.5 -38t5 -30.5q4 -15 13 -28.5t24 -23.5t37 -15.5t54 -5.5
q21 0 59 4.5t78.5 11.5t77.5 16t57 17q-8 169 -148 348z" />
    <glyph glyph-name="uniFEAC" unicode="&#x630;" horiz-adv-x="697" arabic-form="final" 
d="M405 909q42 107 113 217q179 -265 179 -629q0 -116 -15 -137q-7 -10 -37 -20.5t-72.5 -20t-93 -18.5t-98.5 -15.5t-88.5 -10.5t-62.5 -4q-152 0 -152 183q0 76 16 159q16 87 30 87q8 0 12.5 -14t7 -32.5t4.5 -38t5 -30.5q4 -15 13 -28.5t24 -23.5t37 -15.5t54 -5.5
q21 0 59 4.5t78.5 11.5t77.5 16t57 17q-8 169 -148 348zM405 1222l-215 131q11 21 25 45t29 47.5t28.5 44t23.5 34.5q22 -13 50.5 -30t57.5 -36t57 -37t50 -33q-9 -17 -22 -39t-27.5 -45t-29.5 -44.5t-27 -37.5z" />
    <glyph glyph-name="uniFEAE" unicode="&#x631;" horiz-adv-x="785" arabic-form="final" 
d="M486 593q20 55 50.5 114.5t63.5 110.5q53 -45 88.5 -86.5t57 -86t30.5 -96t9 -116.5q0 -61 -12 -132.5t-36 -143.5t-59.5 -139t-82 -118.5t-105 -82.5t-127.5 -31q-48 0 -94.5 21.5t-88.5 56t-77 77t-59 84.5q-44 77 -44 94q0 9 10 9q7 0 18 -7q148 -93 252 -93
q72 0 134.5 26t112.5 71t88 105t62 128q-22 57 -71 116t-120 119z" />
    <glyph glyph-name="uniFEB0" unicode="&#x632;" horiz-adv-x="785" arabic-form="final" 
d="M486 593q20 55 50.5 114.5t63.5 110.5q53 -45 88.5 -86.5t57 -86t30.5 -96t9 -116.5q0 -61 -12 -132.5t-36 -143.5t-59.5 -139t-82 -118.5t-105 -82.5t-127.5 -31q-48 0 -94.5 21.5t-88.5 56t-77 77t-59 84.5q-44 77 -44 94q0 9 10 9q7 0 18 -7q148 -93 252 -93
q72 0 134.5 26t112.5 71t88 105t62 128q-22 57 -71 116t-120 119zM552 982l-215 131q11 21 25 45t29 47.5t28.5 44t23.5 34.5q22 -13 50.5 -30t57.5 -36t57 -37t50 -33q-9 -17 -22 -39t-27.5 -45t-29.5 -44.5t-27 -37.5z" />
    <glyph glyph-name="uniFEB3" unicode="&#x633;" horiz-adv-x="1528" arabic-form="initial" 
d="M429 397q-25 -16 -50.5 -25.5t-59 -14t-78 -6t-107.5 -1.5h-134q-47 0 -65 5t-26 16q-15 22 -15 93q0 90 16 107q8 10 31 14.5t59 4.5h143q31 0 71.5 0.5t78.5 2t68.5 5.5t40.5 12q24 17 35.5 62t19.5 129q48 37 95.5 71.5t95.5 66.5q-3 -46 -10.5 -93t-20 -90t-29.5 -81
t-38 -66q38 -10 93 -14.5t113 -4.5q35 0 58.5 6t37 18t19 29.5t5.5 41.5t-4.5 54t-9.5 66q87 82 172 151q3 -20 5 -43.5t2 -49.5q0 -57 -9 -118t-28 -113q10 -9 32.5 -18.5t51 -17t60.5 -12t61 -4.5q40 0 67.5 11t27.5 37q0 13 -6.5 35t-16.5 47.5t-23.5 51.5t-26.5 49
q34 47 69.5 91t73.5 89q13 -19 26.5 -65.5t24 -107.5t17 -129t6.5 -130q0 -64 -8 -113.5t-26 -69.5q-14 -14 -48 -20t-76 -6q-102 0 -197.5 17t-187.5 59q-50 -44 -101.5 -60t-118.5 -16q-37 0 -68 3.5t-61 9.5t-60.5 14.5t-66.5 19.5z" />
    <glyph glyph-name="uniFEB4" unicode="&#x633;" horiz-adv-x="1448" arabic-form="medial" 
d="M429 397q-25 -16 -50.5 -25.5t-59 -14t-78 -6t-107.5 -1.5h-134q-47 0 -65 5t-26 16q-15 22 -15 93q0 90 16 107q8 10 31 14.5t59 4.5h143q31 0 71.5 0.5t78.5 2t68.5 5.5t40.5 12q24 17 35.5 62t19.5 129q48 37 95.5 71.5t95.5 66.5q-3 -46 -10.5 -93t-20 -90t-29.5 -81
t-38 -66q38 -10 93 -14.5t113 -4.5q35 0 58.5 6t37 18t19 29.5t5.5 41.5t-4.5 54t-9.5 66q87 82 172 151q3 -20 5 -43.5t2 -49.5q0 -57 -9 -118t-28 -113q10 -9 32.5 -18.5t51 -17t60.5 -12t61 -4.5q40 0 67.5 11t27.5 37q0 13 -6.5 35t-16.5 47.5t-23.5 51.5t-26.5 49
q34 47 69.5 91t73.5 89q13 -19 26.5 -65.5t24 -107.5t17 -129t6.5 -130q0 -64 -8 -113.5t-26 -69.5q-14 -14 -48 -20t-76 -6q-102 0 -197.5 17t-187.5 59q-50 -44 -101.5 -60t-118.5 -16q-37 0 -68 3.5t-61 9.5t-60.5 14.5t-66.5 19.5z" />
    <glyph glyph-name="uniFEB2" unicode="&#x633;" horiz-adv-x="1850" arabic-form="final" 
d="M901 902q21 -26 39.5 -60t34.5 -74.5t28.5 -84.5t21.5 -89q31 -3 64.5 -3.5t68.5 -0.5t58.5 6t37 18t19 29.5t5.5 41.5t-4.5 54t-9.5 66q87 82 172 151q3 -20 5 -43.5t2 -49.5q0 -57 -9 -118t-28 -113q10 -9 32.5 -18.5t51 -17t60.5 -12t61 -4.5q40 0 67.5 11t27.5 37
q0 13 -6.5 35t-16.5 47.5t-23.5 51.5t-26.5 49q34 47 69.5 91t73.5 89q13 -19 26.5 -65.5t24 -107.5t17 -129t6.5 -130q0 -64 -8 -113.5t-26 -69.5q-14 -14 -48 -20t-76 -6q-102 0 -197.5 17t-187.5 59q-34 -26 -68 -41t-68 -22.5t-68.5 -9.5t-69.5 -2q-8 -73 -27.5 -132.5
t-44.5 -106t-53 -79t-54 -51.5q-28 -20 -72 -41t-96 -38t-108.5 -27.5t-110.5 -10.5q-98 0 -172.5 27.5t-124 77t-74.5 119t-25 154.5q0 51 7 99.5t21 95.5t36 95.5t52 99.5q28 48 51.5 70t34.5 22q10 0 10 -11q0 -18 -17 -52q-20 -39 -35.5 -74.5t-26 -69t-16 -68
t-5.5 -71.5q0 -60 20.5 -110t59.5 -85.5t96 -55.5t130 -20q52 0 114.5 10t122 28.5t108 45t73.5 60.5v10q0 32 -6 72.5t-21.5 91.5t-43.5 113t-71 137q32 57 66 116.5t70 109.5z" />
    <glyph glyph-name="uniFEB7" unicode="&#x634;" horiz-adv-x="1528" arabic-form="initial" 
d="M429 397q-25 -16 -50.5 -25.5t-59 -14t-78 -6t-107.5 -1.5h-134q-47 0 -65 5t-26 16q-15 22 -15 93q0 90 16 107q8 10 31 14.5t59 4.5h143q31 0 71.5 0.5t78.5 2t68.5 5.5t40.5 12q24 17 35.5 62t19.5 129q48 37 95.5 71.5t95.5 66.5q-3 -46 -10.5 -93t-20 -90t-29.5 -81
t-38 -66q38 -10 93 -14.5t113 -4.5q35 0 58.5 6t37 18t19 29.5t5.5 41.5t-4.5 54t-9.5 66q87 82 172 151q3 -20 5 -43.5t2 -49.5q0 -57 -9 -118t-28 -113q10 -9 32.5 -18.5t51 -17t60.5 -12t61 -4.5q40 0 67.5 11t27.5 37q0 13 -6.5 35t-16.5 47.5t-23.5 51.5t-26.5 49
q34 47 69.5 91t73.5 89q13 -19 26.5 -65.5t24 -107.5t17 -129t6.5 -130q0 -64 -8 -113.5t-26 -69.5q-14 -14 -48 -20t-76 -6q-102 0 -197.5 17t-187.5 59q-50 -44 -101.5 -60t-118.5 -16q-37 0 -68 3.5t-61 9.5t-60.5 14.5t-66.5 19.5zM870 1069q-48 29 -96 57.5t-95 57.5
q23 40 42.5 74t45.5 69q45 -26 88.5 -52t92.5 -55q20 33 39 63t37 57q43 -26 91.5 -56t93.5 -62q-11 -19 -23.5 -39t-25 -39t-23.5 -34.5t-18 -24.5q-42 26 -84.5 52.5t-84.5 52.5q-20 -28 -39.5 -58.5t-40.5 -62.5zM915 1330q-48 29 -93 55.5t-89 52.5q19 36 40.5 71
t47.5 67l182 -109q-5 -9 -14 -24.5t-21 -35t-25.5 -39.5t-27.5 -38z" />
    <glyph glyph-name="uniFEB8" unicode="&#x634;" horiz-adv-x="1448" arabic-form="medial" 
d="M429 397q-25 -16 -50.5 -25.5t-59 -14t-78 -6t-107.5 -1.5h-134q-47 0 -65 5t-26 16q-15 22 -15 93q0 90 16 107q8 10 31 14.5t59 4.5h143q31 0 71.5 0.5t78.5 2t68.5 5.5t40.5 12q24 17 35.5 62t19.5 129q48 37 95.5 71.5t95.5 66.5q-3 -46 -10.5 -93t-20 -90t-29.5 -81
t-38 -66q38 -10 93 -14.5t113 -4.5q35 0 58.5 6t37 18t19 29.5t5.5 41.5t-4.5 54t-9.5 66q87 82 172 151q3 -20 5 -43.5t2 -49.5q0 -57 -9 -118t-28 -113q10 -9 32.5 -18.5t51 -17t60.5 -12t61 -4.5q40 0 67.5 11t27.5 37q0 13 -6.5 35t-16.5 47.5t-23.5 51.5t-26.5 49
q34 47 69.5 91t73.5 89q13 -19 26.5 -65.5t24 -107.5t17 -129t6.5 -130q0 -64 -8 -113.5t-26 -69.5q-14 -14 -48 -20t-76 -6q-102 0 -197.5 17t-187.5 59q-50 -44 -101.5 -60t-118.5 -16q-37 0 -68 3.5t-61 9.5t-60.5 14.5t-66.5 19.5zM870 1069q-48 29 -96 57.5t-95 57.5
q23 40 42.5 74t45.5 69q45 -26 88.5 -52t92.5 -55q20 33 39 63t37 57q43 -26 91.5 -56t93.5 -62q-11 -19 -23.5 -39t-25 -39t-23.5 -34.5t-18 -24.5q-42 26 -84.5 52.5t-84.5 52.5q-20 -28 -39.5 -58.5t-40.5 -62.5zM915 1330q-48 29 -93 55.5t-89 52.5q19 36 40.5 71
t47.5 67l182 -109q-5 -9 -14 -24.5t-21 -35t-25.5 -39.5t-27.5 -38z" />
    <glyph glyph-name="uniFEB6" unicode="&#x634;" horiz-adv-x="1850" arabic-form="final" 
d="M901 902q21 -26 39.5 -60t34.5 -74.5t28.5 -84.5t21.5 -89q31 -3 64.5 -3.5t68.5 -0.5t58.5 6t37 18t19 29.5t5.5 41.5t-4.5 54t-9.5 66q87 82 172 151q3 -20 5 -43.5t2 -49.5q0 -57 -9 -118t-28 -113q10 -9 32.5 -18.5t51 -17t60.5 -12t61 -4.5q40 0 67.5 11t27.5 37
q0 13 -6.5 35t-16.5 47.5t-23.5 51.5t-26.5 49q34 47 69.5 91t73.5 89q13 -19 26.5 -65.5t24 -107.5t17 -129t6.5 -130q0 -64 -8 -113.5t-26 -69.5q-14 -14 -48 -20t-76 -6q-102 0 -197.5 17t-187.5 59q-34 -26 -68 -41t-68 -22.5t-68.5 -9.5t-69.5 -2q-8 -73 -27.5 -132.5
t-44.5 -106t-53 -79t-54 -51.5q-28 -20 -72 -41t-96 -38t-108.5 -27.5t-110.5 -10.5q-98 0 -172.5 27.5t-124 77t-74.5 119t-25 154.5q0 51 7 99.5t21 95.5t36 95.5t52 99.5q28 48 51.5 70t34.5 22q10 0 10 -11q0 -18 -17 -52q-20 -39 -35.5 -74.5t-26 -69t-16 -68
t-5.5 -71.5q0 -60 20.5 -110t59.5 -85.5t96 -55.5t130 -20q52 0 114.5 10t122 28.5t108 45t73.5 60.5v10q0 32 -6 72.5t-21.5 91.5t-43.5 113t-71 137q32 57 66 116.5t70 109.5zM1257 1063q-51 30 -101.5 60.5t-99.5 60.5q24 42 45 78t48 73q47 -28 93 -55t97 -58
q21 35 41 66.5t40 60.5q45 -27 95.5 -59.5t98.5 -65.5q-11 -20 -24.5 -41t-26 -40.5t-24 -36t-19.5 -26.5q-45 28 -89 55.5t-89 54.5q-21 -29 -41.5 -61.5t-43.5 -65.5zM1305 1338q-51 31 -98.5 58.5t-93.5 55.5q20 38 42.5 74.5t50.5 70.5l191 -115q-5 -9 -14 -25.5
t-21.5 -36.5t-27 -41.5t-29.5 -40.5z" />
    <glyph glyph-name="uniFEBB" unicode="&#x635;" horiz-adv-x="1742" arabic-form="initial" 
d="M811 582q49 -3 99 -4.5t96.5 -2.5t88 -1.5t74.5 -0.5q28 0 64.5 0.5t74.5 2t75.5 4t66.5 6t47 7.5t18 10q0 10 -7 27t-20.5 37t-33 41.5t-44.5 41.5q-18 14 -36 26.5t-39.5 22t-47 15t-57.5 5.5q-27 0 -61.5 -7.5t-83 -31.5t-115.5 -70t-159 -124v-4zM499 998
q25 -75 29.5 -127t4.5 -72q0 -21 -1 -40.5t-4.5 -40t-10 -43.5t-16.5 -52q29 -17 56.5 -23.5t56.5 -6.5q12 0 22 3.5t25 15.5t39 34t64 60q87 81 160 143.5t137.5 104.5t123.5 64t118 22q39 0 74 -10t65.5 -28t57.5 -42.5t50 -52.5q62 -77 84.5 -139.5t22.5 -118.5
q0 -54 -10.5 -103.5t-24.5 -83.5t-37 -54.5t-52.5 -32.5t-66 -17t-77.5 -9q-50 -5 -107.5 -7.5t-116.5 -3.5t-116.5 -1.5t-105.5 -0.5q-98 0 -182.5 1t-155 8.5t-127.5 22.5t-100 44q-26 -29 -92 -45.5t-175 -16.5h-111q-35 0 -56 3.5t-32 15.5t-14.5 35t-3.5 62
q0 40 2 64.5t12 37.5t31.5 17.5t60.5 4.5h121q66 0 113.5 2t78 8t44.5 16t14 26q0 11 -5.5 37t-13 54.5t-14.5 54.5t-10 37q29 39 73 82t98 91z" />
    <glyph glyph-name="uniFEBC" unicode="&#x635;" horiz-adv-x="1652" arabic-form="medial" 
d="M811 582q49 -3 99 -4.5t96.5 -2.5t88 -1.5t74.5 -0.5q28 0 64.5 0.5t74.5 2t75.5 4t66.5 6t47 7.5t18 10q0 10 -7 27t-20.5 37t-33 41.5t-44.5 41.5q-18 14 -36 26.5t-39.5 22t-47 15t-57.5 5.5q-27 0 -61.5 -7.5t-83 -31.5t-115.5 -70t-159 -124v-4zM499 998
q25 -75 29.5 -127t4.5 -72q0 -21 -1 -40.5t-4.5 -40t-10 -43.5t-16.5 -52q29 -17 56.5 -23.5t56.5 -6.5q12 0 22 3.5t25 15.5t39 34t64 60q87 81 160 143.5t137.5 104.5t123.5 64t118 22q39 0 74 -10t65.5 -28t57.5 -42.5t50 -52.5q62 -77 84.5 -139.5t22.5 -118.5
q0 -54 -10.5 -103.5t-24.5 -83.5t-37 -54.5t-52.5 -32.5t-66 -17t-77.5 -9q-50 -5 -107.5 -7.5t-116.5 -3.5t-116.5 -1.5t-105.5 -0.5q-98 0 -182.5 1t-155 8.5t-127.5 22.5t-100 44q-26 -29 -92 -45.5t-175 -16.5h-111q-35 0 -56 3.5t-32 15.5t-14.5 35t-3.5 62
q0 40 2 64.5t12 37.5t31.5 17.5t60.5 4.5h121q66 0 113.5 2t78 8t44.5 16t14 26q0 11 -5.5 37t-13 54.5t-14.5 54.5t-10 37q29 39 73 82t98 91z" />
    <glyph glyph-name="uniFEBA" unicode="&#x635;" horiz-adv-x="2157" arabic-form="final" 
d="M901 902q19 -26 38.5 -61t36 -75.5t30 -85t21.5 -90.5q40 0 66.5 3.5t50.5 15.5t51 35t69 62q87 81 160 143.5t137.5 104.5t123.5 64t118 22q39 0 74 -10t65.5 -28t57.5 -42.5t50 -52.5q62 -77 84.5 -139.5t22.5 -118.5q0 -54 -10.5 -103.5t-24.5 -83.5t-37 -54.5
t-52.5 -32t-66 -16.5t-77.5 -9q-50 -5 -107.5 -7.5t-116.5 -3.5t-116.5 -1.5t-105.5 -0.5q-47 0 -98.5 1.5t-104.5 3.5t-105.5 4t-101.5 4q-13 -83 -32 -142.5t-42 -103t-49.5 -72.5t-55.5 -50q-28 -20 -72 -41t-96 -38t-108.5 -27.5t-110.5 -10.5q-98 0 -172.5 27.5
t-124 77t-74.5 119t-25 154.5q0 51 7 99.5t21 95.5t36 95.5t52 99.5q28 48 51.5 70t34.5 22q10 0 10 -11q0 -18 -17 -52q-20 -39 -35.5 -74.5t-26 -69t-16 -68t-5.5 -71.5q0 -60 20.5 -110t59.5 -85.5t96 -55.5t130 -20q52 0 114.5 10t122 28.5t108 45t73.5 60.5
q1 32 -4.5 73t-21 93t-43.5 116t-73 142q32 57 66 116.5t70 109.5zM1311 582q49 -3 99 -4.5t96.5 -2t88 -1t74.5 -0.5q28 0 64.5 0.5t74.5 2t75.5 3.5t66.5 5.5t47 7.5t18 10q0 10 -7 27t-20.5 37t-33 41.5t-44.5 41.5q-18 14 -36 26.5t-39.5 22t-47 15t-57.5 5.5
q-27 0 -61.5 -7.5t-83 -31.5t-115.5 -70t-159 -124v-4z" />
    <glyph glyph-name="uniFEBF" unicode="&#x636;" horiz-adv-x="1742" arabic-form="initial" 
d="M811 582q49 -3 99 -4.5t96.5 -2.5t88 -1.5t74.5 -0.5q28 0 64.5 0.5t74.5 2t75.5 4t66.5 6t47 7.5t18 10q0 10 -7 27t-20.5 37t-33 41.5t-44.5 41.5q-18 14 -36 26.5t-39.5 22t-47 15t-57.5 5.5q-27 0 -61.5 -7.5t-83 -31.5t-115.5 -70t-159 -124v-4zM499 998
q25 -75 29.5 -127t4.5 -72q0 -21 -1 -40.5t-4.5 -40t-10 -43.5t-16.5 -52q29 -17 56.5 -23.5t56.5 -6.5q12 0 22 3.5t25 15.5t39 34t64 60q87 81 160 143.5t137.5 104.5t123.5 64t118 22q39 0 74 -10t65.5 -28t57.5 -42.5t50 -52.5q62 -77 84.5 -139.5t22.5 -118.5
q0 -54 -10.5 -103.5t-24.5 -83.5t-37 -54.5t-52.5 -32.5t-66 -17t-77.5 -9q-50 -5 -107.5 -7.5t-116.5 -3.5t-116.5 -1.5t-105.5 -0.5q-98 0 -182.5 1t-155 8.5t-127.5 22.5t-100 44q-26 -29 -92 -45.5t-175 -16.5h-111q-35 0 -56 3.5t-32 15.5t-14.5 35t-3.5 62
q0 40 2 64.5t12 37.5t31.5 17.5t60.5 4.5h121q66 0 113.5 2t78 8t44.5 16t14 26q0 11 -5.5 37t-13 54.5t-14.5 54.5t-10 37q29 39 73 82t98 91zM1243 1209l-215 131q11 21 25 45t29 47.5t28.5 44t23.5 34.5q22 -13 50.5 -30t57.5 -36t57 -37t50 -33q-9 -17 -22 -39
t-27.5 -45t-29.5 -44.5t-27 -37.5z" />
    <glyph glyph-name="uniFEC0" unicode="&#x636;" horiz-adv-x="1657" arabic-form="medial" 
d="M811 582q49 -3 99 -4.5t96.5 -2.5t88 -1.5t74.5 -0.5q28 0 64.5 0.5t74.5 2t75.5 4t66.5 6t47 7.5t18 10q0 10 -7 27t-20.5 37t-33 41.5t-44.5 41.5q-18 14 -36 26.5t-39.5 22t-47 15t-57.5 5.5q-27 0 -61.5 -7.5t-83 -31.5t-115.5 -70t-159 -124v-4zM499 998
q25 -75 29.5 -127t4.5 -72q0 -21 -1 -40.5t-4.5 -40t-10 -43.5t-16.5 -52q29 -17 56.5 -23.5t56.5 -6.5q12 0 22 3.5t25 15.5t39 34t64 60q87 81 160 143.5t137.5 104.5t123.5 64t118 22q39 0 74 -10t65.5 -28t57.5 -42.5t50 -52.5q62 -77 84.5 -139.5t22.5 -118.5
q0 -54 -10.5 -103.5t-24.5 -83.5t-37 -54.5t-52.5 -32.5t-66 -17t-77.5 -9q-50 -5 -107.5 -7.5t-116.5 -3.5t-116.5 -1.5t-105.5 -0.5q-98 0 -182.5 1t-155 8.5t-127.5 22.5t-100 44q-26 -29 -92 -45.5t-175 -16.5h-111q-35 0 -56 3.5t-32 15.5t-14.5 35t-3.5 62
q0 40 2 64.5t12 37.5t31.5 17.5t60.5 4.5h121q66 0 113.5 2t78 8t44.5 16t14 26q0 11 -5.5 37t-13 54.5t-14.5 54.5t-10 37q29 39 73 82t98 91zM1243 1209l-215 131q11 21 25 45t29 47.5t28.5 44t23.5 34.5q22 -13 50.5 -30t57.5 -36t57 -37t50 -33q-9 -17 -22 -39
t-27.5 -45t-29.5 -44.5t-27 -37.5z" />
    <glyph glyph-name="uniFEBE" unicode="&#x636;" horiz-adv-x="2157" arabic-form="final" 
d="M901 902q19 -26 38.5 -61t36 -75.5t30 -85t21.5 -90.5q40 0 66.5 3.5t50.5 15.5t51 35t69 62q87 81 160 143.5t137.5 104.5t123.5 64t118 22q39 0 74 -10t65.5 -28t57.5 -42.5t50 -52.5q62 -77 84.5 -139.5t22.5 -118.5q0 -54 -10.5 -103.5t-24.5 -83.5t-37 -54.5
t-52.5 -32t-66 -16.5t-77.5 -9q-50 -5 -107.5 -7.5t-116.5 -3.5t-116.5 -1.5t-105.5 -0.5q-47 0 -98.5 1.5t-104.5 3.5t-105.5 4t-101.5 4q-13 -83 -32 -142.5t-42 -103t-49.5 -72.5t-55.5 -50q-28 -20 -72 -41t-96 -38t-108.5 -27.5t-110.5 -10.5q-98 0 -172.5 27.5
t-124 77t-74.5 119t-25 154.5q0 51 7 99.5t21 95.5t36 95.5t52 99.5q28 48 51.5 70t34.5 22q10 0 10 -11q0 -18 -17 -52q-20 -39 -35.5 -74.5t-26 -69t-16 -68t-5.5 -71.5q0 -60 20.5 -110t59.5 -85.5t96 -55.5t130 -20q52 0 114.5 10t122 28.5t108 45t73.5 60.5
q1 32 -4.5 73t-21 93t-43.5 116t-73 142q32 57 66 116.5t70 109.5zM1311 582q49 -3 99 -4.5t96.5 -2t88 -1t74.5 -0.5q28 0 64.5 0.5t74.5 2t75.5 3.5t66.5 5.5t47 7.5t18 10q0 10 -7 27t-20.5 37t-33 41.5t-44.5 41.5q-18 14 -36 26.5t-39.5 22t-47 15t-57.5 5.5
q-27 0 -61.5 -7.5t-83 -31.5t-115.5 -70t-159 -124v-4zM1743 1209l-215 131q11 21 25 45t29 47.5t28.5 44t23.5 34.5q22 -13 50.5 -30t57.5 -36t57 -37t50 -33q-9 -17 -22 -39t-27.5 -45t-29.5 -44.5t-27 -37.5z" />
    <glyph glyph-name="uniFEC3" unicode="&#x637;" horiz-adv-x="1420" arabic-form="initial" 
d="M0 350q-35 0 -56 3.5t-32 15.5t-14.5 35t-3.5 62q0 40 2 64.5t12 37.5t31.5 17.5t60.5 4.5h116q76 0 121 5.5t67.5 23t29 50t6.5 86.5t-8 130.5t-19.5 161.5t-24 172.5t-20.5 165.5q9 13 24.5 30.5t35 36t41.5 36.5t43 32l5 -2q10 -30 25.5 -66.5t36.5 -72t46.5 -68
t55.5 -55.5q-3 -6 -12.5 -16.5t-23 -22.5t-29.5 -25t-32 -25q6 -59 8.5 -111.5t2.5 -101.5q0 -44 -3.5 -79t-11 -66.5t-18 -61.5t-25.5 -64l8 -5q39 35 88 77.5t104 84.5q62 47 111.5 80.5t90.5 54.5t76.5 31t70.5 10q55 0 116 -33.5t113 -88.5t86 -126.5t34 -146.5
q0 -20 -4 -45t-10.5 -50.5t-15 -49t-17.5 -40.5q-12 -23 -27 -38t-31.5 -24.5t-34.5 -14.5t-36 -8q-36 -5 -82.5 -8.5t-96.5 -5.5t-100 -2.5t-95 -0.5q-59 0 -143.5 2.5t-186.5 5.5t-217.5 5.5t-237.5 2.5zM484 582q37 -3 82 -5t90.5 -3.5t89.5 -2t80 -0.5q82 0 148.5 1.5
t112.5 5.5t71 9.5t25 13.5q0 11 -29 48t-81 78q-35 28 -79 47.5t-94 19.5q-35 0 -71.5 -10t-84 -34t-110.5 -64.5t-150 -101.5v-2z" />
    <glyph glyph-name="uniFEC4" unicode="&#x637;" horiz-adv-x="1330" arabic-form="medial" 
d="M0 350q-35 0 -56 3.5t-32 15.5t-14.5 35t-3.5 62q0 40 2 64.5t12 37.5t31.5 17.5t60.5 4.5h116q76 0 121 5.5t67.5 23t29 50t6.5 86.5t-8 130.5t-19.5 161.5t-24 172.5t-20.5 165.5q9 13 24.5 30.5t35 36t41.5 36.5t43 32l5 -2q10 -30 25.5 -66.5t36.5 -72t46.5 -68
t55.5 -55.5q-3 -6 -12.5 -16.5t-23 -22.5t-29.5 -25t-32 -25q6 -59 8.5 -111.5t2.5 -101.5q0 -44 -3.5 -79t-11 -66.5t-18 -61.5t-25.5 -64l8 -5q39 35 88 77.5t104 84.5q62 47 111.5 80.5t90.5 54.5t76.5 31t70.5 10q55 0 116 -33.5t113 -88.5t86 -126.5t34 -146.5
q0 -20 -4 -45t-10.5 -50.5t-15 -49t-17.5 -40.5q-12 -23 -27 -38t-31.5 -24.5t-34.5 -14.5t-36 -8q-36 -5 -82.5 -8.5t-96.5 -5.5t-100 -2.5t-95 -0.5q-59 0 -143.5 2.5t-186.5 5.5t-217.5 5.5t-237.5 2.5zM484 582q37 -3 82 -5t90.5 -3.5t89.5 -2t80 -0.5q82 0 148.5 1.5
t112.5 5.5t71 9.5t25 13.5q0 11 -29 48t-81 78q-35 28 -79 47.5t-94 19.5q-35 0 -71.5 -10t-84 -34t-110.5 -64.5t-150 -101.5v-2z" />
    <glyph glyph-name="uniFEC2" unicode="&#x637;" horiz-adv-x="1420" arabic-form="final" 
d="M78 590h128q76 0 121 5.5t67.5 23t29 50t6.5 86.5t-8 130.5t-19.5 161.5t-24 172.5t-20.5 165.5q9 13 24.5 30.5t35 36t41.5 36.5t43 32l5 -2q10 -30 25.5 -66.5t36.5 -72t46.5 -68t55.5 -55.5q-3 -6 -12.5 -16.5t-23 -22.5t-29.5 -25t-32 -25q6 -59 8.5 -111.5
t2.5 -101.5q0 -44 -3.5 -79t-11 -66.5t-18 -61.5t-25.5 -64l8 -5q39 35 88 77.5t104 84.5q62 47 111.5 80.5t90.5 54.5t76.5 31t70.5 10q55 0 116 -33.5t113 -88.5t86 -126.5t34 -146.5q0 -20 -4 -45t-10.5 -50.5t-15 -49t-17.5 -40.5q-12 -23 -27 -38t-31.5 -24.5
t-34.5 -14.5t-36 -8q-36 -5 -82.5 -8.5t-96.5 -5.5t-100 -2.5t-95 -0.5q-39 0 -91.5 1t-109.5 2.5t-115.5 3.5t-111 3.5t-94 3t-65.5 2.5q-30 1 -51 3t-36.5 7t-28.5 14.5t-26 25.5q-24 29 -41.5 75t-26.5 115zM574 582q37 -3 82 -5t90.5 -3.5t89.5 -2t80 -0.5
q82 0 148.5 1.5t112.5 5.5t71 9.5t25 13.5q0 11 -29 48t-81 78q-35 28 -79 47.5t-94 19.5q-35 0 -71.5 -10t-84 -34t-110.5 -64.5t-150 -101.5v-2z" />
    <glyph glyph-name="uniFEC7" unicode="&#x638;" horiz-adv-x="1420" arabic-form="initial" 
d="M0 350q-35 0 -56 3.5t-32 15.5t-14.5 35t-3.5 62q0 40 2 64.5t12 37.5t31.5 17.5t60.5 4.5h116q76 0 121 5.5t67.5 23t29 50t6.5 86.5t-8 130.5t-19.5 161.5t-24 172.5t-20.5 165.5q9 13 24.5 30.5t35 36t41.5 36.5t43 32l5 -2q10 -30 25.5 -66.5t36.5 -72t46.5 -68
t55.5 -55.5q-3 -6 -12.5 -16.5t-23 -22.5t-29.5 -25t-32 -25q6 -59 8.5 -111.5t2.5 -101.5q0 -44 -3.5 -79t-11 -66.5t-18 -61.5t-25.5 -64l8 -5q39 35 88 77.5t104 84.5q62 47 111.5 80.5t90.5 54.5t76.5 31t70.5 10q55 0 116 -33.5t113 -88.5t86 -126.5t34 -146.5
q0 -20 -4 -45t-10.5 -50.5t-15 -49t-17.5 -40.5q-12 -23 -27 -38t-31.5 -24.5t-34.5 -14.5t-36 -8q-36 -5 -82.5 -8.5t-96.5 -5.5t-100 -2.5t-95 -0.5q-59 0 -143.5 2.5t-186.5 5.5t-217.5 5.5t-237.5 2.5zM484 582q37 -3 82 -5t90.5 -3.5t89.5 -2t80 -0.5q82 0 148.5 1.5
t112.5 5.5t71 9.5t25 13.5q0 11 -29 48t-81 78q-35 28 -79 47.5t-94 19.5q-35 0 -71.5 -10t-84 -34t-110.5 -64.5t-150 -101.5v-2zM970 1180l-215 131q11 21 25 45t29 47.5t28.5 44t23.5 34.5q22 -13 50.5 -30t57.5 -36t57 -37t50 -33q-9 -17 -22 -39t-27.5 -45t-29.5 -44.5
t-27 -37.5z" />
    <glyph glyph-name="uniFEC8" unicode="&#x638;" horiz-adv-x="1335" arabic-form="medial" 
d="M0 350q-35 0 -56 3.5t-32 15.5t-14.5 35t-3.5 62q0 40 2 64.5t12 37.5t31.5 17.5t60.5 4.5h116q76 0 121 5.5t67.5 23t29 50t6.5 86.5t-8 130.5t-19.5 161.5t-24 172.5t-20.5 165.5q9 13 24.5 30.5t35 36t41.5 36.5t43 32l5 -2q10 -30 25.5 -66.5t36.5 -72t46.5 -68
t55.5 -55.5q-3 -6 -12.5 -16.5t-23 -22.5t-29.5 -25t-32 -25q6 -59 8.5 -111.5t2.5 -101.5q0 -44 -3.5 -79t-11 -66.5t-18 -61.5t-25.5 -64l8 -5q39 35 88 77.5t104 84.5q62 47 111.5 80.5t90.5 54.5t76.5 31t70.5 10q55 0 116 -33.5t113 -88.5t86 -126.5t34 -146.5
q0 -20 -4 -45t-10.5 -50.5t-15 -49t-17.5 -40.5q-12 -23 -27 -38t-31.5 -24.5t-34.5 -14.5t-36 -8q-36 -5 -82.5 -8.5t-96.5 -5.5t-100 -2.5t-95 -0.5q-59 0 -143.5 2.5t-186.5 5.5t-217.5 5.5t-237.5 2.5zM484 582q37 -3 82 -5t90.5 -3.5t89.5 -2t80 -0.5q82 0 148.5 1.5
t112.5 5.5t71 9.5t25 13.5q0 11 -29 48t-81 78q-35 28 -79 47.5t-94 19.5q-35 0 -71.5 -10t-84 -34t-110.5 -64.5t-150 -101.5v-2zM970 1180l-215 131q11 21 25 45t29 47.5t28.5 44t23.5 34.5q22 -13 50.5 -30t57.5 -36t57 -37t50 -33q-9 -17 -22 -39t-27.5 -45t-29.5 -44.5
t-27 -37.5z" />
    <glyph glyph-name="uniFEC6" unicode="&#x638;" horiz-adv-x="1425" arabic-form="final" 
d="M78 590h128q76 0 121 5.5t67.5 23t29 50t6.5 86.5t-8 130.5t-19.5 161.5t-24 172.5t-20.5 165.5q9 13 24.5 30.5t35 36t41.5 36.5t43 32l5 -2q10 -30 25.5 -66.5t36.5 -72t46.5 -68t55.5 -55.5q-3 -6 -12.5 -16.5t-23 -22.5t-29.5 -25t-32 -25q6 -59 8.5 -111.5
t2.5 -101.5q0 -44 -3.5 -79t-11 -66.5t-18 -61.5t-25.5 -64l8 -5q39 35 88 77.5t104 84.5q62 47 111.5 80.5t90.5 54.5t76.5 31t70.5 10q55 0 116 -33.5t113 -88.5t86 -126.5t34 -146.5q0 -20 -4 -45t-10.5 -50.5t-15 -49t-17.5 -40.5q-12 -23 -27 -38t-31.5 -24.5
t-34.5 -14.5t-36 -8q-36 -5 -82.5 -8.5t-96.5 -5.5t-100 -2.5t-95 -0.5q-39 0 -91.5 1t-109.5 2.5t-115.5 3.5t-111 3.5t-94 3t-65.5 2.5q-30 1 -51 3t-36.5 7t-28.5 14.5t-26 25.5q-24 29 -41.5 75t-26.5 115zM574 582q37 -3 82 -5t90.5 -3.5t89.5 -2t80 -0.5
q82 0 148.5 1.5t112.5 5.5t71 9.5t25 13.5q0 11 -29 48t-81 78q-35 28 -79 47.5t-94 19.5q-35 0 -71.5 -10t-84 -34t-110.5 -64.5t-150 -101.5v-2zM1060 1180l-215 131q11 21 25 45t29 47.5t28.5 44t23.5 34.5q22 -13 50.5 -30t57.5 -36t57 -37t50 -33q-9 -17 -22 -39
t-27.5 -45t-29.5 -44.5t-27 -37.5z" />
    <glyph glyph-name="uniFECB" unicode="&#x639;" horiz-adv-x="1130" arabic-form="initial" 
d="M351 590l1 3q-35 41 -57.5 84.5t-22.5 84.5q0 58 28 121t74.5 116t108 87.5t127.5 34.5t119.5 -28t91.5 -68t58.5 -84.5t20.5 -76.5q0 -12 -3 -22t-11 -18q-24 15 -49.5 31t-53 29.5t-57.5 22t-62 8.5q-30 0 -63 -5.5t-61.5 -16t-47 -24.5t-18.5 -30q0 -22 15 -54.5
t47 -68.5q16 -18 33.5 -34t39.5 -28.5t51 -20t67 -7.5q25 0 62 4.5t80 11.5t90 15.5t91 17.5q-14 -45 -27.5 -86t-25 -72.5t-20 -52t-12.5 -23.5q-71 -12 -152 -23.5t-167 -21.5t-174 -18.5t-171.5 -14.5t-160 -9.5t-140.5 -3.5q-42 0 -62.5 5t-28.5 16q-15 21 -15 93
q0 82 14 104q7 11 28.5 16.5t63.5 5.5h351z" />
    <glyph glyph-name="uniFECC" unicode="&#x639;" horiz-adv-x="911" arabic-form="medial" 
d="M911 590v-240q-50 1 -88.5 8t-70.5 22t-59.5 39t-56.5 60q-47 -39 -106 -64.5t-129.5 -39.5t-152 -19.5t-172.5 -5.5h-75q-28 0 -46.5 2.5t-29.5 13.5t-15.5 35t-4.5 68t4 68.5t14 36t27 14t43 2.5q31 0 74 0.5t92.5 1.5t103 3.5t106.5 6.5q57 5 101.5 17t69.5 30
q-20 32 -40 57t-42 42t-47 26t-56 9t-73 -11q-4 0 -2 6q4 14 11 33.5t15.5 40.5t18 41.5t18.5 38.5q19 36 40 63t48 44.5t60.5 26t77.5 8.5q70 0 124.5 -18t92 -47t57 -64.5t19.5 -71.5q0 -26 -7.5 -57.5t-19.5 -63t-27 -61t-30 -50.5q13 -18 28.5 -28t32 -15t34.5 -6t38 -2
z" />
    <glyph glyph-name="uniFECA" unicode="&#x639;" horiz-adv-x="1050" arabic-form="final" 
d="M1050 590v-240h-71q-74 0 -134.5 8t-116 31.5t-109 65.5t-113.5 111q-81 -36 -143 -81t-104.5 -95.5t-64.5 -104t-22 -106.5q0 -60 22.5 -116t72.5 -99.5t130.5 -69.5t196.5 -26q114 0 222.5 21.5t194.5 53.5q13 4 22.5 2.5t13 -7.5t0.5 -16t-15 -24q-71 -80 -142 -132.5
t-139 -84t-131 -44.5t-118 -13q-117 0 -201.5 36t-138.5 96.5t-79.5 140.5t-25.5 167q0 90 25.5 179t71 172t109.5 156t141 132q-32 36 -63 54.5t-66 18.5q-25 0 -50 -4.5t-50 -16.5q-3 -3 -6.5 0.5t-1.5 7.5q22 49 42 86t46 78q38 63 102 97t154 34q45 0 93 -10.5t87.5 -33
t65 -58t25.5 -84.5q0 -23 -8 -51t-21 -55.5t-28.5 -51.5t-31.5 -40q33 -24 72.5 -40t81 -26t83.5 -14t80 -4h40z" />
    <glyph glyph-name="uniFECF" unicode="&#x63a;" horiz-adv-x="1130" arabic-form="initial" 
d="M351 590l1 3q-35 41 -57.5 84.5t-22.5 84.5q0 58 28 121t74.5 116t108 87.5t127.5 34.5t119.5 -28t91.5 -68t58.5 -84.5t20.5 -76.5q0 -12 -3 -22t-11 -18q-24 15 -49.5 31t-53 29.5t-57.5 22t-62 8.5q-30 0 -63 -5.5t-61.5 -16t-47 -24.5t-18.5 -30q0 -22 15 -54.5
t47 -68.5q16 -18 33.5 -34t39.5 -28.5t51 -20t67 -7.5q25 0 62 4.5t80 11.5t90 15.5t91 17.5q-14 -45 -27.5 -86t-25 -72.5t-20 -52t-12.5 -23.5q-71 -12 -152 -23.5t-167 -21.5t-174 -18.5t-171.5 -14.5t-160 -9.5t-140.5 -3.5q-42 0 -62.5 5t-28.5 16q-15 21 -15 93
q0 82 14 104q7 11 28.5 16.5t63.5 5.5h351zM629 1266l-215 131q11 21 25 45t29 47.5t28.5 44t23.5 34.5q22 -13 50.5 -30t57.5 -36t57 -37t50 -33q-9 -17 -22 -39t-27.5 -45t-29.5 -44.5t-27 -37.5z" />
    <glyph glyph-name="uniFED0" unicode="&#x63a;" horiz-adv-x="911" arabic-form="medial" 
d="M911 590v-240q-50 1 -88.5 8t-70.5 22t-59.5 39t-56.5 60q-47 -39 -106 -64.5t-129.5 -39.5t-152 -19.5t-172.5 -5.5h-75q-28 0 -46.5 2.5t-29.5 13.5t-15.5 35t-4.5 68t4 68.5t14 36t27 14t43 2.5q31 0 74 0.5t92.5 1.5t103 3.5t106.5 6.5q57 5 101.5 17t69.5 30
q-20 32 -40 57t-42 42t-47 26t-56 9t-73 -11q-4 0 -2 6q4 14 11 33.5t15.5 40.5t18 41.5t18.5 38.5q19 36 40 63t48 44.5t60.5 26t77.5 8.5q70 0 124.5 -18t92 -47t57 -64.5t19.5 -71.5q0 -26 -7.5 -57.5t-19.5 -63t-27 -61t-30 -50.5q13 -18 28.5 -28t32 -15t34.5 -6t38 -2
zM639 1255l-215 131q11 21 25 45t29 47.5t28.5 44t23.5 34.5q22 -13 50.5 -30t57.5 -36t57 -37t50 -33q-9 -17 -22 -39t-27.5 -45t-29.5 -44.5t-27 -37.5z" />
    <glyph glyph-name="uniFECE" unicode="&#x63a;" horiz-adv-x="1050" arabic-form="final" 
d="M1050 590v-240h-71q-74 0 -134.5 8t-116 31.5t-109 65.5t-113.5 111q-81 -36 -143 -81t-104.5 -95.5t-64.5 -104t-22 -106.5q0 -60 22.5 -116t72.5 -99.5t130.5 -69.5t196.5 -26q114 0 222.5 21.5t194.5 53.5q13 4 22.5 2.5t13 -7.5t0.5 -16t-15 -24q-71 -80 -142 -132.5
t-139 -84t-131 -44.5t-118 -13q-117 0 -201.5 36t-138.5 96.5t-79.5 140.5t-25.5 167q0 90 25.5 179t71 172t109.5 156t141 132q-32 36 -63 54.5t-66 18.5q-25 0 -50 -4.5t-50 -16.5q-3 -3 -6.5 0.5t-1.5 7.5q22 49 42 86t46 78q38 63 102 97t154 34q45 0 93 -10.5t87.5 -33
t65 -58t25.5 -84.5q0 -23 -8 -51t-21 -55.5t-28.5 -51.5t-31.5 -40q33 -24 72.5 -40t81 -26t83.5 -14t80 -4h40zM549 1226l-215 131q11 21 25 45t29 47.5t28.5 44t23.5 34.5q22 -13 50.5 -30t57.5 -36t57 -37t50 -33q-9 -17 -22 -39t-27.5 -45t-29.5 -44.5t-27 -37.5z" />
    <glyph glyph-name="uniFED3" unicode="&#x641;" horiz-adv-x="927" arabic-form="initial" 
d="M0 350q-31 0 -47.5 1.5t-24.5 5.5q-21 9 -27.5 37t-6.5 76q0 93 21 107q8 5 27 9t58 4q95 0 178 -4.5t153.5 -10t128.5 -10t103 -4.5q32 0 53 1t25 2v7q-97 29 -163.5 57t-107.5 57t-59 61.5t-18 71.5q0 40 13 83t35 85t51.5 79.5t62.5 66t68 45t68 16.5q34 0 63.5 -16
t53.5 -42t43 -59t31 -67q12 -35 21.5 -66.5t16 -69t10 -86t3.5 -116.5q0 -104 -14 -173.5t-43 -96.5q-25 -24 -64.5 -36.5t-83.5 -18.5t-88 -7t-79 -1q-57 0 -111 2t-109.5 4t-114.5 4t-126 2zM728 739q-15 79 -36.5 133t-45.5 87.5t-48.5 48.5t-45.5 15q-20 0 -43 -8
t-42.5 -21t-32 -29t-12.5 -32q0 -9 6 -23t35.5 -36.5t91.5 -55.5t173 -79zM562 1280l-215 131q11 21 25 45t29 47.5t28.5 44t23.5 34.5q22 -13 50.5 -30t57.5 -36t57 -37t50 -33q-9 -17 -22 -39t-27.5 -45t-29.5 -44.5t-27 -37.5z" />
    <glyph glyph-name="uniFED4" unicode="&#x641;" horiz-adv-x="963" arabic-form="medial" 
d="M0 350q-31 1 -47.5 2t-24.5 5q-21 9 -27.5 37t-6.5 76q0 93 21 107q8 5 27 9t58 4h109q34 0 66.5 -1.5t69.5 -5.5t82 -11.5t104 -20.5l2 7q-25 18 -40.5 43t-24.5 50.5t-12 50t-3 42.5q0 55 14.5 106.5t39 97t56 82.5t66 64t69.5 42t65 15q43 0 85 -31.5t75 -86
t53.5 -128t20.5 -156.5q0 -36 -4.5 -73t-15.5 -75q3 -2 13 -4t23 -3.5t26.5 -2.5t23.5 -1v-240q-17 0 -44 3.5t-59.5 10.5t-69 17t-72.5 23q-43 -18 -86 -29.5t-88.5 -17.5t-96 -8.5t-107.5 -2.5q-31 0 -72 0.5t-86.5 1t-92.5 1t-89 1.5zM748 634q25 11 32.5 30.5t7.5 35.5
q0 12 -5 35t-14.5 50t-24 55.5t-34 51.5t-44 37.5t-53.5 14.5q-20 0 -45 -9.5t-47.5 -25.5t-38 -37t-15.5 -45q0 -19 12.5 -43.5t44.5 -50.5t86.5 -51.5t137.5 -47.5zM642 1259l-215 131q11 21 25 45t29 47.5t28.5 44t23.5 34.5q22 -13 50.5 -30t57.5 -36t57 -37t50 -33
q-9 -17 -22 -39t-27.5 -45t-29.5 -44.5t-27 -37.5z" />
    <glyph glyph-name="uniFED2" unicode="&#x641;" horiz-adv-x="1471" arabic-form="final" 
d="M1279 562v10q-99 27 -166 54.5t-107.5 57.5t-57.5 63t-17 72q0 40 13 83t35 85t51.5 79.5t62.5 66t68 45t68 16.5q39 0 81.5 -27.5t78.5 -89t59 -161t23 -244.5t-25 -223.5t-74 -95.5q-21 -7 -77 -15t-131.5 -15.5t-161.5 -14t-166.5 -11.5t-147 -8t-102.5 -3
q-104 0 -196.5 11t-162.5 45.5t-111 98.5t-41 171q0 48 7 97.5t20 101.5q26 103 52 103q13 0 13 -21v-13q0 -7 -1 -17q-2 -26 -3.5 -44t-1.5 -28q0 -136 123 -200t386 -64q56 0 125.5 2t148.5 6.5t164 11t171 15.5zM1362 735q-10 77 -30 131.5t-45 89.5t-50.5 51.5
t-46.5 16.5q-20 0 -43 -8t-42.5 -21t-32 -29t-12.5 -32q0 -9 5.5 -22.5t34 -36.5t90 -57t172.5 -83zM1200 1291l-215 131q11 21 25 45t29 47.5t28.5 44t23.5 34.5q22 -13 50.5 -30t57.5 -36t57 -37t50 -33q-9 -17 -22 -39t-27.5 -45t-29.5 -44.5t-27 -37.5z" />
    <glyph glyph-name="uniFED7" unicode="&#x642;" horiz-adv-x="927" arabic-form="initial" 
d="M0 350q-31 0 -47.5 1.5t-24.5 5.5q-21 9 -27.5 37t-6.5 76q0 93 21 107q8 5 27 9t58 4q95 0 178 -4.5t153.5 -10t128.5 -10t103 -4.5q32 0 53 1t25 2v7q-97 29 -163.5 57t-107.5 57t-59 61.5t-18 71.5q0 40 13 83t35 85t51.5 79.5t62.5 66t68 45t68 16.5q34 0 63.5 -16
t53.5 -42t43 -59t31 -67q12 -35 21.5 -66.5t16 -69t10 -86t3.5 -116.5q0 -104 -14 -173.5t-43 -96.5q-25 -24 -64.5 -36.5t-83.5 -18.5t-88 -7t-79 -1q-57 0 -111 2t-109.5 4t-114.5 4t-126 2zM728 739q-15 79 -36.5 133t-45.5 87.5t-48.5 48.5t-45.5 15q-20 0 -43 -8
t-42.5 -21t-32 -29t-12.5 -32q0 -9 6 -23t35.5 -36.5t91.5 -55.5t173 -79zM439 1289l-205 124q10 19 21.5 40t23 41.5t23 39.5t22.5 34q50 -26 98.5 -56t96.5 -62l72 123q60 -32 111.5 -63t89.5 -57q-23 -40 -45 -78t-47 -74q-23 13 -48 28.5t-49.5 30.5t-47 29.5
t-40.5 26.5q-19 -33 -38 -65.5t-38 -61.5z" />
    <glyph glyph-name="uniFED8" unicode="&#x642;" horiz-adv-x="963" arabic-form="medial" 
d="M0 350q-31 1 -47.5 2t-24.5 5q-21 9 -27.5 37t-6.5 76q0 93 21 107q8 5 27 9t58 4h109q34 0 66.5 -1.5t69.5 -5.5t82 -11.5t104 -20.5l2 7q-25 18 -40.5 43t-24.5 50.5t-12 50t-3 42.5q0 55 14.5 106.5t39 97t56 82.5t66 64t69.5 42t65 15q43 0 85 -31.5t75 -86
t53.5 -128t20.5 -156.5q0 -36 -4.5 -73t-15.5 -75q3 -2 13 -4t23 -3.5t26.5 -2.5t23.5 -1v-240q-17 0 -44 3.5t-59.5 10.5t-69 17t-72.5 23q-43 -18 -86 -29.5t-88.5 -17.5t-96 -8.5t-107.5 -2.5q-31 0 -72 0.5t-86.5 1t-92.5 1t-89 1.5zM748 634q25 11 32.5 30.5t7.5 35.5
q0 12 -5 35t-14.5 50t-24 55.5t-34 51.5t-44 37.5t-53.5 14.5q-20 0 -45 -9.5t-47.5 -25.5t-38 -37t-15.5 -45q0 -19 12.5 -43.5t44.5 -50.5t86.5 -51.5t137.5 -47.5zM519 1253l-205 124q10 19 21.5 40t23 41.5t23 39.5t22.5 34q50 -26 98.5 -56t96.5 -62l72 123
q60 -32 111.5 -63t89.5 -57q-23 -40 -45 -78t-47 -74q-23 13 -48 28.5t-49.5 30.5t-47 29.5t-40.5 26.5q-19 -33 -38 -65.5t-38 -61.5z" />
    <glyph glyph-name="uniFED6" unicode="&#x642;" horiz-adv-x="1120" arabic-form="final" 
d="M1003 348q-17 -3 -45.5 -5t-51.5 -2q-98 0 -162 21.5t-102 57t-53.5 81t-15.5 94.5q0 48 11 98t31 96.5t47 87t59 71t66.5 48t70.5 17.5q43 0 89.5 -39t84.5 -114t63 -185.5t25 -253.5q0 -57 -7.5 -111t-18.5 -99t-23.5 -78.5t-22.5 -49.5q-42 -60 -107.5 -112.5
t-144 -91.5t-164.5 -62t-169 -23q-84 0 -155 25.5t-123.5 73.5t-82 117t-29.5 156q0 43 7.5 96t21.5 109.5t33.5 113t44.5 106.5q24 48 41.5 68.5t26.5 20.5q11 0 11 -15q0 -10 -3 -22.5t-7 -23.5q-32 -88 -49 -171t-17 -141q0 -69 23 -118.5t61.5 -81.5t89.5 -47t108 -15
q80 0 152 15.5t132.5 39.5t109 54t82 58.5t51.5 53t18 37.5q0 6 -2 19.5t-5 25.5zM994 581q-11 45 -31 84t-44.5 68.5t-52 46.5t-54.5 17q-26 0 -47.5 -9.5t-37.5 -24t-24.5 -31.5t-8.5 -32q0 -33 26 -55.5t68 -36.5t96 -20.5t110 -6.5zM706 1140l-205 124q10 19 21.5 40
t23 41.5t23 39.5t22.5 34q50 -26 98.5 -56t96.5 -62l72 123q60 -32 111.5 -63t89.5 -57q-23 -40 -45 -78t-47 -74q-23 13 -48 28.5t-49.5 30.5t-47 29.5t-40.5 26.5q-19 -33 -38 -65.5t-38 -61.5z" />
    <glyph glyph-name="uniFEDB" unicode="&#x643;" horiz-adv-x="1041" arabic-form="initial" 
d="M326 877l-36 -59q-60 49 -93 78.5t-49 49t-19.5 34t-3.5 35.5q0 15 4.5 36t11.5 41.5t16.5 37t20.5 22.5q43 23 122.5 61t182 84.5t220.5 98.5t238 103q-13 -54 -31.5 -111t-43.5 -123q-62 -23 -131 -48t-136 -50.5t-128 -49.5t-106 -44v-7q59 -44 132 -101t148.5 -117
t148 -118.5t130.5 -106.5l-5 -89q-2 -41 -9 -69t-15.5 -46t-17.5 -27.5t-15 -13.5q-17 -11 -45 -19t-69 -12.5t-96 -6.5t-126 -2q-45 0 -96 0.5t-102.5 2t-101.5 2.5t-93 2.5t-77.5 2.5t-54.5 2q-31 2 -48 2.5t-25 4.5q-21 9 -27.5 37t-6.5 76q0 93 21 107q8 5 27.5 9
t58.5 4q37 0 92.5 -2.5t118 -5.5t125 -5.5t114.5 -2.5q64 0 126 2t119 8v8q-17 16 -44.5 39t-60.5 49.5t-69.5 54.5t-72 54.5t-67.5 49t-56 38.5z" />
    <glyph glyph-name="uniFEDC" unicode="&#x643;" horiz-adv-x="1017" arabic-form="medial" 
d="M-106 470q0 93 21 107q8 5 27.5 9t58.5 4q37 0 92.5 -2.5t118 -5.5t125 -5.5t114.5 -2.5q64 0 118.5 2t111.5 8v8q-15 16 -41 39t-57.5 49.5t-67 54.5t-70 54.5t-65.5 49t-54 38.5l-36 -59q-60 49 -93 78.5t-49 49t-19.5 34t-3.5 35.5q0 15 4.5 36t11.5 41.5t16.5 37
t20.5 22.5q43 23 126 62t190 87t228.5 101t241.5 104q-13 -54 -31.5 -111t-43.5 -123q-62 -23 -134.5 -49t-144 -52.5t-136 -52t-109.5 -45.5v-7q48 -36 111.5 -87t132.5 -108t139.5 -115t133.5 -109q35 -28 67.5 -42.5t67.5 -14.5v-240q-29 0 -47 1t-33 6t-31.5 14.5
t-41.5 27.5q-26 -17 -55.5 -28.5t-68.5 -18.5t-91 -10.5t-123 -3.5q-45 0 -96 0.5t-102.5 2t-101.5 2.5t-93 2.5t-77.5 2.5t-54.5 2q-31 2 -48 2.5t-25 4.5q-21 9 -27.5 37t-6.5 76z" />
    <glyph glyph-name="uniFEDA" unicode="&#x643;" horiz-adv-x="1028" arabic-form="final" 
d="M793 1343q21 18 46 38t51 39.5t50.5 37t43.5 29.5q3 -66 8 -150t10 -177.5t9.5 -192t8 -193t6 -180.5t2.5 -155q0 -48 -29 -68q-38 -25 -134 -42t-265 -17q-109 0 -204 4t-165.5 27t-111.5 74t-41 144q0 121 72 243q40 69 60 69q12 0 12 -16q0 -7 -2 -16t-4 -19
q-23 -94 -23 -139q0 -33 17.5 -55.5t46 -37t64.5 -22.5t72.5 -12t70.5 -4.5t58 -0.5q25 0 60.5 0.5t74.5 2.5t77.5 6t69 12t49.5 19.5t19 29.5q0 30 -5 84.5t-13 122t-17.5 142t-18.5 145t-15.5 130.5t-9.5 98zM360 794v3l206 105v7q-12 -1 -21 -1h-14q-58 0 -83.5 12
t-25.5 41q0 34 25 77.5t70 87.5q49 48 66 48q11 0 11 -12q0 -5 -9 -18q-25 -35 -40.5 -66t-15.5 -48q0 -19 37 -19q31 0 51 -1t32 -5t16.5 -10.5t4.5 -17.5q0 -15 -8.5 -36t-21 -42.5t-27 -40t-27.5 -28.5q-22 -18 -67.5 -28t-123.5 -10q-8 0 -17 0.5t-18 1.5z" />
    <glyph glyph-name="uniFEDF" unicode="&#x644;" horiz-adv-x="595" arabic-form="initial" 
d="M344 587q0 44 -9.5 148.5t-28.5 274.5q-11 105 -18.5 185t-9.5 135q38 44 84 87.5t95 82.5q2 -63 6 -141t8.5 -164t10 -176t9.5 -177.5t6.5 -168.5t2.5 -148q0 -127 -20 -155q-7 -10 -24.5 -16t-41 -9t-50.5 -4t-52 -1q-26 0 -72 1t-94.5 2.5t-89 3.5t-55.5 3
q-31 2 -48 3.5t-25 5.5q-21 9 -27.5 36t-6.5 75t5.5 73.5t15.5 33.5q9 7 29.5 10t56.5 3q7 -1 28 -2.5t50.5 -3t66 -2.5t74.5 -1q32 0 62.5 1t61.5 5z" />
    <glyph glyph-name="uniFEE0" unicode="&#x644;" horiz-adv-x="500" arabic-form="medial" 
d="M344 587q0 44 -9.5 148.5t-28.5 274.5q-11 105 -18.5 185t-9.5 135q38 44 84 87.5t95 82.5q2 -63 6 -141t8.5 -164t10 -176t9.5 -177.5t6.5 -168.5t2.5 -148q0 -127 -20 -155q-7 -10 -24.5 -16t-41 -9t-50.5 -4t-52 -1q-26 0 -72 1t-94.5 2.5t-89 3.5t-55.5 3
q-31 2 -48 3.5t-25 5.5q-21 9 -27.5 36t-6.5 75t5.5 73.5t15.5 33.5q9 7 29.5 10t56.5 3q7 -1 28 -2.5t50.5 -3t66 -2.5t74.5 -1q32 0 62.5 1t61.5 5z" />
    <glyph glyph-name="uniFEDE" unicode="&#x644;" horiz-adv-x="912" arabic-form="final" 
d="M867 1500q4 -77 9.5 -168.5t10.5 -188t9.5 -194.5t8 -189.5t5.5 -171.5t2 -140q0 -131 -29 -201q-28 -68 -113 -136q-155 -125 -369 -125q-159 0 -245 88.5t-86 250.5q0 36 7 84t20.5 99t32.5 100t43 86l6 9t9.5 12t10.5 10.5t8 4.5q11 0 11 -14q0 -10 -4 -22
q-40 -123 -40 -223q0 -245 250 -245q44 0 94 7t97 22t87.5 38.5t65.5 57.5q0 44 -4 112.5t-10.5 151.5t-14.5 177t-16.5 190t-16 189.5t-12.5 175.5q31 38 73.5 76.5t99.5 76.5z" />
    <glyph glyph-name="uniFEE3" unicode="&#x645;" horiz-adv-x="1065" arabic-form="initial" 
d="M1 590h67q87 0 142 4t92.5 20.5t63.5 48.5t55 89q25 50 52 94.5t58.5 77.5t69.5 52.5t86 19.5q52 0 94 -28t75 -72.5t57.5 -100.5t40.5 -112.5t23.5 -108t7.5 -86.5q0 -87 -39.5 -131t-131.5 -44q-38 0 -93.5 8t-115.5 26t-117 46.5t-98 69.5q-29 -42 -58.5 -65
t-63.5 -33.5t-74.5 -12.5t-91.5 -2h-101q-31 0 -48 1.5t-25 5.5q-21 9 -27.5 37t-6.5 76q0 93 21 107q8 5 27.5 9t58.5 4zM502 673q40 -39 90 -63.5t97.5 -38.5t88 -19t63.5 -5q6 0 6 6t-5 25.5t-15.5 45.5t-26.5 54.5t-38 52.5t-49.5 39.5t-61.5 15.5q-19 0 -39.5 -8.5
t-40.5 -24t-38 -36t-31 -44.5z" />
    <glyph glyph-name="uniFEE4" unicode="&#x645;" horiz-adv-x="985" arabic-form="medial" 
d="M1 590h67q87 0 142 4t92.5 20.5t63.5 48.5t55 89q25 50 52 94.5t58.5 77.5t69.5 52.5t86 19.5q52 0 94 -28t75 -72.5t57.5 -100.5t40.5 -112.5t23.5 -108t7.5 -86.5q0 -87 -39.5 -131t-131.5 -44q-38 0 -93.5 8t-115.5 26t-117 46.5t-98 69.5q-29 -42 -58.5 -65
t-63.5 -33.5t-74.5 -12.5t-91.5 -2h-101q-31 0 -48 1.5t-25 5.5q-21 9 -27.5 37t-6.5 76q0 93 21 107q8 5 27.5 9t58.5 4zM502 673q40 -39 90 -63.5t97.5 -38.5t88 -19t63.5 -5q6 0 6 6t-5 25.5t-15.5 45.5t-26.5 54.5t-38 52.5t-49.5 39.5t-61.5 15.5q-19 0 -39.5 -8.5
t-40.5 -24t-38 -36t-31 -44.5z" />
    <glyph glyph-name="uniFEE2" unicode="&#x645;" horiz-adv-x="887" arabic-form="final" 
d="M245 -387q-2 35 -10.5 82.5t-21 103t-28 115t-30.5 118.5q-14 54 -27.5 105.5t-23.5 96t-16 80t-6 57.5q0 18 4.5 37t11 37.5t14.5 35t14 29.5q14 28 29 44.5t33.5 24.5t43.5 10.5t60 2.5q27 0 68 -2t83.5 -5t79 -5t54.5 -2v6q-22 28 -45 58.5t-46 56t-45.5 41.5
t-42.5 16q-12 0 -28.5 -3.5t-42.5 -17t-63 -41t-89 -75.5q-6 -6 -14.5 -5.5t-8.5 9.5q0 11 10.5 39.5t24 60t26.5 58t18 34.5q26 37 56.5 68.5t63 54.5t64.5 36.5t60 13.5q30 0 56.5 -14t51.5 -37t48 -54t46 -64q15 -22 32.5 -49t34.5 -53.5t32.5 -49.5t28.5 -37
q23 -26 48 -32.5t54 -7.5q-21 -85 -40.5 -133t-36.5 -72t-31.5 -29.5t-25.5 -5.5q-114 0 -200.5 2.5t-149.5 4.5q-42 2 -72 3t-50 1q-12 0 -23.5 -0.5t-21.5 -3t-16 -7t-6 -13.5q0 -11 10 -52.5t24 -98.5q10 -43 21.5 -90.5t20.5 -92.5t15 -84t6 -66q0 -75 -24 -137.5
t-58 -103.5z" />
    <glyph glyph-name="uniFEE7" unicode="&#x646;" horiz-adv-x="705" arabic-form="initial" 
d="M460 1029q50 -55 82 -120t50.5 -134.5t25.5 -140.5t7 -137q0 -48 -8 -79.5t-28 -49.5t-53.5 -25t-83.5 -7q-60 0 -129.5 2t-133.5 4.5t-115 5t-74 2.5q-26 1 -45 3t-27 6q-21 9 -27.5 36t-6.5 75t5.5 73.5t15.5 33.5q17 13 85 13q13 0 37.5 -1t54.5 -2t62 -3t61.5 -3
t53 -2t35.5 -1q43 0 81 2t71 7q0 22 -10 50t-26.5 58t-38.5 59.5t-46 54.5q48 98 125 220zM341 1156l-215 131q11 21 25 45t29 47.5t28.5 44t23.5 34.5q22 -13 50.5 -30t57.5 -36t57 -37t50 -33q-9 -17 -22 -39t-27.5 -45t-29.5 -44.5t-27 -37.5z" />
    <glyph glyph-name="uniFEE8" unicode="&#x646;" horiz-adv-x="625" arabic-form="medial" 
d="M460 1029q50 -55 82 -120t50.5 -134.5t25.5 -140.5t7 -137q0 -48 -8 -79.5t-28 -49.5t-53.5 -25t-83.5 -7q-60 0 -129.5 2t-133.5 4.5t-115 5t-74 2.5q-26 1 -45 3t-27 6q-21 9 -27.5 36t-6.5 75t5.5 73.5t15.5 33.5q17 13 85 13q13 0 37.5 -1t54.5 -2t62 -3t61.5 -3
t53 -2t35.5 -1q43 0 81 2t71 7q0 22 -10 50t-26.5 58t-38.5 59.5t-46 54.5q48 98 125 220zM341 1156l-215 131q11 21 25 45t29 47.5t28.5 44t23.5 34.5q22 -13 50.5 -30t57.5 -36t57 -37t50 -33q-9 -17 -22 -39t-27.5 -45t-29.5 -44.5t-27 -37.5z" />
    <glyph glyph-name="uniFEE6" unicode="&#x646;" horiz-adv-x="1075" arabic-form="final" 
d="M924 917q75 -92 113 -215t38 -258q0 -71 -9 -130.5t-24 -108t-34.5 -85.5t-41.5 -64q-32 -39 -88 -75.5t-123.5 -65t-140 -46t-136.5 -17.5q-100 0 -177 27t-129.5 77t-79.5 122.5t-27 163.5q0 53 9.5 108t26.5 108t40.5 101t51.5 87q24 35 43 51.5t30 16.5q9 0 9 -11
q0 -7 -7.5 -28.5t-26.5 -58.5q-14 -26 -25.5 -58t-20.5 -66t-14 -67t-5 -59q0 -64 22 -113.5t62.5 -83t97 -51t125.5 -17.5q61 0 124 10.5t123 31t114.5 51.5t98.5 73q0 48 -7.5 102t-25.5 108.5t-48.5 108.5t-75.5 104q38 68 72.5 124.5t65.5 102.5zM651 978l-228 139
q11 22 26 47t31 50t30.5 47t24.5 37q24 -14 53.5 -32.5t60.5 -38.5t61 -39t53 -34q-9 -19 -23 -42.5t-29.5 -47.5t-31 -46.5t-28.5 -39.5z" />
    <glyph glyph-name="uniFEE9" unicode="&#x647;" horiz-adv-x="1164" arabic-form="isolated" 
d="M189 589q18 -1 32.5 -1.5t31.5 -2.5q-2 10 -2.5 19t-0.5 23q0 44 11 93.5t34 100t59.5 100.5t86.5 96q-3 5 -7.5 19t-4.5 28q0 28 14.5 58t36 59t46.5 54.5t46 45.5l3 -2q1 -32 21.5 -64t51 -63t67.5 -59.5t71 -53.5q97 -71 156 -130.5t90.5 -113.5t41.5 -104.5
t10 -102.5q0 -59 -18 -114t-41 -98t-46.5 -68.5t-33.5 -25.5q-12 0 -59 11t-113.5 27t-144.5 33.5t-151 31.5q-62 -12 -126 -19t-125 -11t-114 -5t-92 -1q36 61 79 122t90 118zM367 746q0 -17 10 -37t29.5 -40t48 -37t65.5 -27q27 7 52 18.5t43.5 27.5t30 37t11.5 47
t-5.5 54.5t-16.5 52t-29.5 38.5t-43.5 15q-24 0 -57.5 -11t-64 -30.5t-52 -47t-21.5 -60.5zM684 569q13 -4 36 -10.5t50.5 -13.5t57 -14.5t55 -13.5t44.5 -9.5t25 -3.5q5 0 7.5 6.5t2.5 14.5q0 21 -7 49.5t-28 63t-59.5 75t-100.5 85.5q-3 -62 -24.5 -120t-58.5 -109z" />
    <glyph glyph-name="uniFEEB" unicode="&#x647;" horiz-adv-x="1233" arabic-form="initial" 
d="M-106 466q0 40 2 64.5t12 37.5t31.5 17.5t60.5 4.5q17 0 53 -0.5t81 -1.5t94.5 -2.5t94.5 -3.5q-2 10 -3 20.5t-1 24.5q0 44 11 93.5t34 100t59.5 100.5t86.5 96q-3 5 -7.5 19t-4.5 28q0 28 14.5 58t36 59t46.5 54.5t46 45.5l3 -2q1 -32 21.5 -64t51 -63t67.5 -59.5
t71 -53.5q97 -71 156 -130.5t90.5 -113.5t41.5 -104.5t10 -102.5q0 -59 -18 -114t-41 -98t-46.5 -68.5t-33.5 -25.5q-12 0 -59 11t-113.5 27t-144.5 33.5t-151 31.5q-39 -8 -96.5 -14.5t-114 -11.5t-102.5 -7.5t-64 -2.5h-49h-49q-23 0 -42 0.5t-29 0.5q-35 1 -56 4.5
t-32 15t-14.5 34.5t-3.5 62zM436 746q0 -17 10 -37t29.5 -40t48 -37t65.5 -27q27 7 52 18.5t43.5 27.5t30 37t11.5 47t-5.5 54.5t-16.5 52t-29.5 38.5t-43.5 15q-24 0 -57.5 -11t-64 -30.5t-52 -47t-21.5 -60.5zM753 569q13 -4 36 -10.5t50.5 -13.5t57 -14.5t55 -13.5
t44.5 -9.5t25 -3.5q5 0 7.5 6.5t2.5 14.5q0 21 -7 49.5t-28 63t-59.5 75t-100.5 85.5q-3 -62 -24.5 -120t-58.5 -109z" />
    <glyph glyph-name="uniFEEC" unicode="&#x647;" horiz-adv-x="966" arabic-form="medial" 
d="M966 350q-22 0 -46 1.5t-68 6.5q11 -19 19.5 -46t8.5 -78q0 -20 -4.5 -52t-14.5 -68.5t-26.5 -73t-41 -66.5t-57.5 -48.5t-76 -18.5q-32 0 -71.5 9.5t-80.5 30.5t-79.5 54t-68.5 80t-48.5 109t-18.5 141v14q0 5 1 12q-32 -2 -73.5 -3.5t-83 -2.5t-78.5 -1h-59
q-26 0 -45 2.5t-27 6.5q-21 9 -27.5 36t-6.5 75t5.5 73.5t15.5 33.5q17 13 85 13h320q38 115 93.5 213.5t111 171t102.5 113.5t70 41t49.5 -30t49.5 -75.5t38 -100.5t15 -104q0 -31 -5 -64t-13 -64.5t-18.5 -60t-22.5 -49.5l3 -4q47 9 86 11t87 2v-240zM397 362
q2 -46 33 -90.5t75.5 -79t95.5 -55.5t94 -21q36 0 52 10.5t16 34.5q0 6 -3.5 23.5t-13.5 40.5t-28.5 48t-49 45.5t-75 34t-105.5 13.5q-19 0 -43.5 -1t-47.5 -3zM427 591q42 1 86.5 3.5t84 8t71 15t48.5 26.5q14 15 17.5 23.5t3.5 22.5q0 44 -10.5 78t-24.5 57t-28 34.5
t-21 11.5q-14 0 -41 -20.5t-59.5 -57.5t-66 -88.5t-60.5 -113.5z" />
    <glyph glyph-name="uniFEEA" unicode="&#x647;" horiz-adv-x="836" arabic-form="final" 
d="M673 1235q1 -33 2 -76.5t2 -92t2.5 -100.5t4.5 -101t7 -93t11 -78q11 -51 44 -77.5t90 -26.5v-240h-22q-47 0 -87.5 8.5t-72.5 30t-54 58t-31 92.5l-73 -97q-3 -3 -19.5 -6t-39 -6t-48 -4.5t-46.5 -1.5q-71 0 -121 14t-81.5 37.5t-46 53t-14.5 59.5q0 12 7 38.5t20 60
t31.5 71t41.5 70.5q24 34 51.5 62.5t66.5 56t92.5 56t128.5 64.5l-3 59q36 31 73.5 59t79.5 52zM532 895q-77 -29 -129.5 -54t-84.5 -47t-46 -41.5t-14 -38.5q0 -7 5 -17t22.5 -19.5t51.5 -16t92 -6.5q11 0 29.5 1.5t37.5 4t34.5 5t20.5 5.5q-5 54 -11 113.5t-8 110.5z" />
    <glyph glyph-name="uniFEEE" unicode="&#x648;" horiz-adv-x="897" arabic-form="final" 
d="M758 328q-80 3 -148.5 13t-118.5 37t-78 76t-28 130t23 153.5t59.5 128t82 88t90.5 32.5q37 0 71 -22t62.5 -60t51.5 -87.5t39 -105t24.5 -112.5t8.5 -110q0 -81 -16 -163t-45.5 -158t-71.5 -142.5t-94.5 -116t-113.5 -78t-128 -28.5q-57 0 -117 28t-116 71t-104.5 93
t-82.5 95q-4 5 -6 8.5t-2 8.5q0 9 9 9q7 0 22 -7q33 -16 72 -30.5t77.5 -25t73.5 -17t61 -6.5q69 0 136 21t126 60t106 94t75 123zM770 570q-9 41 -27.5 78.5t-42 65.5t-50.5 44.5t-54 16.5q-17 0 -34 -9.5t-30.5 -24t-22 -31.5t-8.5 -32q0 -21 17.5 -40.5t51.5 -34.5
t84 -24t116 -9z" />
    <glyph glyph-name="uniFBE8" unicode="&#x649;" horiz-adv-x="705" arabic-form="initial" 
d="M460 1029q50 -55 82 -120t50.5 -134.5t25.5 -140.5t7 -137q0 -48 -8 -79.5t-28 -49.5t-53.5 -25t-83.5 -7q-60 0 -129.5 2t-133.5 4.5t-115 5t-74 2.5q-26 1 -45 3t-27 6q-21 9 -27.5 36t-6.5 75t5.5 73.5t15.5 33.5q17 13 85 13q13 0 37.5 -1t54.5 -2t62 -3t61.5 -3
t53 -2t35.5 -1q43 0 81 2t71 7q0 22 -10 50t-26.5 58t-38.5 59.5t-46 54.5q48 98 125 220z" />
    <glyph glyph-name="uniFBE9" unicode="&#x649;" horiz-adv-x="625" arabic-form="medial" 
d="M460 1029q50 -55 82 -120t50.5 -134.5t25.5 -140.5t7 -137q0 -48 -8 -79.5t-28 -49.5t-53.5 -25t-83.5 -7q-60 0 -129.5 2t-133.5 4.5t-115 5t-74 2.5q-26 1 -45 3t-27 6q-21 9 -27.5 36t-6.5 75t5.5 73.5t15.5 33.5q17 13 85 13q13 0 37.5 -1t54.5 -2t62 -3t61.5 -3
t53 -2t35.5 -1q43 0 81 2t71 7q0 22 -10 50t-26.5 58t-38.5 59.5t-46 54.5q48 98 125 220z" />
    <glyph glyph-name="uniFEF0" unicode="&#x649;" horiz-adv-x="1174" arabic-form="final" 
d="M1174 590v-240q-24 0 -51.5 1t-54.5 2.5t-51 3t-41 1.5q-39 0 -69.5 -5t-51.5 -12t-32 -15t-11 -14q0 -5 8 -10t22 -10.5t32.5 -10.5t39.5 -10q43 -11 78 -21.5t60.5 -24t39.5 -32t14 -45.5t-5 -56.5t-15 -56.5t-23.5 -49t-29.5 -35q-54 -43 -124.5 -80t-148 -64
t-157 -42t-151.5 -15q-71 0 -137.5 21t-117.5 65t-82 113t-31 165q0 42 8.5 99.5t30.5 119t58.5 122.5t92.5 112q29 26 44 26q6 0 6 -8q0 -9 -6 -24.5t-23 -38.5q-31 -43 -52 -87.5t-34 -85t-18.5 -75t-5.5 -56.5q0 -53 19.5 -98t60.5 -79t104 -53t150 -19q50 0 110 11
t118.5 26.5t110 33.5t84.5 33v5q-31 9 -66.5 18.5t-68.5 18.5t-60 17.5t-42 15.5q-32 14 -49.5 31.5t-17.5 49.5q0 14 8 43t23.5 64.5t38 73t52.5 68.5q48 50 123.5 81t173.5 31h117z" />
    <glyph glyph-name="uniFEF3" unicode="&#x64a;" horiz-adv-x="705" arabic-form="initial" 
d="M460 1029q50 -55 82 -120t50.5 -134.5t25.5 -140.5t7 -137q0 -48 -8 -79.5t-28 -49.5t-53.5 -25t-83.5 -7q-60 0 -129.5 2t-133.5 4.5t-115 5t-74 2.5q-26 1 -45 3t-27 6q-21 9 -27.5 36t-6.5 75t5.5 73.5t15.5 33.5q17 13 85 13q13 0 37.5 -1t54.5 -2t62 -3t61.5 -3
t53 -2t35.5 -1q43 0 81 2t71 7q0 22 -10 50t-26.5 58t-38.5 59.5t-46 54.5q48 98 125 220zM251 -153l-205 124q10 19 21.5 40t23 41.5t23 39.5t22.5 34q50 -26 98.5 -56t96.5 -62l72 123q60 -32 111.5 -63t89.5 -57q-23 -40 -45 -78t-47 -74q-23 13 -48 28.5t-49.5 30.5
t-47 29.5t-40.5 26.5q-19 -33 -38 -65.5t-38 -61.5z" />
    <glyph glyph-name="uniFEF4" unicode="&#x64a;" horiz-adv-x="625" arabic-form="medial" 
d="M460 1029q50 -55 82 -120t50.5 -134.5t25.5 -140.5t7 -137q0 -48 -8 -79.5t-28 -49.5t-53.5 -25t-83.5 -7q-60 0 -129.5 2t-133.5 4.5t-115 5t-74 2.5q-26 1 -45 3t-27 6q-21 9 -27.5 36t-6.5 75t5.5 73.5t15.5 33.5q17 13 85 13q13 0 37.5 -1t54.5 -2t62 -3t61.5 -3
t53 -2t35.5 -1q43 0 81 2t71 7q0 22 -10 50t-26.5 58t-38.5 59.5t-46 54.5q48 98 125 220zM251 -153l-205 124q10 19 21.5 40t23 41.5t23 39.5t22.5 34q50 -26 98.5 -56t96.5 -62l72 123q60 -32 111.5 -63t89.5 -57q-23 -40 -45 -78t-47 -74q-23 13 -48 28.5t-49.5 30.5
t-47 29.5t-40.5 26.5q-19 -33 -38 -65.5t-38 -61.5z" />
    <glyph glyph-name="uniFEF2" unicode="&#x64a;" horiz-adv-x="1174" arabic-form="final" 
d="M1174 590v-240q-24 0 -51.5 1t-54.5 2.5t-51 3t-41 1.5q-39 0 -69.5 -5t-51.5 -12t-32 -15t-11 -14q0 -5 8 -10t22 -10.5t32.5 -10.5t39.5 -10q43 -11 78 -21.5t60.5 -24t39.5 -32t14 -45.5t-5 -56.5t-15 -56.5t-23.5 -49t-29.5 -35q-54 -43 -124.5 -80t-148 -64
t-157 -42t-151.5 -15q-71 0 -137.5 21t-117.5 65t-82 113t-31 165q0 42 8.5 99.5t30.5 119t58.5 122.5t92.5 112q29 26 44 26q6 0 6 -8q0 -9 -6 -24.5t-23 -38.5q-31 -43 -52 -87.5t-34 -85t-18.5 -75t-5.5 -56.5q0 -53 19.5 -98t60.5 -79t104 -53t150 -19q50 0 110 11
t118.5 26.5t110 33.5t84.5 33v5q-31 9 -66.5 18.5t-68.5 18.5t-60 17.5t-42 15.5q-32 14 -49.5 31.5t-17.5 49.5q0 14 8 43t23.5 64.5t38 73t52.5 68.5q48 50 123.5 81t173.5 31h117zM420 -627l-205 124q10 19 21.5 40t23 41.5t23 39.5t22.5 34q50 -26 98.5 -56t96.5 -62
l72 123q60 -32 111.5 -63t89.5 -57q-23 -40 -45 -78t-47 -74q-23 13 -48 28.5t-49.5 30.5t-47 29.5t-40.5 26.5q-19 -33 -38 -65.5t-38 -61.5z" />
    <glyph glyph-name="uniFB51" unicode="&#x671;" horiz-adv-x="471" arabic-form="final" 
d="M471 590v-240h-123q-135 0 -177 76q-14 27 -28 151q-7 63 -18.5 195.5t-26.5 340.5l-17 236q54 51 100.5 88t83.5 63q8 -197 14 -341.5t9.5 -240.5t6 -147t2.5 -61q1 -34 5 -57t12.5 -37t21.5 -20t33 -6h102zM124 1695q11 -5 26.5 -8.5t32 -6.5t32.5 -4.5t30 -1.5
q17 0 33 1.5t29 4.5t20.5 7.5t7.5 10.5t-4.5 18t-14.5 24t-26 21t-40 9q-34 0 -63.5 -20.5t-62.5 -54.5zM-71 1556q3 48 14.5 80t27 51.5t32.5 28t32 8.5q10 0 18.5 -2t16.5 -5q40 49 69.5 78.5t53.5 46t43.5 22t39.5 5.5q19 0 39.5 -9t37.5 -28t28 -49t11 -72
q0 -37 -7.5 -64.5t-26 -46t-49.5 -27.5t-78 -9q-40 0 -72.5 6t-58 12.5t-44.5 12.5t-32 6q-18 0 -40.5 -10.5t-51.5 -35.5z" />
    <glyph glyph-name="uni0672.fina" unicode="&#x672;" horiz-adv-x="471" 
d="M471 590v-240h-123q-135 0 -177 76q-14 27 -28 151q-7 63 -18.5 195.5t-26.5 340.5l-17 236q54 51 100.5 88t83.5 63q8 -197 14 -341.5t9.5 -240.5t6 -147t2.5 -61q1 -34 5 -57t12.5 -37t21.5 -20t33 -6h102zM342 1757q-8 -40 -15 -73t-13 -52q-54 -16 -89 -31.5
t-57.5 -30t-35.5 -27t-24 -21.5t-23 -14.5t-32 -5.5q-15 0 -29.5 3.5t-28.5 3.5q-9 0 -19 -2t-22 -9t-26.5 -21t-32.5 -37l-3 1q-1 9 -1 13v9q0 46 9.5 78t24 52.5t32 30t34.5 9.5q18 0 41 -8t49 -8q15 0 25 6q-45 23 -69.5 49.5t-24.5 66.5q0 29 18 59t45.5 54t60.5 39
t63 15t54 -16t24 -49q0 -17 -7.5 -33t-30.5 -26q-22 19 -37 25.5t-38 6.5q-27 0 -44.5 -10t-17.5 -24q0 -11 10 -23.5t25 -23.5t32.5 -18t32.5 -7q20 0 54.5 15.5t85.5 33.5z" />
    <glyph glyph-name="uni0673.fina" unicode="&#x673;" horiz-adv-x="502" 
d="M502 590v-240h-154q-135 0 -177 76q-14 27 -28 151q-7 63 -18.5 195.5t-26.5 340.5l-17 236q54 51 100.5 88t83.5 63q8 -197 14 -341.5t9.5 -240.5t6 -147t2.5 -61q1 -34 5 -57t12.5 -37t21.5 -20t33 -6h133zM484 125q-8 -40 -15 -73t-13 -52q-54 -16 -89 -31.5
t-57.5 -30t-35.5 -27t-24 -21.5t-23 -14.5t-32 -5.5q-15 0 -29.5 3.5t-28.5 3.5q-9 0 -19 -2t-22 -9t-26.5 -21t-32.5 -37l-3 1q-1 9 -1 13v9q0 46 9.5 78t24 52.5t32 30t34.5 9.5q18 0 41 -8t49 -8q15 0 25 6q-45 23 -69.5 49.5t-24.5 66.5q0 29 18 59t45.5 54t60.5 39
t63 15t54 -16t24 -49q0 -17 -7.5 -33t-30.5 -26q-22 19 -37 25.5t-38 6.5q-27 0 -44.5 -10t-17.5 -24q0 -11 10 -23.5t25 -23.5t32.5 -18t32.5 -7q20 0 54.5 15.5t85.5 33.5z" />
    <glyph glyph-name="uni0675.fina" unicode="&#x675;" horiz-adv-x="712" 
d="M712 590v-240h-364q-135 0 -177 76q-14 27 -28 151q-7 63 -18.5 195.5t-26.5 340.5l-17 236q54 51 100.5 88t83.5 63q8 -197 14 -341.5t9.5 -240.5t6 -147t2.5 -61q1 -34 5 -57t12.5 -37t21.5 -20t33 -6h343zM718 1580q-9 -40 -19.5 -74.5t-17.5 -52.5q-67 -20 -116 -35
t-86.5 -31t-66.5 -34.5t-56 -46.5q-1 13 -2 25.5t-1 23.5q0 32 10 58t34 41q-27 20 -42 42.5t-15 53.5t17 63.5t45.5 59.5t66.5 44t80 17q35 0 61.5 -16.5t26.5 -48.5q0 -21 -12 -39t-36 -29q-21 20 -46 32.5t-43 12.5q-28 0 -44 -13t-16 -26q0 -16 10 -31t25 -26t32 -18
t32 -7q10 0 28.5 4.5t42 12.5t51.5 17.5t57 20.5z" />
    <glyph glyph-name="uni0676.fina" unicode="&#x676;" horiz-adv-x="1131" 
d="M1131 590v-240h-246q-18 -105 -59 -203.5t-100.5 -175t-135 -122.5t-162.5 -46q-57 0 -117 28t-116 71t-104.5 93t-82.5 95q-4 5 -6 8.5t-2 8.5q0 9 9 9q7 0 22 -7q33 -16 72 -30.5t77.5 -25t73.5 -17t61 -6.5q69 0 136 21t126 60t106 94t75 123q-80 3 -148.5 13
t-118.5 37t-78 76t-28 130t23 153.5t59.5 128t82 88t90.5 32.5q48 0 89 -35t73.5 -91.5t54.5 -127t32 -142.5h242zM770 570q-9 41 -27.5 78.5t-42 65.5t-50.5 44.5t-54 16.5q-17 0 -34 -9.5t-30.5 -24t-22 -31.5t-8.5 -32q0 -21 17.5 -40.5t51.5 -34.5t84 -24t116 -9z
M1131 1358q-9 -40 -19.5 -74.5t-17.5 -52.5q-67 -20 -116 -35t-86.5 -31t-66.5 -34.5t-56 -46.5q-1 13 -2 25.5t-1 23.5q0 32 10 58t34 41q-27 20 -42 42.5t-15 53.5t17 63.5t45.5 59.5t66.5 44t80 17q35 0 61.5 -16.5t26.5 -48.5q0 -21 -12 -39t-36 -29q-21 20 -46 32.5
t-43 12.5q-28 0 -44 -13t-16 -26q0 -16 10 -31t25 -26t32 -18t32 -7q10 0 28.5 4.5t42 12.5t51.5 17.5t57 20.5z" />
    <glyph glyph-name="uni0677.fina" unicode="&#x677;" horiz-adv-x="1131" 
d="M1131 590v-240h-246q-18 -105 -59 -203.5t-100.5 -175t-135 -122.5t-162.5 -46q-57 0 -117 28t-116 71t-104.5 93t-82.5 95q-4 5 -6 8.5t-2 8.5q0 9 9 9q7 0 22 -7q33 -16 72 -30.5t77.5 -25t73.5 -17t61 -6.5q69 0 136 21t126 60t106 94t75 123q-80 3 -148.5 13
t-118.5 37t-78 76t-28 130t23 153.5t59.5 128t82 88t90.5 32.5q48 0 89 -35t73.5 -91.5t54.5 -127t32 -142.5h242zM770 570q-9 41 -27.5 78.5t-42 65.5t-50.5 44.5t-54 16.5q-17 0 -34 -9.5t-30.5 -24t-22 -31.5t-8.5 -32q0 -21 17.5 -40.5t51.5 -34.5t84 -24t116 -9z
M1131 1358q-9 -40 -19.5 -74.5t-17.5 -52.5q-67 -20 -116 -35t-86.5 -31t-66.5 -34.5t-56 -46.5q-1 13 -2 25.5t-1 23.5q0 32 10 58t34 41q-27 20 -42 42.5t-15 53.5t17 63.5t45.5 59.5t66.5 44t80 17q35 0 61.5 -16.5t26.5 -48.5q0 -21 -12 -39t-36 -29q-21 20 -46 32.5
t-43 12.5q-28 0 -44 -13t-16 -26q0 -16 10 -31t25 -26t32 -18t32 -7q10 0 28.5 4.5t42 12.5t51.5 17.5t57 20.5zM344 1265q-51 13 -81.5 29t-46.5 33.5t-21 35t-5 34.5q0 40 17.5 78t44 68t58 48.5t58.5 18.5q22 0 42.5 -11.5t36 -35.5t25 -62.5t9.5 -92.5q0 -68 -23 -117.5
t-58 -85.5q-23 -24 -61 -45.5t-75.5 -37.5t-67.5 -25t-37 -9q-6 0 -22.5 6.5t-36.5 17t-39 22.5t-30 24q49 10 96.5 23t89.5 27t75 28.5t52 28.5zM419 1366q0 27 -4.5 53t-14.5 46t-24.5 32.5t-34.5 12.5q-14 0 -28.5 -5t-26 -12t-18.5 -16t-7 -16q0 -8 6.5 -18.5t24 -23
t48.5 -26.5t79 -27z" />
    <glyph glyph-name="uni0678.init" unicode="&#x678;" horiz-adv-x="941" 
d="M460 1029q50 -55 82 -120t50.5 -134.5t25.5 -140.5t7 -137q0 -48 -8 -79.5t-28 -49.5t-53.5 -25t-83.5 -7q-60 0 -129.5 2t-133.5 4.5t-115 5t-74 2.5q-26 1 -45 3t-27 6q-21 9 -27.5 36t-6.5 75t5.5 73.5t15.5 33.5q17 13 85 13q13 0 37.5 -1t54.5 -2t62 -3t61.5 -3
t53 -2t35.5 -1q43 0 81 2t71 7q0 22 -10 50t-26.5 58t-38.5 59.5t-46 54.5q48 98 125 220zM941 1335q-9 -40 -19.5 -74.5t-17.5 -52.5q-67 -20 -116 -35t-86.5 -31t-66.5 -34.5t-56 -46.5q-1 13 -2 25.5t-1 23.5q0 32 10 58t34 41q-27 20 -42 42.5t-15 53.5t17 63.5
t45.5 59.5t66.5 44t80 17q35 0 61.5 -16.5t26.5 -48.5q0 -21 -12 -39t-36 -29q-21 20 -46 32.5t-43 12.5q-28 0 -44 -13t-16 -26q0 -16 10 -31t25 -26t32 -18t32 -7q10 0 28.5 4.5t42 12.5t51.5 17.5t57 20.5z" />
    <glyph glyph-name="uni0678.medi" unicode="&#x678;" horiz-adv-x="941" 
d="M941 590v-240h-289q-52 0 -76 9q-20 -12 -50.5 -17t-73.5 -6q-60 0 -129.5 2t-133.5 4.5t-115 5t-74 2.5q-26 1 -45 3t-27 6q-21 9 -27.5 36t-6.5 75t5.5 73.5t15.5 33.5q17 13 85 13q13 0 37.5 -1t54.5 -2t62 -3t61.5 -3t53 -2t35.5 -1q43 0 81 2t71 7q0 22 -10 50
t-26.5 58t-38.5 59.5t-46 54.5q48 98 125 220q41 -46 70 -98.5t48 -109t29 -115.5t14 -116h320zM941 1334q-9 -40 -19.5 -74.5t-17.5 -52.5q-67 -20 -116 -35t-86.5 -31t-66.5 -34.5t-56 -46.5q-1 13 -2 25.5t-1 23.5q0 32 10 58t34 41q-27 20 -42 42.5t-15 53.5t17 63.5
t45.5 59.5t66.5 44t80 17q35 0 61.5 -16.5t26.5 -48.5q0 -21 -12 -39t-36 -29q-21 20 -46 32.5t-43 12.5q-28 0 -44 -13t-16 -26q0 -16 10 -31t25 -26t32 -18t32 -7q10 0 28.5 4.5t42 12.5t51.5 17.5t57 20.5z" />
    <glyph glyph-name="uni0678.fina" unicode="&#x678;" horiz-adv-x="1349" 
d="M1349 590v-240h-175q-24 0 -51.5 1t-54.5 2.5t-51 3t-41 1.5q-39 0 -69.5 -5t-51.5 -12t-32 -15t-11 -14q0 -5 8 -10t22 -10.5t32.5 -10.5t39.5 -10q43 -11 78 -21.5t60.5 -24t39.5 -32t14 -45.5t-5 -56.5t-15 -56.5t-23.5 -49t-29.5 -35q-54 -43 -124.5 -80t-148 -64
t-157 -42t-151.5 -15q-71 0 -137.5 21t-117.5 65t-82 113t-31 165q0 42 8.5 99.5t30.5 119t58.5 122.5t92.5 112q29 26 44 26q6 0 6 -8q0 -9 -6 -24.5t-23 -38.5q-31 -43 -52 -87.5t-34 -85t-18.5 -75t-5.5 -56.5q0 -53 19.5 -98t60.5 -79t104 -53t150 -19q50 0 110 11
t118.5 26.5t110 33.5t84.5 33v5q-31 9 -66.5 18.5t-68.5 18.5t-60 17.5t-42 15.5q-32 14 -49.5 31.5t-17.5 49.5q0 14 8 43t23.5 64.5t38 73t52.5 68.5q48 50 123.5 81t173.5 31h292zM1349 1284q-9 -40 -19.5 -74.5t-17.5 -52.5q-67 -20 -116 -35t-86.5 -31t-66.5 -34.5
t-56 -46.5q-1 13 -2 25.5t-1 23.5q0 32 10 58t34 41q-27 20 -42 42.5t-15 53.5t17 63.5t45.5 59.5t66.5 44t80 17q35 0 61.5 -16.5t26.5 -48.5q0 -21 -12 -39t-36 -29q-21 20 -46 32.5t-43 12.5q-28 0 -44 -13t-16 -26q0 -16 10 -31t25 -26t32 -18t32 -7q10 0 28.5 4.5
t42 12.5t51.5 17.5t57 20.5z" />
    <glyph glyph-name="uniFB68" unicode="&#x679;" horiz-adv-x="705" arabic-form="initial" 
d="M460 1029q50 -55 82 -120t50.5 -134.5t25.5 -140.5t7 -137q0 -48 -8 -79.5t-28 -49.5t-53.5 -25t-83.5 -7q-60 0 -129.5 2t-133.5 4.5t-115 5t-74 2.5q-26 1 -45 3t-27 6q-21 9 -27.5 36t-6.5 75t5.5 73.5t15.5 33.5q17 13 85 13q13 0 37.5 -1t54.5 -2t62 -3t61.5 -3
t53 -2t35.5 -1q43 0 81 2t71 7q0 22 -10 50t-26.5 58t-38.5 59.5t-46 54.5q48 98 125 220zM227 1255q10 -1 27.5 -2t36 -1.5t35.5 -0.5h28q27 0 50.5 1.5t41.5 4t28 6t10 7.5q0 3 -6 15.5t-18.5 27t-32 25.5t-46.5 11q-56 0 -155 -93zM260 1621q4 -44 6.5 -82.5t2.5 -72.5
q0 -37 -3.5 -65.5t-8.5 -48.5l2 -2q18 19 37 36.5t38.5 31t40 21.5t41.5 8q28 0 51.5 -16.5t41 -42t27 -55.5t9.5 -57q0 -42 -12.5 -72.5t-35.5 -39.5q-7 -3 -18 -6.5t-29 -7t-45 -5.5t-66 -2q-15 0 -39.5 0.5t-53 2.5t-59 5.5t-57.5 10.5q-24 14 -47 48t-38 66
q4 0 11.5 -0.5t16 -1t15.5 -1t10 -0.5q44 0 61 10.5t17 42.5q0 35 -5 87t-13 116q21 20 48 45.5t54 46.5z" />
    <glyph glyph-name="uniFB69" unicode="&#x679;" horiz-adv-x="625" arabic-form="medial" 
d="M460 1029q50 -55 82 -120t50.5 -134.5t25.5 -140.5t7 -137q0 -48 -8 -79.5t-28 -49.5t-53.5 -25t-83.5 -7q-60 0 -129.5 2t-133.5 4.5t-115 5t-74 2.5q-26 1 -45 3t-27 6q-21 9 -27.5 36t-6.5 75t5.5 73.5t15.5 33.5q17 13 85 13q13 0 37.5 -1t54.5 -2t62 -3t61.5 -3
t53 -2t35.5 -1q43 0 81 2t71 7q0 22 -10 50t-26.5 58t-38.5 59.5t-46 54.5q48 98 125 220zM227 1255q10 -1 27.5 -2t36 -1.5t35.5 -0.5h28q27 0 50.5 1.5t41.5 4t28 6t10 7.5q0 3 -6 15.5t-18.5 27t-32 25.5t-46.5 11q-56 0 -155 -93zM260 1621q4 -44 6.5 -82.5t2.5 -72.5
q0 -37 -3.5 -65.5t-8.5 -48.5l2 -2q18 19 37 36.5t38.5 31t40 21.5t41.5 8q28 0 51.5 -16.5t41 -42t27 -55.5t9.5 -57q0 -42 -12.5 -72.5t-35.5 -39.5q-7 -3 -18 -6.5t-29 -7t-45 -5.5t-66 -2q-15 0 -39.5 0.5t-53 2.5t-59 5.5t-57.5 10.5q-24 14 -47 48t-38 66
q4 0 11.5 -0.5t16 -1t15.5 -1t10 -0.5q44 0 61 10.5t17 42.5q0 35 -5 87t-13 116q21 20 48 45.5t54 46.5z" />
    <glyph glyph-name="uniFB67" unicode="&#x679;" horiz-adv-x="1332" arabic-form="final" 
d="M1188 562q-3 23 -15.5 51t-31.5 57t-44 57.5t-55 52.5q20 48 54.5 106t72.5 118q79 -79 121 -192t42 -267q0 -69 -7.5 -113.5t-15.5 -57.5q-8 -11 -29 -18.5t-59 -16.5q-33 -8 -80.5 -16.5t-103.5 -16.5t-116.5 -15.5t-120 -13t-115 -9t-100.5 -3.5q-130 0 -225 19
t-157.5 58.5t-92.5 101t-30 146.5q0 34 7 72t18.5 75.5t26 71.5t29 60.5t28 42t22.5 15.5q5 0 6 -4t1 -8q0 -16 -2.5 -33.5t-6.5 -35.5q-5 -23 -9 -45.5t-4 -45.5q0 -62 24.5 -109t79 -78.5t142 -47.5t213.5 -16q52 0 121 4t141.5 11.5t143.5 18.5t127 24zM579 1068
q11 -1 29 -2t37.5 -1.5t37.5 -0.5h29q28 0 53 1.5t44 4.5t29.5 6.5t10.5 7.5q0 3 -6 16.5t-19 28t-33.5 26.5t-49.5 12q-59 0 -163 -98zM613 1453q5 -46 7.5 -86.5t2.5 -76.5q0 -38 -3.5 -69t-9.5 -51l2 -2q19 20 39.5 38.5t41 32.5t42 22.5t43.5 8.5q30 0 55 -17.5t43 -44
t28 -58.5t10 -60q0 -45 -13 -76.5t-38 -41.5q-8 -3 -19.5 -7t-30.5 -7t-47 -5.5t-69 -2.5q-16 0 -42 0.5t-56 2.5t-62 6t-60 11q-13 7 -25.5 20.5t-24.5 30t-22 34.5t-18 35q4 0 12 -0.5t17 -1t16.5 -1t10.5 -0.5q47 0 64.5 10.5t17.5 45.5q0 36 -5 91t-14 122
q22 22 50 48.5t57 48.5z" />
    <glyph glyph-name="uniFB60" unicode="&#x67a;" horiz-adv-x="705" arabic-form="initial" 
d="M460 1029q50 -55 82 -120t50.5 -134.5t25.5 -140.5t7 -137q0 -48 -8 -79.5t-28 -49.5t-53.5 -25t-83.5 -7q-60 0 -129.5 2t-133.5 4.5t-115 5t-74 2.5q-26 1 -45 3t-27 6q-21 9 -27.5 36t-6.5 75t5.5 73.5t15.5 33.5q17 13 85 13q13 0 37.5 -1t54.5 -2t62 -3t61.5 -3
t53 -2t35.5 -1q43 0 81 2t71 7q0 22 -10 50t-26.5 58t-38.5 59.5t-46 54.5q48 98 125 220zM307 1403q-48 31 -96 61t-97 59q23 38 45.5 76.5t46.5 70.5q45 -27 95 -58t98 -59q-22 -38 -45 -75t-47 -75zM358 1123q-50 30 -98.5 61t-99.5 66q11 19 21.5 36t21.5 34t22.5 34.5
t24.5 37.5q45 -28 97.5 -60.5t100.5 -60.5q-20 -37 -41.5 -72t-48.5 -76z" />
    <glyph glyph-name="uniFB61" unicode="&#x67a;" horiz-adv-x="625" arabic-form="medial" 
d="M460 1029q50 -55 82 -120t50.5 -134.5t25.5 -140.5t7 -137q0 -48 -8 -79.5t-28 -49.5t-53.5 -25t-83.5 -7q-60 0 -129.5 2t-133.5 4.5t-115 5t-74 2.5q-26 1 -45 3t-27 6q-21 9 -27.5 36t-6.5 75t5.5 73.5t15.5 33.5q17 13 85 13q13 0 37.5 -1t54.5 -2t62 -3t61.5 -3
t53 -2t35.5 -1q43 0 81 2t71 7q0 22 -10 50t-26.5 58t-38.5 59.5t-46 54.5q48 98 125 220zM307 1403q-48 31 -96 61t-97 59q23 38 45.5 76.5t46.5 70.5q45 -27 95 -58t98 -59q-22 -38 -45 -75t-47 -75zM358 1123q-50 30 -98.5 61t-99.5 66q11 19 21.5 36t21.5 34t22.5 34.5
t24.5 37.5q45 -28 97.5 -60.5t100.5 -60.5q-20 -37 -41.5 -72t-48.5 -76z" />
    <glyph glyph-name="uniFB5F" unicode="&#x67a;" horiz-adv-x="1332" arabic-form="final" 
d="M1188 562q-3 23 -15.5 51t-31.5 57t-44 57.5t-55 52.5q20 48 54.5 106t72.5 118q79 -79 121 -192t42 -267q0 -69 -7.5 -113.5t-15.5 -57.5q-8 -11 -29 -18.5t-59 -16.5q-33 -8 -80.5 -16.5t-103.5 -16.5t-116.5 -15.5t-120 -13t-115 -9t-100.5 -3.5q-130 0 -225 19
t-157.5 58.5t-92.5 101t-30 146.5q0 34 7 72t18.5 75.5t26 71.5t29 60.5t28 42t22.5 15.5q5 0 6 -4t1 -8q0 -16 -2.5 -33.5t-6.5 -35.5q-5 -23 -9 -45.5t-4 -45.5q0 -62 24.5 -109t79 -78.5t142 -47.5t213.5 -16q52 0 121 4t141.5 11.5t143.5 18.5t127 24zM679 1227
q-48 31 -96 61t-97 59q23 38 45.5 76.5t46.5 70.5q45 -27 95 -58t98 -59q-22 -38 -45 -75t-47 -75zM730 947q-50 30 -98.5 61t-99.5 66q11 19 21.5 36t21.5 34t22.5 34.5t24.5 37.5q45 -28 97.5 -60.5t100.5 -60.5q-20 -37 -41.5 -72t-48.5 -76z" />
    <glyph glyph-name="uniFB54" unicode="&#x67b;" horiz-adv-x="705" arabic-form="initial" 
d="M460 1029q50 -55 82 -120t50.5 -134.5t25.5 -140.5t7 -137q0 -48 -8 -79.5t-28 -49.5t-53.5 -25t-83.5 -7q-60 0 -129.5 2t-133.5 4.5t-115 5t-74 2.5q-26 1 -45 3t-27 6q-21 9 -27.5 36t-6.5 75t5.5 73.5t15.5 33.5q17 13 85 13q13 0 37.5 -1t54.5 -2t62 -3t61.5 -3
t53 -2t35.5 -1q43 0 81 2t71 7q0 22 -10 50t-26.5 58t-38.5 59.5t-46 54.5q48 98 125 220zM359 -32q-48 31 -96 61t-97 59q23 38 45.5 76.5t46.5 70.5q45 -27 95 -58t98 -59q-22 -38 -45 -75t-47 -75zM410 -312q-50 30 -98.5 61t-99.5 66q11 19 21.5 36t21.5 34t22.5 34.5
t24.5 37.5q45 -28 97.5 -60.5t100.5 -60.5q-20 -37 -41.5 -72t-48.5 -76z" />
    <glyph glyph-name="uniFB55" unicode="&#x67b;" horiz-adv-x="625" arabic-form="medial" 
d="M460 1029q50 -55 82 -120t50.5 -134.5t25.5 -140.5t7 -137q0 -48 -8 -79.5t-28 -49.5t-53.5 -25t-83.5 -7q-60 0 -129.5 2t-133.5 4.5t-115 5t-74 2.5q-26 1 -45 3t-27 6q-21 9 -27.5 36t-6.5 75t5.5 73.5t15.5 33.5q17 13 85 13q13 0 37.5 -1t54.5 -2t62 -3t61.5 -3
t53 -2t35.5 -1q43 0 81 2t71 7q0 22 -10 50t-26.5 58t-38.5 59.5t-46 54.5q48 98 125 220zM359 -32q-48 31 -96 61t-97 59q23 38 45.5 76.5t46.5 70.5q45 -27 95 -58t98 -59q-22 -38 -45 -75t-47 -75zM410 -312q-50 30 -98.5 61t-99.5 66q11 19 21.5 36t21.5 34t22.5 34.5
t24.5 37.5q45 -28 97.5 -60.5t100.5 -60.5q-20 -37 -41.5 -72t-48.5 -76z" />
    <glyph glyph-name="uniFB53" unicode="&#x67b;" horiz-adv-x="1332" arabic-form="final" 
d="M1188 562q-3 23 -15.5 51t-31.5 57t-44 57.5t-55 52.5q20 48 54.5 106t72.5 118q79 -79 121 -192t42 -267q0 -69 -7.5 -113.5t-15.5 -57.5q-8 -11 -29 -18.5t-59 -16.5q-33 -8 -80.5 -16.5t-103.5 -16.5t-116.5 -15.5t-120 -13t-115 -9t-100.5 -3.5q-130 0 -225 19
t-157.5 58.5t-92.5 101t-30 146.5q0 34 7 72t18.5 75.5t26 71.5t29 60.5t28 42t22.5 15.5q5 0 6 -4t1 -8q0 -16 -2.5 -33.5t-6.5 -35.5q-5 -23 -9 -45.5t-4 -45.5q0 -62 24.5 -109t79 -78.5t142 -47.5t213.5 -16q52 0 121 4t141.5 11.5t143.5 18.5t127 24zM779 -102
q-48 31 -96 61t-97 59q23 38 45.5 76.5t46.5 70.5q45 -27 95 -58t98 -59q-22 -38 -45 -75t-47 -75zM830 -382q-50 30 -98.5 61t-99.5 66q11 19 21.5 36t21.5 34t22.5 34.5t24.5 37.5q45 -28 97.5 -60.5t100.5 -60.5q-20 -37 -41.5 -72t-48.5 -76z" />
    <glyph glyph-name="uni067C.init" unicode="&#x67c;" horiz-adv-x="705" 
d="M309 68q-60 0 -93 36t-33 92q0 39 12 77.5t35 67.5q-39 1 -74.5 3t-66 3t-53.5 2t-36 1q-26 1 -45 3t-27 6q-21 9 -27.5 36t-6.5 75t5.5 73.5t15.5 33.5q17 13 85 13q13 0 37.5 -1t54.5 -2t62 -3t61.5 -3t53 -2t35.5 -1q43 0 81 2t71 7q0 22 -10 50t-26.5 58t-38.5 59.5
t-46 54.5q48 98 125 220q50 -55 82 -120t50.5 -134.5t25.5 -140.5t7 -137q0 -48 -8 -79.5t-28 -49.5t-53.5 -25t-83.5 -7h-18q13 -19 20 -41t7 -44q0 -34 -8 -66.5t-26 -58.5t-47 -42t-71 -16zM216 1113l-175 137q25 35 54.5 73t55.5 66l172 -126l96 123q51 -35 96.5 -68.5
t78.5 -60.5l-107 -142q-20 13 -42.5 30t-45.5 34t-44 33.5t-37 29.5zM319 322q-14 0 -27.5 -9.5t-24.5 -24t-17.5 -31t-6.5 -30.5q0 -28 20.5 -42.5t49.5 -14.5q16 0 31.5 2.5t27.5 8.5t19.5 16.5t7.5 26.5q0 13 -6 30t-16.5 32t-25 25.5t-32.5 10.5z" />
    <glyph glyph-name="uni067C.medi" unicode="&#x67c;" horiz-adv-x="625" 
d="M309 68q-60 0 -93 36t-33 92q0 39 12 77.5t35 67.5q-39 1 -74.5 3t-66 3t-53.5 2t-36 1q-26 1 -45 3t-27 6q-21 9 -27.5 36t-6.5 75t5.5 73.5t15.5 33.5q17 13 85 13q13 0 37.5 -1t54.5 -2t62 -3t61.5 -3t53 -2t35.5 -1q43 0 81 2t71 7q0 22 -10 50t-26.5 58t-38.5 59.5
t-46 54.5q48 98 125 220q50 -55 82 -120t50.5 -134.5t25.5 -140.5t7 -137q0 -48 -8 -79.5t-28 -49.5t-53.5 -25t-83.5 -7h-18q13 -19 20 -41t7 -44q0 -34 -8 -66.5t-26 -58.5t-47 -42t-71 -16zM216 1113l-175 137q25 35 54.5 73t55.5 66l172 -126l96 123q51 -35 96.5 -68.5
t78.5 -60.5l-107 -142q-20 13 -42.5 30t-45.5 34t-44 33.5t-37 29.5zM319 322q-14 0 -27.5 -9.5t-24.5 -24t-17.5 -31t-6.5 -30.5q0 -28 20.5 -42.5t49.5 -14.5q16 0 31.5 2.5t27.5 8.5t19.5 16.5t7.5 26.5q0 13 -6 30t-16.5 32t-25 25.5t-32.5 10.5z" />
    <glyph glyph-name="uni067C.fina" unicode="&#x67c;" horiz-adv-x="1332" 
d="M1188 562q-3 23 -15.5 51t-31.5 57t-44 57.5t-55 52.5q20 48 54.5 106t72.5 118q79 -79 121 -192t42 -267q0 -69 -7.5 -113.5t-15.5 -57.5q-8 -11 -29 -18.5t-59 -16.5q-32 -8 -77.5 -16t-99 -16t-112 -15t-116.5 -13q17 -21 26 -46t9 -50q0 -34 -8 -66.5t-26 -58.5
t-47 -42t-71 -16q-60 0 -93 36t-33 92q0 37 11 73t31 65q-8 0 -15.5 -0.5t-14.5 -0.5q-130 0 -225 19t-157.5 58.5t-92.5 101t-30 146.5q0 34 7 72t18.5 75.5t26 71.5t29 60.5t28 42t22.5 15.5q5 0 6 -4t1 -8q0 -16 -2.5 -33.5t-6.5 -35.5q-5 -23 -9 -45.5t-4 -45.5
q0 -62 24.5 -109t79 -78.5t142 -47.5t213.5 -16q52 0 121 4t141.5 11.5t143.5 18.5t127 24zM572 937l-175 137q25 35 54.5 73t55.5 66l172 -126l96 123q51 -35 96.5 -68.5t78.5 -60.5l-107 -142q-20 13 -42.5 30t-45.5 34t-44 33.5t-37 29.5zM709 254q-14 0 -27.5 -9.5
t-24.5 -24t-17.5 -31t-6.5 -30.5q0 -28 20.5 -42.5t49.5 -14.5q16 0 31.5 2.5t27.5 8.5t19.5 16.5t7.5 26.5q0 13 -6 30t-16.5 32t-25 25.5t-32.5 10.5z" />
    <glyph glyph-name="uni067D.init" unicode="&#x67d;" horiz-adv-x="705" 
d="M460 1029q50 -55 82 -120t50.5 -134.5t25.5 -140.5t7 -137q0 -48 -8 -79.5t-28 -49.5t-53.5 -25t-83.5 -7q-60 0 -129.5 2t-133.5 4.5t-115 5t-74 2.5q-26 1 -45 3t-27 6q-21 9 -27.5 36t-6.5 75t5.5 73.5t15.5 33.5q17 13 85 13q13 0 37.5 -1t54.5 -2t62 -3t61.5 -3
t53 -2t35.5 -1q43 0 81 2t71 7q0 22 -10 50t-26.5 58t-38.5 59.5t-46 54.5q48 98 125 220zM354 1647q47 -31 94 -61.5t92 -61.5q-24 -38 -45 -71.5t-48 -67.5q-44 28 -86.5 55.5t-90.5 58.5q-42 -65 -81 -117q-42 27 -88.5 59.5t-91.5 65.5q12 18 25.5 38t26.5 38.5
t24.5 33.5t19.5 24l82 -56l82 -56q21 27 41.5 57t43.5 61zM295 1397q46 -32 91 -60.5t87 -56.5q-20 -35 -43 -70t-51 -67l-179 118q5 9 15 24.5t23 34.5t27.5 39.5t29.5 37.5z" />
    <glyph glyph-name="uni067D.medi" unicode="&#x67d;" horiz-adv-x="625" 
d="M460 1029q50 -55 82 -120t50.5 -134.5t25.5 -140.5t7 -137q0 -48 -8 -79.5t-28 -49.5t-53.5 -25t-83.5 -7q-60 0 -129.5 2t-133.5 4.5t-115 5t-74 2.5q-26 1 -45 3t-27 6q-21 9 -27.5 36t-6.5 75t5.5 73.5t15.5 33.5q17 13 85 13q13 0 37.5 -1t54.5 -2t62 -3t61.5 -3
t53 -2t35.5 -1q43 0 81 2t71 7q0 22 -10 50t-26.5 58t-38.5 59.5t-46 54.5q48 98 125 220zM354 1647q47 -31 94 -61.5t92 -61.5q-24 -38 -45 -71.5t-48 -67.5q-44 28 -86.5 55.5t-90.5 58.5q-42 -65 -81 -117q-42 27 -88.5 59.5t-91.5 65.5q12 18 25.5 38t26.5 38.5
t24.5 33.5t19.5 24l82 -56l82 -56q21 27 41.5 57t43.5 61zM295 1397q46 -32 91 -60.5t87 -56.5q-20 -35 -43 -70t-51 -67l-179 118q5 9 15 24.5t23 34.5t27.5 39.5t29.5 37.5z" />
    <glyph glyph-name="uni067D.fina" unicode="&#x67d;" horiz-adv-x="1332" 
d="M1188 562q-3 23 -15.5 51t-31.5 57t-44 57.5t-55 52.5q20 48 54.5 106t72.5 118q79 -79 121 -192t42 -267q0 -69 -7.5 -113.5t-15.5 -57.5q-8 -11 -29 -18.5t-59 -16.5q-33 -8 -80.5 -16.5t-103.5 -16.5t-116.5 -15.5t-120 -13t-115 -9t-100.5 -3.5q-130 0 -225 19
t-157.5 58.5t-92.5 101t-30 146.5q0 34 7 72t18.5 75.5t26 71.5t29 60.5t28 42t22.5 15.5q5 0 6 -4t1 -8q0 -16 -2.5 -33.5t-6.5 -35.5q-5 -23 -9 -45.5t-4 -45.5q0 -62 24.5 -109t79 -78.5t142 -47.5t213.5 -16q52 0 121 4t141.5 11.5t143.5 18.5t127 24zM699 1442
q47 -31 94 -61.5t92 -61.5q-24 -38 -45 -71.5t-48 -67.5q-44 28 -86.5 55.5t-90.5 58.5q-42 -65 -81 -117q-42 27 -88.5 59.5t-91.5 65.5q12 18 25.5 38t26.5 38.5t24.5 33.5t19.5 24l82 -56l82 -56q21 27 41.5 57t43.5 61zM640 1192q46 -32 91 -60.5t87 -56.5
q-20 -35 -43 -70t-51 -67l-179 118q5 9 15 24.5t23 34.5t27.5 39.5t29.5 37.5z" />
    <glyph glyph-name="uniFB58" unicode="&#x67e;" horiz-adv-x="705" arabic-form="initial" 
d="M460 1029q50 -55 82 -120t50.5 -134.5t25.5 -140.5t7 -137q0 -48 -8 -79.5t-28 -49.5t-53.5 -25t-83.5 -7q-60 0 -129.5 2t-133.5 4.5t-115 5t-74 2.5q-26 1 -45 3t-27 6q-21 9 -27.5 36t-6.5 75t5.5 73.5t15.5 33.5q17 13 85 13q13 0 37.5 -1t54.5 -2t62 -3t61.5 -3
t53 -2t35.5 -1q43 0 81 2t71 7q0 22 -10 50t-26.5 58t-38.5 59.5t-46 54.5q48 98 125 220zM359 213q47 -31 94 -61.5t92 -61.5q-24 -38 -45 -71.5t-48 -67.5q-44 28 -86.5 55.5t-90.5 58.5q-42 -65 -81 -117q-42 27 -88.5 59.5t-91.5 65.5q12 18 25.5 38t26.5 38.5
t24.5 33.5t19.5 24l82 -56l82 -56q21 27 41.5 57t43.5 61zM300 -37q46 -32 91 -60.5t87 -56.5q-20 -35 -43 -70t-51 -67l-179 118q5 9 15 24.5t23 34.5t27.5 39.5t29.5 37.5z" />
    <glyph glyph-name="uniFB59" unicode="&#x67e;" horiz-adv-x="625" arabic-form="medial" 
d="M460 1029q50 -55 82 -120t50.5 -134.5t25.5 -140.5t7 -137q0 -48 -8 -79.5t-28 -49.5t-53.5 -25t-83.5 -7q-60 0 -129.5 2t-133.5 4.5t-115 5t-74 2.5q-26 1 -45 3t-27 6q-21 9 -27.5 36t-6.5 75t5.5 73.5t15.5 33.5q17 13 85 13q13 0 37.5 -1t54.5 -2t62 -3t61.5 -3
t53 -2t35.5 -1q43 0 81 2t71 7q0 22 -10 50t-26.5 58t-38.5 59.5t-46 54.5q48 98 125 220zM359 213q47 -31 94 -61.5t92 -61.5q-24 -38 -45 -71.5t-48 -67.5q-44 28 -86.5 55.5t-90.5 58.5q-42 -65 -81 -117q-42 27 -88.5 59.5t-91.5 65.5q12 18 25.5 38t26.5 38.5
t24.5 33.5t19.5 24l82 -56l82 -56q21 27 41.5 57t43.5 61zM300 -37q46 -32 91 -60.5t87 -56.5q-20 -35 -43 -70t-51 -67l-179 118q5 9 15 24.5t23 34.5t27.5 39.5t29.5 37.5z" />
    <glyph glyph-name="uniFB57" unicode="&#x67e;" horiz-adv-x="1332" arabic-form="final" 
d="M1188 562q-3 23 -15.5 51t-31.5 57t-44 57.5t-55 52.5q20 48 54.5 106t72.5 118q79 -79 121 -192t42 -267q0 -69 -7.5 -113.5t-15.5 -57.5q-8 -11 -29 -18.5t-59 -16.5q-33 -8 -80.5 -16.5t-103.5 -16.5t-116.5 -15.5t-120 -13t-115 -9t-100.5 -3.5q-130 0 -225 19
t-157.5 58.5t-92.5 101t-30 146.5q0 34 7 72t18.5 75.5t26 71.5t29 60.5t28 42t22.5 15.5q5 0 6 -4t1 -8q0 -16 -2.5 -33.5t-6.5 -35.5q-5 -23 -9 -45.5t-4 -45.5q0 -62 24.5 -109t79 -78.5t142 -47.5t213.5 -16q52 0 121 4t141.5 11.5t143.5 18.5t127 24zM813 153
q47 -31 94 -61.5t92 -61.5q-24 -38 -45 -71.5t-48 -67.5q-44 28 -86.5 55.5t-90.5 58.5q-42 -65 -81 -117q-42 27 -88.5 59.5t-91.5 65.5q12 18 25.5 38t26.5 38.5t24.5 33.5t19.5 24l82 -56l82 -56q21 27 41.5 57t43.5 61zM754 -97q46 -32 91 -60.5t87 -56.5
q-20 -35 -43 -70t-51 -67l-179 118q5 9 15 24.5t23 34.5t27.5 39.5t29.5 37.5z" />
    <glyph glyph-name="uniFB64" unicode="&#x67f;" horiz-adv-x="705" arabic-form="initial" 
d="M460 1029q50 -55 82 -120t50.5 -134.5t25.5 -140.5t7 -137q0 -48 -8 -79.5t-28 -49.5t-53.5 -25t-83.5 -7q-60 0 -129.5 2t-133.5 4.5t-115 5t-74 2.5q-26 1 -45 3t-27 6q-21 9 -27.5 36t-6.5 75t5.5 73.5t15.5 33.5q17 13 85 13q13 0 37.5 -1t54.5 -2t62 -3t61.5 -3
t53 -2t35.5 -1q43 0 81 2t71 7q0 22 -10 50t-26.5 58t-38.5 59.5t-46 54.5q48 98 125 220zM158 1388q-45 29 -91 57.5t-93 56.5q22 37 43.5 74t44.5 67q43 -26 85.5 -52.5t87.5 -52.5q10 18 19 32.5t17.5 29t17.5 28.5t20 31q16 -9 39.5 -22t49.5 -28t52 -30.5t49 -30.5
q-21 -38 -42.5 -74.5t-44.5 -71.5q-19 10 -42 23.5t-47 28.5t-46.5 30l-40.5 27zM222 1122q-47 29 -93.5 58.5t-94.5 61.5q22 37 41 67t45 68q43 -26 89.5 -54t91.5 -54q10 18 19.5 32.5t18.5 28t18.5 27t20.5 30.5q17 -10 40.5 -23.5t49 -28t51 -30t46.5 -28.5
q-21 -38 -40 -72t-42 -69q-23 12 -49 27t-51 30t-47 29t-37 24q-17 -29 -35.5 -60t-41.5 -64z" />
    <glyph glyph-name="uniFB65" unicode="&#x67f;" horiz-adv-x="625" arabic-form="medial" 
d="M460 1029q50 -55 82 -120t50.5 -134.5t25.5 -140.5t7 -137q0 -48 -8 -79.5t-28 -49.5t-53.5 -25t-83.5 -7q-60 0 -129.5 2t-133.5 4.5t-115 5t-74 2.5q-26 1 -45 3t-27 6q-21 9 -27.5 36t-6.5 75t5.5 73.5t15.5 33.5q17 13 85 13q13 0 37.5 -1t54.5 -2t62 -3t61.5 -3
t53 -2t35.5 -1q43 0 81 2t71 7q0 22 -10 50t-26.5 58t-38.5 59.5t-46 54.5q48 98 125 220zM158 1388q-45 29 -91 57.5t-93 56.5q22 37 43.5 74t44.5 67q43 -26 85.5 -52.5t87.5 -52.5q10 18 19 32.5t17.5 29t17.5 28.5t20 31q16 -9 39.5 -22t49.5 -28t52 -30.5t49 -30.5
q-21 -38 -42.5 -74.5t-44.5 -71.5q-19 10 -42 23.5t-47 28.5t-46.5 30l-40.5 27zM222 1122q-47 29 -93.5 58.5t-94.5 61.5q22 37 41 67t45 68q43 -26 89.5 -54t91.5 -54q10 18 19.5 32.5t18.5 28t18.5 27t20.5 30.5q17 -10 40.5 -23.5t49 -28t51 -30t46.5 -28.5
q-21 -38 -40 -72t-42 -69q-23 12 -49 27t-51 30t-47 29t-37 24q-17 -29 -35.5 -60t-41.5 -64z" />
    <glyph glyph-name="uniFB63" unicode="&#x67f;" horiz-adv-x="1332" arabic-form="final" 
d="M1188 562q-3 23 -15.5 51t-31.5 57t-44 57.5t-55 52.5q20 48 54.5 106t72.5 118q79 -79 121 -192t42 -267q0 -69 -7.5 -113.5t-15.5 -57.5q-8 -11 -29 -18.5t-59 -16.5q-33 -8 -80.5 -16.5t-103.5 -16.5t-116.5 -15.5t-120 -13t-115 -9t-100.5 -3.5q-130 0 -225 19
t-157.5 58.5t-92.5 101t-30 146.5q0 34 7 72t18.5 75.5t26 71.5t29 60.5t28 42t22.5 15.5q5 0 6 -4t1 -8q0 -16 -2.5 -33.5t-6.5 -35.5q-5 -23 -9 -45.5t-4 -45.5q0 -62 24.5 -109t79 -78.5t142 -47.5t213.5 -16q52 0 121 4t141.5 11.5t143.5 18.5t127 24zM532 1188
q-45 29 -91 57.5t-93 56.5q22 37 43.5 74t44.5 67q43 -26 85.5 -52.5t87.5 -52.5q10 18 19 32.5t17.5 29t17.5 28.5t20 31q16 -9 39.5 -22t49.5 -28t52 -30.5t49 -30.5q-21 -38 -42.5 -74.5t-44.5 -71.5q-19 10 -42 23.5t-47 28.5t-46.5 30l-40.5 27zM596 922
q-47 29 -93.5 58.5t-94.5 61.5q22 37 41 67t45 68q43 -26 89.5 -54t91.5 -54q10 18 19.5 32.5t18.5 28t18.5 27t20.5 30.5q17 -10 40.5 -23.5t49 -28t51 -30t46.5 -28.5q-21 -38 -40 -72t-42 -69q-23 12 -49 27t-51 30t-47 29t-37 24q-17 -29 -35.5 -60t-41.5 -64z" />
    <glyph glyph-name="uniFB5C" unicode="&#x680;" horiz-adv-x="705" arabic-form="initial" 
d="M460 1029q50 -55 82 -120t50.5 -134.5t25.5 -140.5t7 -137q0 -48 -8 -79.5t-28 -49.5t-53.5 -25t-83.5 -7q-60 0 -129.5 2t-133.5 4.5t-115 5t-74 2.5q-26 1 -45 3t-27 6q-21 9 -27.5 36t-6.5 75t5.5 73.5t15.5 33.5q17 13 85 13q13 0 37.5 -1t54.5 -2t62 -3t61.5 -3
t53 -2t35.5 -1q43 0 81 2t71 7q0 22 -10 50t-26.5 58t-38.5 59.5t-46 54.5q48 98 125 220zM192 -41q-45 29 -91 57.5t-93 56.5q22 37 43.5 74t44.5 67q43 -26 85.5 -52.5t87.5 -52.5q10 18 19 32.5t17.5 29t17.5 28.5t20 31q16 -9 39.5 -22t49.5 -28t52 -30.5t49 -30.5
q-21 -38 -42.5 -74.5t-44.5 -71.5q-19 10 -42 23.5t-47 28.5t-46.5 30l-40.5 27zM256 -307q-47 29 -93.5 58.5t-94.5 61.5q22 37 41 67t45 68q43 -26 89.5 -54t91.5 -54q10 18 19.5 32.5t18.5 28t18.5 27t20.5 30.5q17 -10 40.5 -23.5t49 -28t51 -30t46.5 -28.5
q-21 -38 -40 -72t-42 -69q-23 12 -49 27t-51 30t-47 29t-37 24q-17 -29 -35.5 -60t-41.5 -64z" />
    <glyph glyph-name="uniFB5D" unicode="&#x680;" horiz-adv-x="625" arabic-form="medial" 
d="M460 1029q50 -55 82 -120t50.5 -134.5t25.5 -140.5t7 -137q0 -48 -8 -79.5t-28 -49.5t-53.5 -25t-83.5 -7q-60 0 -129.5 2t-133.5 4.5t-115 5t-74 2.5q-26 1 -45 3t-27 6q-21 9 -27.5 36t-6.5 75t5.5 73.5t15.5 33.5q17 13 85 13q13 0 37.5 -1t54.5 -2t62 -3t61.5 -3
t53 -2t35.5 -1q43 0 81 2t71 7q0 22 -10 50t-26.5 58t-38.5 59.5t-46 54.5q48 98 125 220zM192 -41q-45 29 -91 57.5t-93 56.5q22 37 43.5 74t44.5 67q43 -26 85.5 -52.5t87.5 -52.5q10 18 19 32.5t17.5 29t17.5 28.5t20 31q16 -9 39.5 -22t49.5 -28t52 -30.5t49 -30.5
q-21 -38 -42.5 -74.5t-44.5 -71.5q-19 10 -42 23.5t-47 28.5t-46.5 30l-40.5 27zM256 -307q-47 29 -93.5 58.5t-94.5 61.5q22 37 41 67t45 68q43 -26 89.5 -54t91.5 -54q10 18 19.5 32.5t18.5 28t18.5 27t20.5 30.5q17 -10 40.5 -23.5t49 -28t51 -30t46.5 -28.5
q-21 -38 -40 -72t-42 -69q-23 12 -49 27t-51 30t-47 29t-37 24q-17 -29 -35.5 -60t-41.5 -64z" />
    <glyph glyph-name="uniFB5B" unicode="&#x680;" horiz-adv-x="1332" arabic-form="final" 
d="M1188 562q-3 23 -15.5 51t-31.5 57t-44 57.5t-55 52.5q20 48 54.5 106t72.5 118q79 -79 121 -192t42 -267q0 -69 -7.5 -113.5t-15.5 -57.5q-8 -11 -29 -18.5t-59 -16.5q-33 -8 -80.5 -16.5t-103.5 -16.5t-116.5 -15.5t-120 -13t-115 -9t-100.5 -3.5q-130 0 -225 19
t-157.5 58.5t-92.5 101t-30 146.5q0 34 7 72t18.5 75.5t26 71.5t29 60.5t28 42t22.5 15.5q5 0 6 -4t1 -8q0 -16 -2.5 -33.5t-6.5 -35.5q-5 -23 -9 -45.5t-4 -45.5q0 -62 24.5 -109t79 -78.5t142 -47.5t213.5 -16q52 0 121 4t141.5 11.5t143.5 18.5t127 24zM662 -111
q-45 29 -91 57.5t-93 56.5q22 37 43.5 74t44.5 67q43 -26 85.5 -52.5t87.5 -52.5q10 18 19 32.5t17.5 29t17.5 28.5t20 31q16 -9 39.5 -22t49.5 -28t52 -30.5t49 -30.5q-21 -38 -42.5 -74.5t-44.5 -71.5q-19 10 -42 23.5t-47 28.5t-46.5 30l-40.5 27zM726 -377
q-47 29 -93.5 58.5t-94.5 61.5q22 37 41 67t45 68q43 -26 89.5 -54t91.5 -54q10 18 19.5 32.5t18.5 28t18.5 27t20.5 30.5q17 -10 40.5 -23.5t49 -28t51 -30t46.5 -28.5q-21 -38 -40 -72t-42 -69q-23 12 -49 27t-51 30t-47 29t-37 24q-17 -29 -35.5 -60t-41.5 -64z" />
    <glyph glyph-name="uni0681.init" unicode="&#x681;" horiz-adv-x="1372" 
d="M0 350q-40 0 -61.5 5t-29.5 16q-15 21 -15 93q0 82 14 104q7 11 28.5 16.5t63.5 5.5q48 0 95 -2t99.5 -4t114 -4t138.5 -2q94 0 197 3.5t219 16.5v9q-55 56 -106 101.5t-99 78t-92.5 50t-84.5 17.5q-41 0 -89.5 -16.5t-117.5 -56.5q-13 -8 -21 -11.5t-15 -3.5t-7 5
q0 1 1 4q7 21 24 48t39 54t44.5 51t40.5 38q44 35 92 52.5t96 17.5q45 0 83 -11.5t76.5 -35t80.5 -59t94 -83.5q40 -38 71.5 -66t56.5 -49t45.5 -35.5t39.5 -24.5q23 -12 50.5 -18.5t73.5 -6.5h22t31 2q-5 -33 -9 -74.5t-12.5 -78.5t-22.5 -63.5t-39 -30.5
q-81 -13 -166.5 -24t-179.5 -18.5t-198.5 -12t-223.5 -4.5q-20 0 -53.5 0.5t-74 1t-85 1t-87 1.5t-79.5 1.5t-62 1.5zM475 1174q-1 20 -1 27v18q0 21 2 37t8 29q7 14 16 23t22 19q-32 23 -51.5 46.5t-19.5 61.5q0 28 18.5 61t48.5 61.5t68.5 48t79.5 19.5q38 0 65 -19
t27 -50q0 -17 -10.5 -36t-40.5 -34q-44 39 -86 39q-12 0 -24 -2.5t-22.5 -7.5t-17 -13t-6.5 -19t10.5 -25.5t26 -28t34 -23t35.5 -9.5q12 0 34.5 6.5t49.5 15.5t56.5 19.5t55.5 18.5q-21 -80 -38 -123q-71 -22 -122 -39.5t-89.5 -35.5t-68.5 -38t-58 -48z" />
    <glyph glyph-name="uni0681.medi" unicode="&#x681;" horiz-adv-x="1261" 
d="M0 350q-40 0 -61.5 5t-29.5 16q-15 21 -15 93q0 82 14 104q7 11 28.5 16.5t63.5 5.5q13 0 45.5 -2t79 -4.5t104 -6t121 -6t129.5 -4.5t129 -2q66 0 125.5 2t118.5 8v7q-56 58 -106.5 105t-96.5 79t-89 49.5t-83 17.5q-22 0 -48.5 -5.5t-54.5 -14.5t-55 -21t-49 -25
q-13 -8 -21 -10.5t-15 -2.5t-7 5q0 1 1 4q7 21 25 48.5t40 54.5t44.5 50t38.5 36q85 67 185 67q43 0 81.5 -12t77 -35.5t79 -57.5t87.5 -77q69 -64 115 -109t85 -74.5t78.5 -45t96.5 -18.5v-240q-2 0 -27.5 -1t-69 -3t-101 -3.5t-124.5 -3.5t-140 -3t-146 -1
q-188 0 -346 4.5t-307 10.5zM471 1159q-1 20 -1 27v18q0 21 2 37t8 29q7 14 16 23t22 19q-32 23 -51.5 46.5t-19.5 61.5q0 28 18.5 61t48.5 61.5t68.5 48t79.5 19.5q38 0 65 -19t27 -50q0 -17 -10.5 -36t-40.5 -34q-44 39 -86 39q-12 0 -24 -2.5t-22.5 -7.5t-17 -13
t-6.5 -19t10.5 -25.5t26 -28t34 -23t35.5 -9.5q12 0 34.5 6.5t49.5 15.5t56.5 19.5t55.5 18.5q-21 -80 -38 -123q-71 -22 -122 -39.5t-89.5 -35.5t-68.5 -38t-58 -48z" />
    <glyph glyph-name="uni0681.fina" unicode="&#x681;" horiz-adv-x="1230" 
d="M570 802v3q-54 19 -112 37.5t-110 18.5q-24 0 -49 -5t-53.5 -20t-61.5 -42t-73 -70q-7 -7 -14.5 -13t-15.5 -6q-9 0 -12 6.5t-1 12.5q11 57 35.5 107.5t48.5 88.5q30 49 63.5 82.5t67.5 54t67 29.5t63 9q71 0 129.5 -20t118.5 -45q32 -14 65.5 -27t70 -23.5t77 -17
t87.5 -6.5q20 0 49 1t58.5 3.5t56 5.5t42.5 7q6 2 6 -3q-6 -23 -16.5 -53.5t-24 -62.5t-27.5 -63t-27 -55q-18 -2 -35.5 -3t-34.5 -3q-2 -5 -3 -11t-1 -12q0 -36 18 -58.5t45 -35.5t58 -18t58 -5h47v-240h-64q-57 0 -103.5 13t-78.5 40.5t-49.5 70.5t-17.5 103q0 29 6 66.5
t17 79.5q-162 -21 -288.5 -66t-213 -108.5t-131.5 -142.5t-45 -169q0 -25 6.5 -60t25 -72.5t51 -74.5t85 -66.5t127 -47.5t175.5 -18q60 0 122 6t122 16.5t115 24t101 28.5q11 4 21 4q18 0 18 -16q0 -7 -3 -12t-11 -15q-66 -77 -141.5 -130.5t-154 -86.5t-156.5 -47.5
t-149 -14.5q-104 0 -189.5 33t-147 94t-95 147t-33.5 192q0 135 38 244.5t98 194.5t134.5 145.5t148.5 96.5zM477 1198q-1 20 -1 27v18q0 21 2 37t8 29q7 14 16 23t22 19q-32 23 -51.5 46.5t-19.5 61.5q0 28 18.5 61t48.5 61.5t68.5 48t79.5 19.5q38 0 65 -19t27 -50
q0 -17 -10.5 -36t-40.5 -34q-44 39 -86 39q-12 0 -24 -2.5t-22.5 -7.5t-17 -13t-6.5 -19t10.5 -25.5t26 -28t34 -23t35.5 -9.5q12 0 34.5 6.5t49.5 15.5t56.5 19.5t55.5 18.5q-21 -80 -38 -123q-71 -22 -122 -39.5t-89.5 -35.5t-68.5 -38t-58 -48z" />
    <glyph glyph-name="uni0682.init" unicode="&#x682;" horiz-adv-x="1372" 
d="M0 350q-40 0 -61.5 5t-29.5 16q-15 21 -15 93q0 82 14 104q7 11 28.5 16.5t63.5 5.5q48 0 95 -2t99.5 -4t114 -4t138.5 -2q94 0 197 3.5t219 16.5v9q-55 56 -106 101.5t-99 78t-92.5 50t-84.5 17.5q-41 0 -89.5 -16.5t-117.5 -56.5q-13 -8 -21 -11.5t-15 -3.5t-7 5
q0 1 1 4q7 21 24 48t39 54t44.5 51t40.5 38q44 35 92 52.5t96 17.5q45 0 83 -11.5t76.5 -35t80.5 -59t94 -83.5q40 -38 71.5 -66t56.5 -49t45.5 -35.5t39.5 -24.5q23 -12 50.5 -18.5t73.5 -6.5h22t31 2q-5 -33 -9 -74.5t-12.5 -78.5t-22.5 -63.5t-39 -30.5
q-81 -13 -166.5 -24t-179.5 -18.5t-198.5 -12t-223.5 -4.5q-20 0 -53.5 0.5t-74 1t-85 1t-87 1.5t-79.5 1.5t-62 1.5zM664 1469q-48 31 -96 61t-97 59q23 38 45.5 76.5t46.5 70.5q45 -27 95 -58t98 -59q-22 -38 -45 -75t-47 -75zM715 1189q-50 30 -98.5 61t-99.5 66
q11 19 21.5 36t21.5 34t22.5 34.5t24.5 37.5q45 -28 97.5 -60.5t100.5 -60.5q-20 -37 -41.5 -72t-48.5 -76z" />
    <glyph glyph-name="uni0682.medi" unicode="&#x682;" horiz-adv-x="1261" 
d="M0 350q-40 0 -61.5 5t-29.5 16q-15 21 -15 93q0 82 14 104q7 11 28.5 16.5t63.5 5.5q13 0 45.5 -2t79 -4.5t104 -6t121 -6t129.5 -4.5t129 -2q66 0 125.5 2t118.5 8v7q-56 58 -106.5 105t-96.5 79t-89 49.5t-83 17.5q-22 0 -48.5 -5.5t-54.5 -14.5t-55 -21t-49 -25
q-13 -8 -21 -10.5t-15 -2.5t-7 5q0 1 1 4q7 21 25 48.5t40 54.5t44.5 50t38.5 36q85 67 185 67q43 0 81.5 -12t77 -35.5t79 -57.5t87.5 -77q69 -64 115 -109t85 -74.5t78.5 -45t96.5 -18.5v-240q-2 0 -27.5 -1t-69 -3t-101 -3.5t-124.5 -3.5t-140 -3t-146 -1
q-188 0 -346 4.5t-307 10.5zM653 1461q-48 31 -96 61t-97 59q23 38 45.5 76.5t46.5 70.5q45 -27 95 -58t98 -59q-22 -38 -45 -75t-47 -75zM704 1181q-50 30 -98.5 61t-99.5 66q11 19 21.5 36t21.5 34t22.5 34.5t24.5 37.5q45 -28 97.5 -60.5t100.5 -60.5q-20 -37 -41.5 -72
t-48.5 -76z" />
    <glyph glyph-name="uni0682.fina" unicode="&#x682;" horiz-adv-x="1230" 
d="M570 802v3q-54 19 -112 37.5t-110 18.5q-24 0 -49 -5t-53.5 -20t-61.5 -42t-73 -70q-7 -7 -14.5 -13t-15.5 -6q-9 0 -12 6.5t-1 12.5q11 57 35.5 107.5t48.5 88.5q30 49 63.5 82.5t67.5 54t67 29.5t63 9q71 0 129.5 -20t118.5 -45q32 -14 65.5 -27t70 -23.5t77 -17
t87.5 -6.5q20 0 49 1t58.5 3.5t56 5.5t42.5 7q6 2 6 -3q-6 -23 -16.5 -53.5t-24 -62.5t-27.5 -63t-27 -55q-18 -2 -35.5 -3t-34.5 -3q-2 -5 -3 -11t-1 -12q0 -36 18 -58.5t45 -35.5t58 -18t58 -5h47v-240h-64q-57 0 -103.5 13t-78.5 40.5t-49.5 70.5t-17.5 103q0 29 6 66.5
t17 79.5q-162 -21 -288.5 -66t-213 -108.5t-131.5 -142.5t-45 -169q0 -25 6.5 -60t25 -72.5t51 -74.5t85 -66.5t127 -47.5t175.5 -18q60 0 122 6t122 16.5t115 24t101 28.5q11 4 21 4q18 0 18 -16q0 -7 -3 -12t-11 -15q-66 -77 -141.5 -130.5t-154 -86.5t-156.5 -47.5
t-149 -14.5q-104 0 -189.5 33t-147 94t-95 147t-33.5 192q0 135 38 244.5t98 194.5t134.5 145.5t148.5 96.5zM683 1466q-48 31 -96 61t-97 59q23 38 45.5 76.5t46.5 70.5q45 -27 95 -58t98 -59q-22 -38 -45 -75t-47 -75zM734 1186q-50 30 -98.5 61t-99.5 66q11 19 21.5 36
t21.5 34t22.5 34.5t24.5 37.5q45 -28 97.5 -60.5t100.5 -60.5q-20 -37 -41.5 -72t-48.5 -76z" />
    <glyph glyph-name="uniFB78" unicode="&#x683;" horiz-adv-x="1372" arabic-form="initial" 
d="M0 350q-40 0 -61.5 5t-29.5 16q-15 21 -15 93q0 82 14 104q7 11 28.5 16.5t63.5 5.5q48 0 95 -2t99.5 -4t114 -4t138.5 -2q94 0 197 3.5t219 16.5v9q-55 56 -106 101.5t-99 78t-92.5 50t-84.5 17.5q-41 0 -89.5 -16.5t-117.5 -56.5q-13 -8 -21 -11.5t-15 -3.5t-7 5
q0 1 1 4q7 21 24 48t39 54t44.5 51t40.5 38q44 35 92 52.5t96 17.5q45 0 83 -11.5t76.5 -35t80.5 -59t94 -83.5q40 -38 71.5 -66t56.5 -49t45.5 -35.5t39.5 -24.5q23 -12 50.5 -18.5t73.5 -6.5h22t31 2q-5 -33 -9 -74.5t-12.5 -78.5t-22.5 -63.5t-39 -30.5
q-81 -13 -166.5 -24t-179.5 -18.5t-198.5 -12t-223.5 -4.5q-20 0 -53.5 0.5t-74 1t-85 1t-87 1.5t-79.5 1.5t-62 1.5zM569 -153l-205 124q10 19 21.5 40t23 41.5t23 39.5t22.5 34q50 -26 98.5 -56t96.5 -62l72 123q60 -32 111.5 -63t89.5 -57q-23 -40 -45 -78t-47 -74
q-23 13 -48 28.5t-49.5 30.5t-47 29.5t-40.5 26.5q-19 -33 -38 -65.5t-38 -61.5z" />
    <glyph glyph-name="uniFB79" unicode="&#x683;" horiz-adv-x="1261" arabic-form="medial" 
d="M0 350q-40 0 -61.5 5t-29.5 16q-15 21 -15 93q0 82 14 104q7 11 28.5 16.5t63.5 5.5q13 0 45.5 -2t79 -4.5t104 -6t121 -6t129.5 -4.5t129 -2q66 0 125.5 2t118.5 8v7q-56 58 -106.5 105t-96.5 79t-89 49.5t-83 17.5q-22 0 -48.5 -5.5t-54.5 -14.5t-55 -21t-49 -25
q-13 -8 -21 -10.5t-15 -2.5t-7 5q0 1 1 4q7 21 25 48.5t40 54.5t44.5 50t38.5 36q85 67 185 67q43 0 81.5 -12t77 -35.5t79 -57.5t87.5 -77q69 -64 115 -109t85 -74.5t78.5 -45t96.5 -18.5v-240q-2 0 -27.5 -1t-69 -3t-101 -3.5t-124.5 -3.5t-140 -3t-146 -1
q-188 0 -346 4.5t-307 10.5zM569 -151l-205 124q10 19 21.5 40t23 41.5t23 39.5t22.5 34q50 -26 98.5 -56t96.5 -62l72 123q60 -32 111.5 -63t89.5 -57q-23 -40 -45 -78t-47 -74q-23 13 -48 28.5t-49.5 30.5t-47 29.5t-40.5 26.5q-19 -33 -38 -65.5t-38 -61.5z" />
    <glyph glyph-name="uniFB77" unicode="&#x683;" horiz-adv-x="1230" arabic-form="final" 
d="M570 802v3q-54 19 -112 37.5t-110 18.5q-24 0 -49 -5t-53.5 -20t-61.5 -42t-73 -70q-7 -7 -14.5 -13t-15.5 -6q-9 0 -12 6.5t-1 12.5q11 57 35.5 107.5t48.5 88.5q30 49 63.5 82.5t67.5 54t67 29.5t63 9q71 0 129.5 -20t118.5 -45q32 -14 65.5 -27t70 -23.5t77 -17
t87.5 -6.5q20 0 49 1t58.5 3.5t56 5.5t42.5 7q6 2 6 -3q-6 -23 -16.5 -53.5t-24 -62.5t-27.5 -63t-27 -55q-18 -2 -35.5 -3t-34.5 -3q-2 -5 -3 -11t-1 -12q0 -36 18 -58.5t45 -35.5t58 -18t58 -5h47v-240h-64q-57 0 -103.5 13t-78.5 40.5t-49.5 70.5t-17.5 103q0 29 6 66.5
t17 79.5q-162 -21 -288.5 -66t-213 -108.5t-131.5 -142.5t-45 -169q0 -25 6.5 -60t25 -72.5t51 -74.5t85 -66.5t127 -47.5t175.5 -18q60 0 122 6t122 16.5t115 24t101 28.5q11 4 21 4q18 0 18 -16q0 -7 -3 -12t-11 -15q-66 -77 -141.5 -130.5t-154 -86.5t-156.5 -47.5
t-149 -14.5q-104 0 -189.5 33t-147 94t-95 147t-33.5 192q0 135 38 244.5t98 194.5t134.5 145.5t148.5 96.5zM604 104l-205 124q10 19 21.5 40t23 41.5t23 39.5t22.5 34q50 -26 98.5 -56t96.5 -62l72 123q60 -32 111.5 -63t89.5 -57q-23 -40 -45 -78t-47 -74
q-23 13 -48 28.5t-49.5 30.5t-47 29.5t-40.5 26.5q-19 -33 -38 -65.5t-38 -61.5z" />
    <glyph glyph-name="uniFB74" unicode="&#x684;" horiz-adv-x="1372" arabic-form="initial" 
d="M0 350q-40 0 -61.5 5t-29.5 16q-15 21 -15 93q0 82 14 104q7 11 28.5 16.5t63.5 5.5q48 0 95 -2t99.5 -4t114 -4t138.5 -2q94 0 197 3.5t219 16.5v9q-55 56 -106 101.5t-99 78t-92.5 50t-84.5 17.5q-41 0 -89.5 -16.5t-117.5 -56.5q-13 -8 -21 -11.5t-15 -3.5t-7 5
q0 1 1 4q7 21 24 48t39 54t44.5 51t40.5 38q44 35 92 52.5t96 17.5q45 0 83 -11.5t76.5 -35t80.5 -59t94 -83.5q40 -38 71.5 -66t56.5 -49t45.5 -35.5t39.5 -24.5q23 -12 50.5 -18.5t73.5 -6.5h22t31 2q-5 -33 -9 -74.5t-12.5 -78.5t-22.5 -63.5t-39 -30.5
q-81 -13 -166.5 -24t-179.5 -18.5t-198.5 -12t-223.5 -4.5q-20 0 -53.5 0.5t-74 1t-85 1t-87 1.5t-79.5 1.5t-62 1.5zM699 -67q-48 31 -96 61t-97 59q23 38 45.5 76.5t46.5 70.5q45 -27 95 -58t98 -59q-22 -38 -45 -75t-47 -75zM750 -347q-50 30 -98.5 61t-99.5 66
q11 19 21.5 36t21.5 34t22.5 34.5t24.5 37.5q45 -28 97.5 -60.5t100.5 -60.5q-20 -37 -41.5 -72t-48.5 -76z" />
    <glyph glyph-name="uniFB75" unicode="&#x684;" horiz-adv-x="1261" arabic-form="medial" 
d="M0 350q-40 0 -61.5 5t-29.5 16q-15 21 -15 93q0 82 14 104q7 11 28.5 16.5t63.5 5.5q13 0 45.5 -2t79 -4.5t104 -6t121 -6t129.5 -4.5t129 -2q66 0 125.5 2t118.5 8v7q-56 58 -106.5 105t-96.5 79t-89 49.5t-83 17.5q-22 0 -48.5 -5.5t-54.5 -14.5t-55 -21t-49 -25
q-13 -8 -21 -10.5t-15 -2.5t-7 5q0 1 1 4q7 21 25 48.5t40 54.5t44.5 50t38.5 36q85 67 185 67q43 0 81.5 -12t77 -35.5t79 -57.5t87.5 -77q69 -64 115 -109t85 -74.5t78.5 -45t96.5 -18.5v-240q-2 0 -27.5 -1t-69 -3t-101 -3.5t-124.5 -3.5t-140 -3t-146 -1
q-188 0 -346 4.5t-307 10.5zM699 -67q-48 31 -96 61t-97 59q23 38 45.5 76.5t46.5 70.5q45 -27 95 -58t98 -59q-22 -38 -45 -75t-47 -75zM750 -347q-50 30 -98.5 61t-99.5 66q11 19 21.5 36t21.5 34t22.5 34.5t24.5 37.5q45 -28 97.5 -60.5t100.5 -60.5q-20 -37 -41.5 -72
t-48.5 -76z" />
    <glyph glyph-name="uniFB73" unicode="&#x684;" horiz-adv-x="1230" arabic-form="final" 
d="M570 802v3q-54 19 -112 37.5t-110 18.5q-24 0 -49 -5t-53.5 -20t-61.5 -42t-73 -70q-7 -7 -14.5 -13t-15.5 -6q-9 0 -12 6.5t-1 12.5q11 57 35.5 107.5t48.5 88.5q30 49 63.5 82.5t67.5 54t67 29.5t63 9q71 0 129.5 -20t118.5 -45q32 -14 65.5 -27t70 -23.5t77 -17
t87.5 -6.5q20 0 49 1t58.5 3.5t56 5.5t42.5 7q6 2 6 -3q-6 -23 -16.5 -53.5t-24 -62.5t-27.5 -63t-27 -55q-18 -2 -35.5 -3t-34.5 -3q-2 -5 -3 -11t-1 -12q0 -36 18 -58.5t45 -35.5t58 -18t58 -5h47v-240h-64q-57 0 -103.5 13t-78.5 40.5t-49.5 70.5t-17.5 103q0 29 6 66.5
t17 79.5q-162 -21 -288.5 -66t-213 -108.5t-131.5 -142.5t-45 -169q0 -25 6.5 -60t25 -72.5t51 -74.5t85 -66.5t127 -47.5t175.5 -18q60 0 122 6t122 16.5t115 24t101 28.5q11 4 21 4q18 0 18 -16q0 -7 -3 -12t-11 -15q-66 -77 -141.5 -130.5t-154 -86.5t-156.5 -47.5
t-149 -14.5q-104 0 -189.5 33t-147 94t-95 147t-33.5 192q0 135 38 244.5t98 194.5t134.5 145.5t148.5 96.5zM709 258q-48 31 -96 61t-97 59q23 38 45.5 76.5t46.5 70.5q45 -27 95 -58t98 -59q-22 -38 -45 -75t-47 -75zM760 -22q-50 30 -98.5 61t-99.5 66q11 19 21.5 36
t21.5 34t22.5 34.5t24.5 37.5q45 -28 97.5 -60.5t100.5 -60.5q-20 -37 -41.5 -72t-48.5 -76z" />
    <glyph glyph-name="uni0685.init" unicode="&#x685;" horiz-adv-x="1372" 
d="M0 350q-40 0 -61.5 5t-29.5 16q-15 21 -15 93q0 82 14 104q7 11 28.5 16.5t63.5 5.5q48 0 95 -2t99.5 -4t114 -4t138.5 -2q94 0 197 3.5t219 16.5v9q-55 56 -106 101.5t-99 78t-92.5 50t-84.5 17.5q-41 0 -89.5 -16.5t-117.5 -56.5q-13 -8 -21 -11.5t-15 -3.5t-7 5
q0 1 1 4q7 21 24 48t39 54t44.5 51t40.5 38q44 35 92 52.5t96 17.5q45 0 83 -11.5t76.5 -35t80.5 -59t94 -83.5q40 -38 71.5 -66t56.5 -49t45.5 -35.5t39.5 -24.5q23 -12 50.5 -18.5t73.5 -6.5h22t31 2q-5 -33 -9 -74.5t-12.5 -78.5t-22.5 -63.5t-39 -30.5
q-81 -13 -166.5 -24t-179.5 -18.5t-198.5 -12t-223.5 -4.5q-20 0 -53.5 0.5t-74 1t-85 1t-87 1.5t-79.5 1.5t-62 1.5zM582 1186q-48 29 -96 57.5t-95 57.5q23 40 42.5 74t45.5 69q45 -26 88.5 -52t92.5 -55q20 33 39 63t37 57q43 -26 91.5 -56t93.5 -62q-11 -19 -23.5 -39
t-25 -39t-23.5 -34.5t-18 -24.5q-42 26 -84.5 52.5t-84.5 52.5q-20 -28 -39.5 -58.5t-40.5 -62.5zM627 1447q-48 29 -93 55.5t-89 52.5q19 36 40.5 71t47.5 67l182 -109q-5 -9 -14 -24.5t-21 -35t-25.5 -39.5t-27.5 -38z" />
    <glyph glyph-name="uni0685.medi" unicode="&#x685;" horiz-adv-x="1261" 
d="M0 350q-40 0 -61.5 5t-29.5 16q-15 21 -15 93q0 82 14 104q7 11 28.5 16.5t63.5 5.5q13 0 45.5 -2t79 -4.5t104 -6t121 -6t129.5 -4.5t129 -2q66 0 125.5 2t118.5 8v7q-56 58 -106.5 105t-96.5 79t-89 49.5t-83 17.5q-22 0 -48.5 -5.5t-54.5 -14.5t-55 -21t-49 -25
q-13 -8 -21 -10.5t-15 -2.5t-7 5q0 1 1 4q7 21 25 48.5t40 54.5t44.5 50t38.5 36q85 67 185 67q43 0 81.5 -12t77 -35.5t79 -57.5t87.5 -77q69 -64 115 -109t85 -74.5t78.5 -45t96.5 -18.5v-240q-2 0 -27.5 -1t-69 -3t-101 -3.5t-124.5 -3.5t-140 -3t-146 -1
q-188 0 -346 4.5t-307 10.5zM579 1181q-48 29 -96 57.5t-95 57.5q23 40 42.5 74t45.5 69q45 -26 88.5 -52t92.5 -55q20 33 39 63t37 57q43 -26 91.5 -56t93.5 -62q-11 -19 -23.5 -39t-25 -39t-23.5 -34.5t-18 -24.5q-42 26 -84.5 52.5t-84.5 52.5q-20 -28 -39.5 -58.5
t-40.5 -62.5zM624 1442q-48 29 -93 55.5t-89 52.5q19 36 40.5 71t47.5 67l182 -109q-5 -9 -14 -24.5t-21 -35t-25.5 -39.5t-27.5 -38z" />
    <glyph glyph-name="uni0685.fina" unicode="&#x685;" horiz-adv-x="1230" 
d="M570 802v3q-54 19 -112 37.5t-110 18.5q-24 0 -49 -5t-53.5 -20t-61.5 -42t-73 -70q-7 -7 -14.5 -13t-15.5 -6q-9 0 -12 6.5t-1 12.5q11 57 35.5 107.5t48.5 88.5q30 49 63.5 82.5t67.5 54t67 29.5t63 9q71 0 129.5 -20t118.5 -45q32 -14 65.5 -27t70 -23.5t77 -17
t87.5 -6.5q20 0 49 1t58.5 3.5t56 5.5t42.5 7q6 2 6 -3q-6 -23 -16.5 -53.5t-24 -62.5t-27.5 -63t-27 -55q-18 -2 -35.5 -3t-34.5 -3q-2 -5 -3 -11t-1 -12q0 -36 18 -58.5t45 -35.5t58 -18t58 -5h47v-240h-64q-57 0 -103.5 13t-78.5 40.5t-49.5 70.5t-17.5 103q0 29 6 66.5
t17 79.5q-162 -21 -288.5 -66t-213 -108.5t-131.5 -142.5t-45 -169q0 -25 6.5 -60t25 -72.5t51 -74.5t85 -66.5t127 -47.5t175.5 -18q60 0 122 6t122 16.5t115 24t101 28.5q11 4 21 4q18 0 18 -16q0 -7 -3 -12t-11 -15q-66 -77 -141.5 -130.5t-154 -86.5t-156.5 -47.5
t-149 -14.5q-104 0 -189.5 33t-147 94t-95 147t-33.5 192q0 135 38 244.5t98 194.5t134.5 145.5t148.5 96.5zM604 1201q-48 29 -96 57.5t-95 57.5q23 40 42.5 74t45.5 69q45 -26 88.5 -52t92.5 -55q20 33 39 63t37 57q43 -26 91.5 -56t93.5 -62q-11 -19 -23.5 -39t-25 -39
t-23.5 -34.5t-18 -24.5q-42 26 -84.5 52.5t-84.5 52.5q-20 -28 -39.5 -58.5t-40.5 -62.5zM649 1462q-48 29 -93 55.5t-89 52.5q19 36 40.5 71t47.5 67l182 -109q-5 -9 -14 -24.5t-21 -35t-25.5 -39.5t-27.5 -38z" />
    <glyph glyph-name="uniFB7C" unicode="&#x686;" horiz-adv-x="1372" arabic-form="initial" 
d="M0 350q-40 0 -61.5 5t-29.5 16q-15 21 -15 93q0 82 14 104q7 11 28.5 16.5t63.5 5.5q48 0 95 -2t99.5 -4t114 -4t138.5 -2q94 0 197 3.5t219 16.5v9q-55 56 -106 101.5t-99 78t-92.5 50t-84.5 17.5q-41 0 -89.5 -16.5t-117.5 -56.5q-13 -8 -21 -11.5t-15 -3.5t-7 5
q0 1 1 4q7 21 24 48t39 54t44.5 51t40.5 38q44 35 92 52.5t96 17.5q45 0 83 -11.5t76.5 -35t80.5 -59t94 -83.5q40 -38 71.5 -66t56.5 -49t45.5 -35.5t39.5 -24.5q23 -12 50.5 -18.5t73.5 -6.5h22t31 2q-5 -33 -9 -74.5t-12.5 -78.5t-22.5 -63.5t-39 -30.5
q-81 -13 -166.5 -24t-179.5 -18.5t-198.5 -12t-223.5 -4.5q-20 0 -53.5 0.5t-74 1t-85 1t-87 1.5t-79.5 1.5t-62 1.5zM723 193q47 -31 94 -61.5t92 -61.5q-24 -38 -45 -71.5t-48 -67.5q-44 28 -86.5 55.5t-90.5 58.5q-42 -65 -81 -117q-42 27 -88.5 59.5t-91.5 65.5
q12 18 25.5 38t26.5 38.5t24.5 33.5t19.5 24l82 -56l82 -56q21 27 41.5 57t43.5 61zM664 -57q46 -32 91 -60.5t87 -56.5q-20 -35 -43 -70t-51 -67l-179 118q5 9 15 24.5t23 34.5t27.5 39.5t29.5 37.5z" />
    <glyph glyph-name="uniFB7D" unicode="&#x686;" horiz-adv-x="1261" arabic-form="medial" 
d="M0 350q-40 0 -61.5 5t-29.5 16q-15 21 -15 93q0 82 14 104q7 11 28.5 16.5t63.5 5.5q13 0 45.5 -2t79 -4.5t104 -6t121 -6t129.5 -4.5t129 -2q66 0 125.5 2t118.5 8v7q-56 58 -106.5 105t-96.5 79t-89 49.5t-83 17.5q-22 0 -48.5 -5.5t-54.5 -14.5t-55 -21t-49 -25
q-13 -8 -21 -10.5t-15 -2.5t-7 5q0 1 1 4q7 21 25 48.5t40 54.5t44.5 50t38.5 36q85 67 185 67q43 0 81.5 -12t77 -35.5t79 -57.5t87.5 -77q69 -64 115 -109t85 -74.5t78.5 -45t96.5 -18.5v-240q-2 0 -27.5 -1t-69 -3t-101 -3.5t-124.5 -3.5t-140 -3t-146 -1
q-188 0 -346 4.5t-307 10.5zM723 193q47 -31 94 -61.5t92 -61.5q-24 -38 -45 -71.5t-48 -67.5q-44 28 -86.5 55.5t-90.5 58.5q-42 -65 -81 -117q-42 27 -88.5 59.5t-91.5 65.5q12 18 25.5 38t26.5 38.5t24.5 33.5t19.5 24l82 -56l82 -56q21 27 41.5 57t43.5 61zM664 -57
q46 -32 91 -60.5t87 -56.5q-20 -35 -43 -70t-51 -67l-179 118q5 9 15 24.5t23 34.5t27.5 39.5t29.5 37.5z" />
    <glyph glyph-name="uniFB7B" unicode="&#x686;" horiz-adv-x="1230" arabic-form="final" 
d="M570 802v3q-54 19 -112 37.5t-110 18.5q-24 0 -49 -5t-53.5 -20t-61.5 -42t-73 -70q-7 -7 -14.5 -13t-15.5 -6q-9 0 -12 6.5t-1 12.5q11 57 35.5 107.5t48.5 88.5q30 49 63.5 82.5t67.5 54t67 29.5t63 9q71 0 129.5 -20t118.5 -45q32 -14 65.5 -27t70 -23.5t77 -17
t87.5 -6.5q20 0 49 1t58.5 3.5t56 5.5t42.5 7q6 2 6 -3q-6 -23 -16.5 -53.5t-24 -62.5t-27.5 -63t-27 -55q-18 -2 -35.5 -3t-34.5 -3q-2 -5 -3 -11t-1 -12q0 -36 18 -58.5t45 -35.5t58 -18t58 -5h47v-240h-64q-57 0 -103.5 13t-78.5 40.5t-49.5 70.5t-17.5 103q0 29 6 66.5
t17 79.5q-162 -21 -288.5 -66t-213 -108.5t-131.5 -142.5t-45 -169q0 -25 6.5 -60t25 -72.5t51 -74.5t85 -66.5t127 -47.5t175.5 -18q60 0 122 6t122 16.5t115 24t101 28.5q11 4 21 4q18 0 18 -16q0 -7 -3 -12t-11 -15q-66 -77 -141.5 -130.5t-154 -86.5t-156.5 -47.5
t-149 -14.5q-104 0 -189.5 33t-147 94t-95 147t-33.5 192q0 135 38 244.5t98 194.5t134.5 145.5t148.5 96.5zM735 467q43 -28 86 -55.5t84 -55.5q-22 -35 -41 -65.5t-44 -61.5q-40 25 -81 52.5t-85 56.5q-19 -29 -40 -59t-39 -53q-38 24 -81 53.5t-83 59.5q10 17 22.5 35
t24.5 35t22.5 31t18.5 22q36 -26 76.5 -53t77.5 -53q19 26 40.5 54.5t41.5 56.5zM676 236q42 -29 83.5 -54.5t79.5 -51.5q-19 -32 -39.5 -64t-46.5 -61l-163 107q4 8 13.5 22.5t21 31.5t25 35.5t26.5 34.5z" />
    <glyph glyph-name="uniFB80" unicode="&#x687;" horiz-adv-x="1372" arabic-form="initial" 
d="M0 350q-40 0 -61.5 5t-29.5 16q-15 21 -15 93q0 82 14 104q7 11 28.5 16.5t63.5 5.5q48 0 95 -2t99.5 -4t114 -4t138.5 -2q94 0 197 3.5t219 16.5v9q-55 56 -106 101.5t-99 78t-92.5 50t-84.5 17.5q-41 0 -89.5 -16.5t-117.5 -56.5q-13 -8 -21 -11.5t-15 -3.5t-7 5
q0 1 1 4q7 21 24 48t39 54t44.5 51t40.5 38q44 35 92 52.5t96 17.5q45 0 83 -11.5t76.5 -35t80.5 -59t94 -83.5q40 -38 71.5 -66t56.5 -49t45.5 -35.5t39.5 -24.5q23 -12 50.5 -18.5t73.5 -6.5h22t31 2q-5 -33 -9 -74.5t-12.5 -78.5t-22.5 -63.5t-39 -30.5
q-81 -13 -166.5 -24t-179.5 -18.5t-198.5 -12t-223.5 -4.5q-20 0 -53.5 0.5t-74 1t-85 1t-87 1.5t-79.5 1.5t-62 1.5zM557 -71q-45 29 -91 57.5t-93 56.5q22 37 43.5 74t44.5 67q43 -26 85.5 -52.5t87.5 -52.5q10 18 19 32.5t17.5 29t17.5 28.5t20 31q16 -9 39.5 -22
t49.5 -28t52 -30.5t49 -30.5q-21 -38 -42.5 -74.5t-44.5 -71.5q-19 10 -42 23.5t-47 28.5t-46.5 30l-40.5 27zM621 -337q-47 29 -93.5 58.5t-94.5 61.5q22 37 41 67t45 68q43 -26 89.5 -54t91.5 -54q10 18 19.5 32.5t18.5 28t18.5 27t20.5 30.5q17 -10 40.5 -23.5t49 -28
t51 -30t46.5 -28.5q-21 -38 -40 -72t-42 -69q-23 12 -49 27t-51 30t-47 29t-37 24q-17 -29 -35.5 -60t-41.5 -64z" />
    <glyph glyph-name="uniFB81" unicode="&#x687;" horiz-adv-x="1261" arabic-form="medial" 
d="M0 350q-40 0 -61.5 5t-29.5 16q-15 21 -15 93q0 82 14 104q7 11 28.5 16.5t63.5 5.5q13 0 45.5 -2t79 -4.5t104 -6t121 -6t129.5 -4.5t129 -2q66 0 125.5 2t118.5 8v7q-56 58 -106.5 105t-96.5 79t-89 49.5t-83 17.5q-22 0 -48.5 -5.5t-54.5 -14.5t-55 -21t-49 -25
q-13 -8 -21 -10.5t-15 -2.5t-7 5q0 1 1 4q7 21 25 48.5t40 54.5t44.5 50t38.5 36q85 67 185 67q43 0 81.5 -12t77 -35.5t79 -57.5t87.5 -77q69 -64 115 -109t85 -74.5t78.5 -45t96.5 -18.5v-240q-2 0 -27.5 -1t-69 -3t-101 -3.5t-124.5 -3.5t-140 -3t-146 -1
q-188 0 -346 4.5t-307 10.5zM556 -71q-45 29 -91 57.5t-93 56.5q22 37 43.5 74t44.5 67q43 -26 85.5 -52.5t87.5 -52.5q10 18 19 32.5t17.5 29t17.5 28.5t20 31q16 -9 39.5 -22t49.5 -28t52 -30.5t49 -30.5q-21 -38 -42.5 -74.5t-44.5 -71.5q-19 10 -42 23.5t-47 28.5
t-46.5 30l-40.5 27zM620 -337q-47 29 -93.5 58.5t-94.5 61.5q22 37 41 67t45 68q43 -26 89.5 -54t91.5 -54q10 18 19.5 32.5t18.5 28t18.5 27t20.5 30.5q17 -10 40.5 -23.5t49 -28t51 -30t46.5 -28.5q-21 -38 -40 -72t-42 -69q-23 12 -49 27t-51 30t-47 29t-37 24
q-17 -29 -35.5 -60t-41.5 -64z" />
    <glyph glyph-name="uniFB7F" unicode="&#x687;" horiz-adv-x="1230" arabic-form="final" 
d="M570 802v3q-54 19 -112 37.5t-110 18.5q-24 0 -49 -5t-53.5 -20t-61.5 -42t-73 -70q-7 -7 -14.5 -13t-15.5 -6q-9 0 -12 6.5t-1 12.5q11 57 35.5 107.5t48.5 88.5q30 49 63.5 82.5t67.5 54t67 29.5t63 9q71 0 129.5 -20t118.5 -45q32 -14 65.5 -27t70 -23.5t77 -17
t87.5 -6.5q20 0 49 1t58.5 3.5t56 5.5t42.5 7q6 2 6 -3q-6 -23 -16.5 -53.5t-24 -62.5t-27.5 -63t-27 -55q-18 -2 -35.5 -3t-34.5 -3q-2 -5 -3 -11t-1 -12q0 -36 18 -58.5t45 -35.5t58 -18t58 -5h47v-240h-64q-57 0 -103.5 13t-78.5 40.5t-49.5 70.5t-17.5 103q0 29 6 66.5
t17 79.5q-162 -21 -288.5 -66t-213 -108.5t-131.5 -142.5t-45 -169q0 -25 6.5 -60t25 -72.5t51 -74.5t85 -66.5t127 -47.5t175.5 -18q60 0 122 6t122 16.5t115 24t101 28.5q11 4 21 4q18 0 18 -16q0 -7 -3 -12t-11 -15q-66 -77 -141.5 -130.5t-154 -86.5t-156.5 -47.5
t-149 -14.5q-104 0 -189.5 33t-147 94t-95 147t-33.5 192q0 135 38 244.5t98 194.5t134.5 145.5t148.5 96.5zM585 247q-40 26 -80.5 51.5t-82.5 50.5q19 32 38.5 65t39.5 60q38 -23 75.5 -46.5t78.5 -46.5q18 31 31.5 54t33.5 53q14 -8 34.5 -19.5t43.5 -25t46.5 -27.5
t43.5 -27q-18 -34 -37.5 -66t-39.5 -63q-17 9 -37 21t-41 25t-41 26t-36 24zM637 7q-42 26 -83 51.5t-84 54.5q10 16 18.5 30.5t17.5 28.5t19 29t21 32q38 -24 79 -48.5t82 -47.5q18 31 33 53t35 52q15 -9 36 -21t43.5 -25t45 -26.5t40.5 -25.5q-18 -34 -35 -64t-37 -61
q-21 11 -44 24t-45 26.5t-41.5 26t-32.5 21.5q-16 -26 -31.5 -53.5t-36.5 -56.5z" />
    <glyph glyph-name="uniFB89" unicode="&#x688;" horiz-adv-x="697" arabic-form="final" 
d="M405 909q42 107 113 217q179 -265 179 -629q0 -116 -15 -137q-7 -10 -37 -20.5t-72.5 -20t-93 -18.5t-98.5 -15.5t-88.5 -10.5t-62.5 -4q-152 0 -152 183q0 76 16 159q16 87 30 87q8 0 12.5 -14t7 -32.5t4.5 -38t5 -30.5q4 -15 13 -28.5t24 -23.5t37 -15.5t54 -5.5
q21 0 59 4.5t78.5 11.5t77.5 16t57 17q-8 169 -148 348zM302 1383q10 -1 27.5 -2t36 -1.5t35.5 -0.5h28q27 0 50.5 1.5t41.5 4t28 6t10 7.5q0 3 -6 15.5t-18.5 27t-32 25.5t-46.5 11q-56 0 -155 -93zM335 1749q4 -44 6.5 -82.5t2.5 -72.5q0 -37 -3.5 -65.5t-8.5 -48.5l2 -2
q18 19 37 36.5t38.5 31t40 21.5t41.5 8q28 0 51.5 -16.5t41 -42t27 -55.5t9.5 -57q0 -42 -12.5 -72.5t-35.5 -39.5q-7 -3 -18 -6.5t-29 -7t-45 -5.5t-66 -2q-15 0 -39.5 0.5t-53 2.5t-59 5.5t-57.5 10.5q-24 14 -47 48t-38 66q4 0 11.5 -0.5t16 -1t15.5 -1t10 -0.5
q44 0 61 10.5t17 42.5q0 35 -5 87t-13 116q21 20 48 45.5t54 46.5z" />
    <glyph glyph-name="uni0689.fina" unicode="&#x689;" horiz-adv-x="697" 
d="M440 26q-60 0 -93 36t-33 92q0 34 9 67t26 60q-38 -5 -69 -7.5t-50 -2.5q-152 0 -152 183q0 76 16 159q16 87 30 87q8 0 12.5 -14t7 -32.5t4.5 -38t5 -30.5q4 -15 13 -28.5t24 -23.5t37 -15.5t54 -5.5q21 0 59 4.5t78.5 11.5t77.5 16t57 17q-8 169 -148 348
q42 107 113 217q179 -265 179 -629q0 -116 -15 -137q-8 -11 -45 -23t-88 -23q20 -21 31.5 -49t11.5 -56q0 -34 -8 -66.5t-26 -58.5t-47 -42t-71 -16zM450 280q-14 0 -27.5 -9.5t-24.5 -24t-17.5 -31t-6.5 -30.5q0 -28 20.5 -42.5t49.5 -14.5q16 0 31.5 2.5t27.5 8.5
t19.5 16.5t7.5 26.5q0 13 -6 30t-16.5 32t-25 25.5t-32.5 10.5z" />
    <glyph glyph-name="uni068A.fina" unicode="&#x68a;" horiz-adv-x="697" 
d="M405 909q42 107 113 217q179 -265 179 -629q0 -116 -15 -137q-7 -10 -37 -20.5t-72.5 -20t-93 -18.5t-98.5 -15.5t-88.5 -10.5t-62.5 -4q-152 0 -152 183q0 76 16 159q16 87 30 87q8 0 12.5 -14t7 -32.5t4.5 -38t5 -30.5q4 -15 13 -28.5t24 -23.5t37 -15.5t54 -5.5
q21 0 59 4.5t78.5 11.5t77.5 16t57 17q-8 169 -148 348zM483 -200l-215 131q11 21 25 45t29 47.5t28.5 44t23.5 34.5q22 -13 50.5 -30t57.5 -36t57 -37t50 -33q-9 -17 -22 -39t-27.5 -45t-29.5 -44.5t-27 -37.5z" />
    <glyph glyph-name="uni068B.fina" unicode="&#x68b;" horiz-adv-x="697" 
d="M405 909q42 107 113 217q179 -265 179 -629q0 -116 -15 -137q-7 -10 -37 -20.5t-72.5 -20t-93 -18.5t-98.5 -15.5t-88.5 -10.5t-62.5 -4q-152 0 -152 183q0 76 16 159q16 87 30 87q8 0 12.5 -14t7 -32.5t4.5 -38t5 -30.5q4 -15 13 -28.5t24 -23.5t37 -15.5t54 -5.5
q21 0 59 4.5t78.5 11.5t77.5 16t57 17q-8 169 -148 348zM302 1383q10 -1 27.5 -2t36 -1.5t35.5 -0.5h28q27 0 50.5 1.5t41.5 4t28 6t10 7.5q0 3 -6 15.5t-18.5 27t-32 25.5t-46.5 11q-56 0 -155 -93zM335 1749q4 -44 6.5 -82.5t2.5 -72.5q0 -37 -3.5 -65.5t-8.5 -48.5l2 -2
q18 19 37 36.5t38.5 31t40 21.5t41.5 8q28 0 51.5 -16.5t41 -42t27 -55.5t9.5 -57q0 -42 -12.5 -72.5t-35.5 -39.5q-7 -3 -18 -6.5t-29 -7t-45 -5.5t-66 -2q-15 0 -39.5 0.5t-53 2.5t-59 5.5t-57.5 10.5q-24 14 -47 48t-38 66q4 0 11.5 -0.5t16 -1t15.5 -1t10 -0.5
q44 0 61 10.5t17 42.5q0 35 -5 87t-13 116q21 20 48 45.5t54 46.5zM483 -200l-215 131q11 21 25 45t29 47.5t28.5 44t23.5 34.5q22 -13 50.5 -30t57.5 -36t57 -37t50 -33q-9 -17 -22 -39t-27.5 -45t-29.5 -44.5t-27 -37.5z" />
    <glyph glyph-name="uniFB85" unicode="&#x68c;" horiz-adv-x="697" arabic-form="final" 
d="M405 909q42 107 113 217q179 -265 179 -629q0 -116 -15 -137q-7 -10 -37 -20.5t-72.5 -20t-93 -18.5t-98.5 -15.5t-88.5 -10.5t-62.5 -4q-152 0 -152 183q0 76 16 159q16 87 30 87q8 0 12.5 -14t7 -32.5t4.5 -38t5 -30.5q4 -15 13 -28.5t24 -23.5t37 -15.5t54 -5.5
q21 0 59 4.5t78.5 11.5t77.5 16t57 17q-8 169 -148 348zM279 1238l-205 124q10 19 21.5 40t23 41.5t23 39.5t22.5 34q50 -26 98.5 -56t96.5 -62l72 123q60 -32 111.5 -63t89.5 -57q-23 -40 -45 -78t-47 -74q-23 13 -48 28.5t-49.5 30.5t-47 29.5t-40.5 26.5
q-19 -33 -38 -65.5t-38 -61.5z" />
    <glyph glyph-name="uniFB83" unicode="&#x68d;" horiz-adv-x="697" arabic-form="final" 
d="M405 909q42 107 113 217q179 -265 179 -629q0 -116 -15 -137q-7 -10 -37 -20.5t-72.5 -20t-93 -18.5t-98.5 -15.5t-88.5 -10.5t-62.5 -4q-152 0 -152 183q0 76 16 159q16 87 30 87q8 0 12.5 -14t7 -32.5t4.5 -38t5 -30.5q4 -15 13 -28.5t24 -23.5t37 -15.5t54 -5.5
q21 0 59 4.5t78.5 11.5t77.5 16t57 17q-8 169 -148 348zM349 -181l-205 124q10 19 21.5 40t23 41.5t23 39.5t22.5 34q50 -26 98.5 -56t96.5 -62l72 123q60 -32 111.5 -63t89.5 -57q-23 -40 -45 -78t-47 -74q-23 13 -48 28.5t-49.5 30.5t-47 29.5t-40.5 26.5
q-19 -33 -38 -65.5t-38 -61.5z" />
    <glyph glyph-name="uniFB87" unicode="&#x68e;" horiz-adv-x="697" arabic-form="final" 
d="M405 909q42 107 113 217q179 -265 179 -629q0 -116 -15 -137q-7 -10 -37 -20.5t-72.5 -20t-93 -18.5t-98.5 -15.5t-88.5 -10.5t-62.5 -4q-152 0 -152 183q0 76 16 159q16 87 30 87q8 0 12.5 -14t7 -32.5t4.5 -38t5 -30.5q4 -15 13 -28.5t24 -23.5t37 -15.5t54 -5.5
q21 0 59 4.5t78.5 11.5t77.5 16t57 17q-8 169 -148 348zM279 1230q-48 29 -96 57.5t-95 57.5q23 40 42.5 74t45.5 69q45 -26 88.5 -52t92.5 -55q20 33 39 63t37 57q43 -26 91.5 -56t93.5 -62q-11 -19 -23.5 -39t-25 -39t-23.5 -34.5t-18 -24.5q-42 26 -84.5 52.5t-84.5 52.5
q-20 -28 -39.5 -58.5t-40.5 -62.5zM324 1491q-48 29 -93 55.5t-89 52.5q19 36 40.5 71t47.5 67l182 -109q-5 -9 -14 -24.5t-21 -35t-25.5 -39.5t-27.5 -38z" />
    <glyph glyph-name="uni068F.fina" unicode="&#x68f;" horiz-adv-x="697" 
d="M405 909q42 107 113 217q179 -265 179 -629q0 -116 -15 -137q-7 -10 -37 -20.5t-72.5 -20t-93 -18.5t-98.5 -15.5t-88.5 -10.5t-62.5 -4q-152 0 -152 183q0 76 16 159q16 87 30 87q8 0 12.5 -14t7 -32.5t4.5 -38t5 -30.5q4 -15 13 -28.5t24 -23.5t37 -15.5t54 -5.5
q21 0 59 4.5t78.5 11.5t77.5 16t57 17q-8 169 -148 348zM430 1738q47 -31 94 -61.5t92 -61.5q-24 -38 -45 -71.5t-48 -67.5q-44 28 -86.5 55.5t-90.5 58.5q-42 -65 -81 -117q-42 27 -88.5 59.5t-91.5 65.5q12 18 25.5 38t26.5 38.5t24.5 33.5t19.5 24l82 -56l82 -56
q21 27 41.5 57t43.5 61zM371 1488q46 -32 91 -60.5t87 -56.5q-20 -35 -43 -70t-51 -67l-179 118q5 9 15 24.5t23 34.5t27.5 39.5t29.5 37.5z" />
    <glyph glyph-name="uni0690.fina" unicode="&#x690;" horiz-adv-x="697" 
d="M405 909q42 107 113 217q179 -265 179 -629q0 -116 -15 -137q-7 -10 -37 -20.5t-72.5 -20t-93 -18.5t-98.5 -15.5t-88.5 -10.5t-62.5 -4q-152 0 -152 183q0 76 16 159q16 87 30 87q8 0 12.5 -14t7 -32.5t4.5 -38t5 -30.5q4 -15 13 -28.5t24 -23.5t37 -15.5t54 -5.5
q21 0 59 4.5t78.5 11.5t77.5 16t57 17q-8 169 -148 348zM218 1500q-45 29 -91 57.5t-93 56.5q22 37 43.5 74t44.5 67q43 -26 85.5 -52.5t87.5 -52.5q10 18 19 32.5t17.5 29t17.5 28.5t20 31q16 -9 39.5 -22t49.5 -28t52 -30.5t49 -30.5q-21 -38 -42.5 -74.5t-44.5 -71.5
q-19 10 -42 23.5t-47 28.5t-46.5 30l-40.5 27zM282 1234q-47 29 -93.5 58.5t-94.5 61.5q22 37 41 67t45 68q43 -26 89.5 -54t91.5 -54q10 18 19.5 32.5t18.5 28t18.5 27t20.5 30.5q17 -10 40.5 -23.5t49 -28t51 -30t46.5 -28.5q-21 -38 -40 -72t-42 -69q-23 12 -49 27
t-51 30t-47 29t-37 24q-17 -29 -35.5 -60t-41.5 -64z" />
    <glyph glyph-name="uni06EE.fina" unicode="&#x6ee;" horiz-adv-x="697" 
d="M405 909q42 107 113 217q179 -265 179 -629q0 -116 -15 -137q-7 -10 -37 -20.5t-72.5 -20t-93 -18.5t-98.5 -15.5t-88.5 -10.5t-62.5 -4q-152 0 -152 183q0 76 16 159q16 87 30 87q8 0 12.5 -14t7 -32.5t4.5 -38t5 -30.5q4 -15 13 -28.5t24 -23.5t37 -15.5t54 -5.5
q21 0 59 4.5t78.5 11.5t77.5 16t57 17q-8 169 -148 348zM478 1563q33 -62 82.5 -125.5t106.5 -133.5q5 -7 2 -20t-12 -29.5t-22 -35t-28 -36.5q-46 58 -79 107.5t-62 105.5q-26 -48 -61 -101t-79 -112q-6 9 -14.5 22t-16.5 27t-14 27t-9 22q27 35 52.5 68.5t50 67t49 69.5
t50.5 77h4z" />
    <glyph glyph-name="uniFB8D" unicode="&#x691;" horiz-adv-x="785" arabic-form="final" 
d="M486 593q20 55 50.5 114.5t63.5 110.5q53 -45 88.5 -86.5t57 -86t30.5 -96t9 -116.5q0 -61 -12 -132.5t-36 -143.5t-59.5 -139t-82 -118.5t-105 -82.5t-127.5 -31q-48 0 -94.5 21.5t-88.5 56t-77 77t-59 84.5q-44 77 -44 94q0 9 10 9q7 0 18 -7q148 -93 252 -93
q72 0 134.5 26t112.5 71t88 105t62 128q-22 57 -71 116t-120 119zM387 1145q10 -1 27.5 -2t36 -1.5t35.5 -0.5h28q27 0 50.5 1.5t41.5 4t28 6t10 7.5q0 3 -6 15.5t-18.5 27t-32 25.5t-46.5 11q-56 0 -155 -93zM420 1511q4 -44 6.5 -82.5t2.5 -72.5q0 -37 -3.5 -65.5
t-8.5 -48.5l2 -2q18 19 37 36.5t38.5 31t40 21.5t41.5 8q28 0 51.5 -16.5t41 -42t27 -55.5t9.5 -57q0 -42 -12.5 -72.5t-35.5 -39.5q-7 -3 -18 -6.5t-29 -7t-45 -5.5t-66 -2q-15 0 -39.5 0.5t-53 2.5t-59 5.5t-57.5 10.5q-24 14 -47 48t-38 66q4 0 11.5 -0.5t16 -1t15.5 -1
t10 -0.5q44 0 61 10.5t17 42.5q0 35 -5 87t-13 116q21 20 48 45.5t54 46.5z" />
    <glyph glyph-name="uni0692.fina" unicode="&#x692;" horiz-adv-x="785" 
d="M486 593q20 55 50.5 114.5t63.5 110.5q53 -45 88.5 -86.5t57 -86t30.5 -96t9 -116.5q0 -61 -12 -132.5t-36 -143.5t-59.5 -139t-82 -118.5t-105 -82.5t-127.5 -31q-48 0 -94.5 21.5t-88.5 56t-77 77t-59 84.5q-44 77 -44 94q0 9 10 9q7 0 18 -7q148 -93 252 -93
q72 0 134.5 26t112.5 71t88 105t62 128q-22 57 -71 116t-120 119zM538 997q-33 62 -82.5 125.5t-106.5 133.5q-5 7 -2 20t12 29.5t22 35t28 36.5q46 -58 79 -107.5t62 -105.5q26 48 61 101t79 112q6 -9 14.5 -22t16.5 -27t14 -27t9 -22q-27 -35 -52.5 -68.5t-50 -67
t-49.5 -69.5t-50 -77h-4z" />
    <glyph glyph-name="uni0693.fina" unicode="&#x693;" horiz-adv-x="785" 
d="M623 -332q-60 0 -93 36t-33 92v13t1 13q-31 -17 -64.5 -26.5t-70.5 -9.5q-48 0 -94.5 21.5t-88.5 56t-77 77t-59 84.5q-44 77 -44 94q0 9 10 9q7 0 18 -7q148 -93 252 -93q72 0 134.5 26t112.5 71t88 105t62 128q-22 57 -71 116t-120 119q20 55 50.5 114.5t63.5 110.5
q53 -45 88.5 -86.5t57 -86t30.5 -96t9 -116.5q0 -49 -8 -104.5t-23.5 -113.5t-38.5 -114.5t-53 -107.5q25 -3 46 -17t36 -34t23 -44t8 -47q0 -34 -8 -66.5t-26 -58.5t-47 -42t-71 -16zM633 -78q-14 0 -27.5 -9.5t-24.5 -24t-17.5 -31t-6.5 -30.5q0 -28 20.5 -42.5
t49.5 -14.5q16 0 31.5 2.5t27.5 8.5t19.5 16.5t7.5 26.5q0 13 -6 30t-16.5 32t-25 25.5t-32.5 10.5z" />
    <glyph glyph-name="uni0694.fina" unicode="&#x694;" horiz-adv-x="785" 
d="M486 593q20 55 50.5 114.5t63.5 110.5q53 -45 88.5 -86.5t57 -86t30.5 -96t9 -116.5q0 -61 -12 -132.5t-36 -143.5t-59.5 -139t-82 -118.5t-105 -82.5t-127.5 -31q-48 0 -94.5 21.5t-88.5 56t-77 77t-59 84.5q-44 77 -44 94q0 9 10 9q7 0 18 -7q148 -93 252 -93
q72 0 134.5 26t112.5 71t88 105t62 128q-22 57 -71 116t-120 119zM746 -545l-215 131q11 21 25 45t29 47.5t28.5 44t23.5 34.5q22 -13 50.5 -30t57.5 -36t57 -37t50 -33q-9 -17 -22 -39t-27.5 -45t-29.5 -44.5t-27 -37.5z" />
    <glyph glyph-name="uni0695.fina" unicode="&#x695;" horiz-adv-x="785" 
d="M486 593q20 55 50.5 114.5t63.5 110.5q53 -45 88.5 -86.5t57 -86t30.5 -96t9 -116.5q0 -61 -12 -132.5t-36 -143.5t-59.5 -139t-82 -118.5t-105 -82.5t-127.5 -31q-48 0 -94.5 21.5t-88.5 56t-77 77t-59 84.5q-44 77 -44 94q0 9 10 9q7 0 18 -7q148 -93 252 -93
q72 0 134.5 26t112.5 71t88 105t62 128q-22 57 -71 116t-120 119zM496 -684q-33 62 -82.5 125.5t-106.5 133.5q-5 7 -2 20t12 29.5t22 35t28 36.5q46 -58 79 -107.5t62 -105.5q26 48 61 101t79 112q6 -9 14.5 -22t16.5 -27t14 -27t9 -22q-27 -35 -52.5 -68.5t-50 -67
t-49.5 -69.5t-50 -77h-4z" />
    <glyph glyph-name="uni0696.fina" unicode="&#x696;" horiz-adv-x="785" 
d="M486 593q20 55 50.5 114.5t63.5 110.5q53 -45 88.5 -86.5t57 -86t30.5 -96t9 -116.5q0 -61 -12 -132.5t-36 -143.5t-59.5 -139t-82 -118.5t-105 -82.5t-127.5 -31q-48 0 -94.5 21.5t-88.5 56t-77 77t-59 84.5q-44 77 -44 94q0 9 10 9q7 0 18 -7q148 -93 252 -93
q72 0 134.5 26t112.5 71t88 105t62 128q-22 57 -71 116t-120 119zM746 -545l-215 131q11 21 25 45t29 47.5t28.5 44t23.5 34.5q22 -13 50.5 -30t57.5 -36t57 -37t50 -33q-9 -17 -22 -39t-27.5 -45t-29.5 -44.5t-27 -37.5zM353 211l-207 126q10 20 24 43.5t28 46t27.5 42.5
t23.5 33q21 -12 48 -29t55 -35t55 -35.5t48 -31.5q-8 -17 -20.5 -38t-26.5 -43t-28.5 -43t-26.5 -36z" />
    <glyph glyph-name="uni0697.fina" unicode="&#x697;" horiz-adv-x="785" 
d="M486 593q20 55 50.5 114.5t63.5 110.5q53 -45 88.5 -86.5t57 -86t30.5 -96t9 -116.5q0 -61 -12 -132.5t-36 -143.5t-59.5 -139t-82 -118.5t-105 -82.5t-127.5 -31q-48 0 -94.5 21.5t-88.5 56t-77 77t-59 84.5q-44 77 -44 94q0 9 10 9q7 0 18 -7q148 -93 252 -93
q72 0 134.5 26t112.5 71t88 105t62 128q-22 57 -71 116t-120 119zM349 988l-205 124q10 19 21.5 40t23 41.5t23 39.5t22.5 34q50 -26 98.5 -56t96.5 -62l72 123q60 -32 111.5 -63t89.5 -57q-23 -40 -45 -78t-47 -74q-23 13 -48 28.5t-49.5 30.5t-47 29.5t-40.5 26.5
q-19 -33 -38 -65.5t-38 -61.5z" />
    <glyph glyph-name="uni06EF.fina" unicode="&#x6ef;" horiz-adv-x="785" 
d="M486 593q20 55 50.5 114.5t63.5 110.5q53 -45 88.5 -86.5t57 -86t30.5 -96t9 -116.5q0 -61 -12 -132.5t-36 -143.5t-59.5 -139t-82 -118.5t-105 -82.5t-127.5 -31q-48 0 -94.5 21.5t-88.5 56t-77 77t-59 84.5q-44 77 -44 94q0 9 10 9q7 0 18 -7q148 -93 252 -93
q72 0 134.5 26t112.5 71t88 105t62 128q-22 57 -71 116t-120 119zM563 1323q33 -62 82.5 -125.5t106.5 -133.5q5 -7 2 -20t-12 -29.5t-22 -35t-28 -36.5q-46 58 -79 107.5t-62 105.5q-26 -48 -61 -101t-79 -112q-6 9 -14.5 22t-16.5 27t-14 27t-9 22q27 35 52.5 68.5t50 67
t49 69.5t50.5 77h4z" />
    <glyph glyph-name="uniFB8B" unicode="&#x698;" horiz-adv-x="785" arabic-form="final" 
d="M486 593q20 55 50.5 114.5t63.5 110.5q53 -45 88.5 -86.5t57 -86t30.5 -96t9 -116.5q0 -61 -12 -132.5t-36 -143.5t-59.5 -139t-82 -118.5t-105 -82.5t-127.5 -31q-48 0 -94.5 21.5t-88.5 56t-77 77t-59 84.5q-44 77 -44 94q0 9 10 9q7 0 18 -7q148 -93 252 -93
q72 0 134.5 26t112.5 71t88 105t62 128q-22 57 -71 116t-120 119zM369 978q-48 29 -96 57.5t-95 57.5q23 40 42.5 74t45.5 69q45 -26 88.5 -52t92.5 -55q20 33 39 63t37 57q43 -26 91.5 -56t93.5 -62q-11 -19 -23.5 -39t-25 -39t-23.5 -34.5t-18 -24.5q-42 26 -84.5 52.5
t-84.5 52.5q-20 -28 -39.5 -58.5t-40.5 -62.5zM414 1239q-48 29 -93 55.5t-89 52.5q19 36 40.5 71t47.5 67l182 -109q-5 -9 -14 -24.5t-21 -35t-25.5 -39.5t-27.5 -38z" />
    <glyph glyph-name="uni0699.fina" unicode="&#x699;" horiz-adv-x="785" 
d="M486 593q20 55 50.5 114.5t63.5 110.5q53 -45 88.5 -86.5t57 -86t30.5 -96t9 -116.5q0 -61 -12 -132.5t-36 -143.5t-59.5 -139t-82 -118.5t-105 -82.5t-127.5 -31q-48 0 -94.5 21.5t-88.5 56t-77 77t-59 84.5q-44 77 -44 94q0 9 10 9q7 0 18 -7q148 -93 252 -93
q72 0 134.5 26t112.5 71t88 105t62 128q-22 57 -71 116t-120 119zM294 1239q-45 29 -91 57.5t-93 56.5q22 37 43.5 74t44.5 67q43 -26 85.5 -52.5t87.5 -52.5q10 18 19 32.5t17.5 29t17.5 28.5t20 31q16 -9 39.5 -22t49.5 -28t52 -30.5t49 -30.5q-21 -38 -42.5 -74.5
t-44.5 -71.5q-19 10 -42 23.5t-47 28.5t-46.5 30l-40.5 27zM358 973q-47 29 -93.5 58.5t-94.5 61.5q22 37 41 67t45 68q43 -26 89.5 -54t91.5 -54q10 18 19.5 32.5t18.5 28t18.5 27t20.5 30.5q17 -10 40.5 -23.5t49 -28t51 -30t46.5 -28.5q-21 -38 -40 -72t-42 -69
q-23 12 -49 27t-51 30t-47 29t-37 24q-17 -29 -35.5 -60t-41.5 -64z" />
    <glyph glyph-name="uni069A.init" unicode="&#x69a;" horiz-adv-x="1528" 
d="M429 397q-25 -16 -50.5 -25.5t-59 -14t-78 -6t-107.5 -1.5h-134q-47 0 -65 5t-26 16q-15 22 -15 93q0 90 16 107q8 10 31 14.5t59 4.5h143q31 0 71.5 0.5t78.5 2t68.5 5.5t40.5 12q24 17 35.5 62t19.5 129q48 37 95.5 71.5t95.5 66.5q-3 -46 -10.5 -93t-20 -90t-29.5 -81
t-38 -66q38 -10 93 -14.5t113 -4.5q35 0 58.5 6t37 18t19 29.5t5.5 41.5t-4.5 54t-9.5 66q87 82 172 151q3 -20 5 -43.5t2 -49.5q0 -57 -9 -118t-28 -113q10 -9 32.5 -18.5t51 -17t60.5 -12t61 -4.5q40 0 67.5 11t27.5 37q0 13 -6.5 35t-16.5 47.5t-23.5 51.5t-26.5 49
q34 47 69.5 91t73.5 89q13 -19 26.5 -65.5t24 -107.5t17 -129t6.5 -130q0 -64 -8 -113.5t-26 -69.5q-14 -14 -48 -20t-76 -6q-102 0 -197.5 17t-187.5 59q-50 -44 -101.5 -60t-118.5 -16q-37 0 -68 3.5t-61 9.5t-60.5 14.5t-66.5 19.5zM954 1159l-215 131q11 21 25 45
t29 47.5t28.5 44t23.5 34.5q22 -13 50.5 -30t57.5 -36t57 -37t50 -33q-9 -17 -22 -39t-27.5 -45t-29.5 -44.5t-27 -37.5zM1006 -195l-215 131q11 21 25 45t29 47.5t28.5 44t23.5 34.5q22 -13 50.5 -30t57.5 -36t57 -37t50 -33q-9 -17 -22 -39t-27.5 -45t-29.5 -44.5
t-27 -37.5z" />
    <glyph glyph-name="uni069A.medi" unicode="&#x69a;" horiz-adv-x="1448" 
d="M429 397q-25 -16 -50.5 -25.5t-59 -14t-78 -6t-107.5 -1.5h-134q-47 0 -65 5t-26 16q-15 22 -15 93q0 90 16 107q8 10 31 14.5t59 4.5h143q31 0 71.5 0.5t78.5 2t68.5 5.5t40.5 12q24 17 35.5 62t19.5 129q48 37 95.5 71.5t95.5 66.5q-3 -46 -10.5 -93t-20 -90t-29.5 -81
t-38 -66q38 -10 93 -14.5t113 -4.5q35 0 58.5 6t37 18t19 29.5t5.5 41.5t-4.5 54t-9.5 66q87 82 172 151q3 -20 5 -43.5t2 -49.5q0 -57 -9 -118t-28 -113q10 -9 32.5 -18.5t51 -17t60.5 -12t61 -4.5q40 0 67.5 11t27.5 37q0 13 -6.5 35t-16.5 47.5t-23.5 51.5t-26.5 49
q34 47 69.5 91t73.5 89q13 -19 26.5 -65.5t24 -107.5t17 -129t6.5 -130q0 -64 -8 -113.5t-26 -69.5q-14 -14 -48 -20t-76 -6q-102 0 -197.5 17t-187.5 59q-50 -44 -101.5 -60t-118.5 -16q-37 0 -68 3.5t-61 9.5t-60.5 14.5t-66.5 19.5zM954 1159l-215 131q11 21 25 45
t29 47.5t28.5 44t23.5 34.5q22 -13 50.5 -30t57.5 -36t57 -37t50 -33q-9 -17 -22 -39t-27.5 -45t-29.5 -44.5t-27 -37.5zM1006 -195l-215 131q11 21 25 45t29 47.5t28.5 44t23.5 34.5q22 -13 50.5 -30t57.5 -36t57 -37t50 -33q-9 -17 -22 -39t-27.5 -45t-29.5 -44.5
t-27 -37.5z" />
    <glyph glyph-name="uni069A.fina" unicode="&#x69a;" horiz-adv-x="1850" 
d="M901 902q21 -26 39.5 -60t34.5 -74.5t28.5 -84.5t21.5 -89q31 -3 64.5 -3.5t68.5 -0.5t58.5 6t37 18t19 29.5t5.5 41.5t-4.5 54t-9.5 66q87 82 172 151q3 -20 5 -43.5t2 -49.5q0 -57 -9 -118t-28 -113q10 -9 32.5 -18.5t51 -17t60.5 -12t61 -4.5q40 0 67.5 11t27.5 37
q0 13 -6.5 35t-16.5 47.5t-23.5 51.5t-26.5 49q34 47 69.5 91t73.5 89q13 -19 26.5 -65.5t24 -107.5t17 -129t6.5 -130q0 -64 -8 -113.5t-26 -69.5q-14 -14 -48 -20t-76 -6q-102 0 -197.5 17t-187.5 59q-34 -26 -68 -41t-68 -22.5t-68.5 -9.5t-69.5 -2q-8 -73 -27.5 -132.5
t-44.5 -106t-53 -79t-54 -51.5q-28 -20 -72 -41t-96 -38t-108.5 -27.5t-110.5 -10.5q-98 0 -172.5 27.5t-124 77t-74.5 119t-25 154.5q0 51 7 99.5t21 95.5t36 95.5t52 99.5q28 48 51.5 70t34.5 22q10 0 10 -11q0 -18 -17 -52q-20 -39 -35.5 -74.5t-26 -69t-16 -68
t-5.5 -71.5q0 -60 20.5 -110t59.5 -85.5t96 -55.5t130 -20q52 0 114.5 10t122 28.5t108 45t73.5 60.5v10q0 32 -6 72.5t-21.5 91.5t-43.5 113t-71 137q32 57 66 116.5t70 109.5zM1382 1154l-215 131q11 21 25 45t29 47.5t28.5 44t23.5 34.5q22 -13 50.5 -30t57.5 -36t57 -37
t50 -33q-9 -17 -22 -39t-27.5 -45t-29.5 -44.5t-27 -37.5zM1466 -195l-215 131q11 21 25 45t29 47.5t28.5 44t23.5 34.5q22 -13 50.5 -30t57.5 -36t57 -37t50 -33q-9 -17 -22 -39t-27.5 -45t-29.5 -44.5t-27 -37.5z" />
    <glyph glyph-name="uni069B.init" unicode="&#x69b;" horiz-adv-x="1528" 
d="M429 397q-25 -16 -50.5 -25.5t-59 -14t-78 -6t-107.5 -1.5h-134q-47 0 -65 5t-26 16q-15 22 -15 93q0 90 16 107q8 10 31 14.5t59 4.5h143q31 0 71.5 0.5t78.5 2t68.5 5.5t40.5 12q24 17 35.5 62t19.5 129q48 37 95.5 71.5t95.5 66.5q-3 -46 -10.5 -93t-20 -90t-29.5 -81
t-38 -66q38 -10 93 -14.5t113 -4.5q35 0 58.5 6t37 18t19 29.5t5.5 41.5t-4.5 54t-9.5 66q87 82 172 151q3 -20 5 -43.5t2 -49.5q0 -57 -9 -118t-28 -113q10 -9 32.5 -18.5t51 -17t60.5 -12t61 -4.5q40 0 67.5 11t27.5 37q0 13 -6.5 35t-16.5 47.5t-23.5 51.5t-26.5 49
q34 47 69.5 91t73.5 89q13 -19 26.5 -65.5t24 -107.5t17 -129t6.5 -130q0 -64 -8 -113.5t-26 -69.5q-14 -14 -48 -20t-76 -6q-102 0 -197.5 17t-187.5 59q-50 -44 -101.5 -60t-118.5 -16q-37 0 -68 3.5t-61 9.5t-60.5 14.5t-66.5 19.5zM1027 211q47 -31 94 -61.5t92 -61.5
q-24 -38 -45 -71.5t-48 -67.5q-44 28 -86.5 55.5t-90.5 58.5q-42 -65 -81 -117q-42 27 -88.5 59.5t-91.5 65.5q12 18 25.5 38t26.5 38.5t24.5 33.5t19.5 24l82 -56l82 -56q21 27 41.5 57t43.5 61zM968 -39q46 -32 91 -60.5t87 -56.5q-20 -35 -43 -70t-51 -67l-179 118
q5 9 15 24.5t23 34.5t27.5 39.5t29.5 37.5z" />
    <glyph glyph-name="uni069B.medi" unicode="&#x69b;" horiz-adv-x="1448" 
d="M429 397q-25 -16 -50.5 -25.5t-59 -14t-78 -6t-107.5 -1.5h-134q-47 0 -65 5t-26 16q-15 22 -15 93q0 90 16 107q8 10 31 14.5t59 4.5h143q31 0 71.5 0.5t78.5 2t68.5 5.5t40.5 12q24 17 35.5 62t19.5 129q48 37 95.5 71.5t95.5 66.5q-3 -46 -10.5 -93t-20 -90t-29.5 -81
t-38 -66q38 -10 93 -14.5t113 -4.5q35 0 58.5 6t37 18t19 29.5t5.5 41.5t-4.5 54t-9.5 66q87 82 172 151q3 -20 5 -43.5t2 -49.5q0 -57 -9 -118t-28 -113q10 -9 32.5 -18.5t51 -17t60.5 -12t61 -4.5q40 0 67.5 11t27.5 37q0 13 -6.5 35t-16.5 47.5t-23.5 51.5t-26.5 49
q34 47 69.5 91t73.5 89q13 -19 26.5 -65.5t24 -107.5t17 -129t6.5 -130q0 -64 -8 -113.5t-26 -69.5q-14 -14 -48 -20t-76 -6q-102 0 -197.5 17t-187.5 59q-50 -44 -101.5 -60t-118.5 -16q-37 0 -68 3.5t-61 9.5t-60.5 14.5t-66.5 19.5zM1027 211q47 -31 94 -61.5t92 -61.5
q-24 -38 -45 -71.5t-48 -67.5q-44 28 -86.5 55.5t-90.5 58.5q-42 -65 -81 -117q-42 27 -88.5 59.5t-91.5 65.5q12 18 25.5 38t26.5 38.5t24.5 33.5t19.5 24l82 -56l82 -56q21 27 41.5 57t43.5 61zM968 -39q46 -32 91 -60.5t87 -56.5q-20 -35 -43 -70t-51 -67l-179 118
q5 9 15 24.5t23 34.5t27.5 39.5t29.5 37.5z" />
    <glyph glyph-name="uni069B.fina" unicode="&#x69b;" horiz-adv-x="1850" 
d="M901 902q21 -26 39.5 -60t34.5 -74.5t28.5 -84.5t21.5 -89q31 -3 64.5 -3.5t68.5 -0.5t58.5 6t37 18t19 29.5t5.5 41.5t-4.5 54t-9.5 66q87 82 172 151q3 -20 5 -43.5t2 -49.5q0 -57 -9 -118t-28 -113q10 -9 32.5 -18.5t51 -17t60.5 -12t61 -4.5q40 0 67.5 11t27.5 37
q0 13 -6.5 35t-16.5 47.5t-23.5 51.5t-26.5 49q34 47 69.5 91t73.5 89q13 -19 26.5 -65.5t24 -107.5t17 -129t6.5 -130q0 -64 -8 -113.5t-26 -69.5q-14 -14 -48 -20t-76 -6q-102 0 -197.5 17t-187.5 59q-34 -26 -68 -41t-68 -22.5t-68.5 -9.5t-69.5 -2q-8 -73 -27.5 -132.5
t-44.5 -106t-53 -79t-54 -51.5q-28 -20 -72 -41t-96 -38t-108.5 -27.5t-110.5 -10.5q-98 0 -172.5 27.5t-124 77t-74.5 119t-25 154.5q0 51 7 99.5t21 95.5t36 95.5t52 99.5q28 48 51.5 70t34.5 22q10 0 10 -11q0 -18 -17 -52q-20 -39 -35.5 -74.5t-26 -69t-16 -68
t-5.5 -71.5q0 -60 20.5 -110t59.5 -85.5t96 -55.5t130 -20q52 0 114.5 10t122 28.5t108 45t73.5 60.5v10q0 32 -6 72.5t-21.5 91.5t-43.5 113t-71 137q32 57 66 116.5t70 109.5zM1483 213q47 -31 94 -61.5t92 -61.5q-24 -38 -45 -71.5t-48 -67.5q-44 28 -86.5 55.5
t-90.5 58.5q-42 -65 -81 -117q-42 27 -88.5 59.5t-91.5 65.5q12 18 25.5 38t26.5 38.5t24.5 33.5t19.5 24l82 -56l82 -56q21 27 41.5 57t43.5 61zM1424 -37q46 -32 91 -60.5t87 -56.5q-20 -35 -43 -70t-51 -67l-179 118q5 9 15 24.5t23 34.5t27.5 39.5t29.5 37.5z" />
    <glyph glyph-name="uni069C.init" unicode="&#x69c;" horiz-adv-x="1528" 
d="M429 397q-25 -16 -50.5 -25.5t-59 -14t-78 -6t-107.5 -1.5h-134q-47 0 -65 5t-26 16q-15 22 -15 93q0 90 16 107q8 10 31 14.5t59 4.5h143q31 0 71.5 0.5t78.5 2t68.5 5.5t40.5 12q24 17 35.5 62t19.5 129q48 37 95.5 71.5t95.5 66.5q-3 -46 -10.5 -93t-20 -90t-29.5 -81
t-38 -66q38 -10 93 -14.5t113 -4.5q35 0 58.5 6t37 18t19 29.5t5.5 41.5t-4.5 54t-9.5 66q87 82 172 151q3 -20 5 -43.5t2 -49.5q0 -57 -9 -118t-28 -113q10 -9 32.5 -18.5t51 -17t60.5 -12t61 -4.5q40 0 67.5 11t27.5 37q0 13 -6.5 35t-16.5 47.5t-23.5 51.5t-26.5 49
q34 47 69.5 91t73.5 89q13 -19 26.5 -65.5t24 -107.5t17 -129t6.5 -130q0 -64 -8 -113.5t-26 -69.5q-14 -14 -48 -20t-76 -6q-102 0 -197.5 17t-187.5 59q-50 -44 -101.5 -60t-118.5 -16q-37 0 -68 3.5t-61 9.5t-60.5 14.5t-66.5 19.5zM829 1046q-48 29 -96 57.5t-95 57.5
q23 40 42.5 74t45.5 69q45 -26 88.5 -52t92.5 -55q20 33 39 63t37 57q43 -26 91.5 -56t93.5 -62q-11 -19 -23.5 -39t-25 -39t-23.5 -34.5t-18 -24.5q-42 26 -84.5 52.5t-84.5 52.5q-20 -28 -39.5 -58.5t-40.5 -62.5zM874 1307q-48 29 -93 55.5t-89 52.5q19 36 40.5 71
t47.5 67l182 -109q-5 -9 -14 -24.5t-21 -35t-25.5 -39.5t-27.5 -38zM1027 211q47 -31 94 -61.5t92 -61.5q-24 -38 -45 -71.5t-48 -67.5q-44 28 -86.5 55.5t-90.5 58.5q-42 -65 -81 -117q-42 27 -88.5 59.5t-91.5 65.5q12 18 25.5 38t26.5 38.5t24.5 33.5t19.5 24l82 -56
l82 -56q21 27 41.5 57t43.5 61zM968 -39q46 -32 91 -60.5t87 -56.5q-20 -35 -43 -70t-51 -67l-179 118q5 9 15 24.5t23 34.5t27.5 39.5t29.5 37.5z" />
    </font>
</defs>
</svg>
